<svg id="Facebook" xmlns="http://www.w3.org/2000/svg" width="16" height="16" viewBox="0 0 16 16">
  <path id="Path" d="M16,8a8,8,0,1,0-9.25,7.9v-5.59H4.719V8H6.75V6.237A2.823,2.823,0,0,1,9.772,3.125a12.3,12.3,0,0,1,1.791.156V5.25H10.554A1.156,1.156,0,0,0,9.25,6.5V8h2.219l-.355,2.312H9.25V15.9A8,8,0,0,0,16,8Z" fill="#1877f2"/>
  <path id="Path-2" data-name="Path" d="M6.411,7.205l.356-2.318H4.542v-1.5A1.159,1.159,0,0,1,5.849,2.13H6.861V.157A12.333,12.333,0,0,0,5.065,0,2.83,2.83,0,0,0,2.036,3.12V4.887H0V7.205H2.036v5.6a8.106,8.106,0,0,0,2.506,0v-5.6Z" transform="translate(4.71 3.093)" fill="#fff"/>
</svg>
