<svg xmlns="http://www.w3.org/2000/svg" width="21.5" height="21.156" viewBox="0 0 21.5 21.156"><g transform="translate(-557.25 -189.604)"><path d="M0,0H20" transform="translate(558 210)" fill="none" stroke="#392c23" stroke-linecap="round" stroke-linejoin="round" stroke-width="1.5"/><path d="M12.01,19.587l-12,.02L0,4.668a2.005,2.005,0,0,1,.89-1.66l4-2.67a1.994,1.994,0,0,1,2.22,0l4,2.67A1.981,1.981,0,0,1,12,4.668Z" transform="translate(559 190.402)" fill="none" stroke="#392c23" stroke-linecap="round" stroke-linejoin="round" stroke-width="1.5"/><path d="M0,4.01V0" transform="translate(575.98 206)" fill="none" stroke="#392c23" stroke-linecap="round" stroke-linejoin="round" stroke-width="1.5"/><path d="M2,0A2.006,2.006,0,0,0,0,2V4A2,2,0,0,0,4,4V2A2.006,2.006,0,0,0,2,0Z" transform="translate(574 200)" fill="none" stroke="#392c23" stroke-linecap="round" stroke-linejoin="round" stroke-width="1.5"/><path d="M0,0H12" transform="translate(559 202)" fill="none" stroke="#392c23" stroke-linecap="round" stroke-linejoin="round" stroke-width="1.5"/><path d="M0,3.75V0" transform="translate(565 206.25)" fill="none" stroke="#392c23" stroke-linecap="round" stroke-linejoin="round" stroke-width="1.5"/><path d="M3,1.5A1.5,1.5,0,1,1,1.5,0,1.5,1.5,0,0,1,3,1.5Z" transform="translate(563.5 195.5)" fill="none" stroke="#392c23" stroke-linecap="round" stroke-linejoin="round" stroke-width="1.5"/></g></svg>