<svg width="20" height="20" viewBox="0 0 20 20" fill="none" xmlns="http://www.w3.org/2000/svg">
<g clip-path="url(#clip0_121_1156)">
<path d="M0.742189 0.0351562C0.472658 0.117188 0.234377 0.320312 0.0937517 0.585938C0.0273454 0.710938 0.0195329 0.839844 0.00781419 1.92578C-0.00390456 2.9375 0.00390794 3.16016 0.0585954 3.31641C0.195314 3.73828 0.558595 3.98438 1.03906 3.98438H1.32031L1.33594 4.24219C1.35547 4.54688 1.4375 4.64844 1.67969 4.64844C1.88672 4.64844 1.96875 4.54297 1.99219 4.24219L2.01172 4.00391L2.65625 3.98438C3.17578 3.96875 3.32813 3.94922 3.44531 3.89062C3.60938 3.8125 3.84766 3.56641 3.91797 3.40625C3.94141 3.34766 3.97266 3.01172 3.98438 2.65625L4.00391 2.01172L4.24219 1.99219C4.54297 1.96875 4.64844 1.88672 4.64844 1.67969C4.64844 1.4375 4.54688 1.35547 4.24219 1.33594L3.98438 1.32031V1.03906C3.98438 0.5625 3.73828 0.199219 3.32422 0.0585938C3.18359 0.0117188 2.9336 0 1.9961 0.00390625C1.35938 0.00390625 0.796877 0.0195312 0.742189 0.0351562ZM3.16016 0.722656C3.22266 0.753906 3.28125 0.808594 3.29688 0.839844C3.30859 0.875 3.32031 1.40625 3.32031 2.01562V3.12891L3.22266 3.22266L3.12891 3.32031H2.01563C1.40625 3.32031 0.875002 3.30859 0.839845 3.29688C0.683595 3.23438 0.664064 3.10156 0.664064 1.97266V0.890625L0.777345 0.777344L0.890627 0.664062H1.97266C2.84375 0.664062 3.07031 0.675781 3.16016 0.722656Z" fill="black"/>
<path d="M16.6602 0.0624995C16.2578 0.203125 16.0156 0.574218 16.0156 1.03906V1.32031L15.7578 1.33594C15.4531 1.35547 15.3516 1.4375 15.3516 1.67969C15.3516 1.88672 15.457 1.96875 15.7578 1.99219L15.9961 2.01172L16.0156 2.65625C16.0273 3.01172 16.0586 3.34766 16.082 3.40625C16.1523 3.56641 16.3906 3.8125 16.5547 3.89062C16.6719 3.94922 16.8242 3.96875 17.3437 3.98437L17.9883 4.00391L18.0078 4.24219C18.0312 4.53125 18.1172 4.64844 18.3047 4.64844C18.375 4.64844 18.4609 4.63672 18.4961 4.625C18.5937 4.58594 18.6719 4.39453 18.6719 4.17969V3.98437H18.957C19.4414 3.98437 19.8008 3.73828 19.9414 3.31641C19.9961 3.16016 20.0039 2.9375 19.9922 1.92578C19.9805 0.769531 19.9766 0.714843 19.8945 0.5625C19.7734 0.335937 19.4883 0.0976558 19.2773 0.0429683C19.0078 -0.023438 16.8594 -0.00781298 16.6602 0.0624995ZM19.2227 0.777343L19.3359 0.890625V1.97266C19.3359 3.10156 19.3164 3.23437 19.1602 3.29687C19.125 3.30859 18.5937 3.32031 17.9844 3.32031H16.8711L16.7773 3.22266L16.6797 3.12891V2C16.6797 0.820312 16.6836 0.804687 16.8555 0.710937C16.9062 0.679687 17.3086 0.667968 18.0195 0.664062H19.1094L19.2227 0.777343Z" fill="black"/>
<path d="M5.51951 1.36719C5.3242 1.44922 5.28514 1.77734 5.45311 1.91016C5.54295 1.98047 5.61326 1.99219 5.99998 1.99219C6.40623 1.99219 6.4492 1.98437 6.54686 1.89844C6.68748 1.78125 6.6992 1.5625 6.5703 1.43359C6.49217 1.35547 6.43748 1.34766 6.04295 1.33984C5.80467 1.33203 5.56639 1.34766 5.51951 1.36719Z" fill="black"/>
<path d="M7.51955 1.375C7.32033 1.48828 7.28127 1.73828 7.44143 1.89453C7.53127 1.98828 7.55862 1.99219 7.99612 1.99219C8.47658 1.98828 8.53908 1.97266 8.62502 1.80859C8.69924 1.67188 8.67971 1.5625 8.55862 1.44141C8.44533 1.32812 8.43752 1.32812 8.01955 1.32812C7.77737 1.32812 7.56643 1.34766 7.51955 1.375Z" fill="black"/>
<path d="M9.44922 1.44141C9.30469 1.58984 9.29687 1.76172 9.43359 1.89453C9.52344 1.98828 9.55078 1.99219 10 1.99219C10.4492 1.99219 10.4766 1.98828 10.5664 1.89453C10.7031 1.76172 10.6953 1.58984 10.5508 1.44141C10.4375 1.32812 10.4297 1.32812 10 1.32812C9.57031 1.32812 9.5625 1.32812 9.44922 1.44141Z" fill="black"/>
<path d="M11.4414 1.44141C11.3203 1.5625 11.3008 1.67188 11.375 1.80859C11.461 1.97266 11.5235 1.98828 12.0039 1.99219C12.4414 1.99219 12.4688 1.98828 12.5586 1.89453C12.625 1.83203 12.6563 1.75781 12.6563 1.67188C12.6524 1.39844 12.5078 1.32812 11.9727 1.32812C11.5664 1.32812 11.5547 1.33203 11.4414 1.44141Z" fill="black"/>
<path d="M13.5157 1.375C13.3047 1.48828 13.2774 1.76562 13.4649 1.91406C13.5508 1.98047 13.625 1.99219 14.0039 1.99219C14.3867 1.99219 14.4571 1.98047 14.5469 1.91016C14.6719 1.80859 14.6875 1.58203 14.5742 1.44141C14.5039 1.35547 14.4688 1.34766 14.0547 1.33594C13.75 1.32812 13.5821 1.33984 13.5157 1.375Z" fill="black"/>
<path d="M1.44141 5.42584C1.35156 5.49615 1.34766 5.5235 1.34766 5.99225C1.34766 6.44537 1.35547 6.48834 1.43359 6.57037C1.5625 6.69928 1.78125 6.68756 1.89844 6.54693C1.98438 6.44928 1.99219 6.40631 1.99219 6.00006C1.99219 5.61334 1.98047 5.54303 1.91016 5.45318C1.80859 5.32818 1.58203 5.31256 1.44141 5.42584Z" fill="black"/>
<path d="M18.0898 5.45318C18.0195 5.54303 18.0078 5.61334 18.0078 6.00006C18.0078 6.40631 18.0156 6.44928 18.1016 6.54693C18.2188 6.68756 18.4375 6.69928 18.5664 6.57037C18.6445 6.48834 18.6523 6.44537 18.6523 5.99225C18.6523 5.5235 18.6484 5.49615 18.5586 5.42584C18.418 5.31256 18.1914 5.32818 18.0898 5.45318Z" fill="black"/>
<path d="M1.48047 7.39439C1.35938 7.48814 1.32812 7.61314 1.32812 8.02721C1.32812 8.43346 1.33203 8.44518 1.44141 8.55846C1.5625 8.67955 1.67188 8.69908 1.80859 8.62486C1.97266 8.53893 1.98828 8.47643 1.99219 7.99596C1.99219 7.55846 1.98828 7.53111 1.89453 7.44127C1.78906 7.3358 1.58594 7.31236 1.48047 7.39439Z" fill="black"/>
<path d="M18.1055 7.44127C18.0117 7.53111 18.0078 7.55846 18.0078 7.99596C18.0117 8.47643 18.0273 8.53893 18.1914 8.62486C18.3281 8.69908 18.4375 8.67955 18.5586 8.55846C18.668 8.44518 18.6719 8.43346 18.6719 8.02721C18.6719 7.49205 18.6016 7.34752 18.3281 7.34361C18.2422 7.34361 18.168 7.37486 18.1055 7.44127Z" fill="black"/>
<path d="M1.44141 9.44904C1.32812 9.56232 1.32812 9.57013 1.32812 9.99982C1.32812 10.4295 1.32812 10.4373 1.44141 10.5506C1.58984 10.6951 1.76172 10.7029 1.89453 10.5662C1.98828 10.4764 1.99219 10.449 1.99219 9.99982C1.99219 9.5506 1.98828 9.52325 1.89453 9.43341C1.76172 9.29669 1.58984 9.3045 1.44141 9.44904Z" fill="black"/>
<path d="M18.1055 9.43341C18.0117 9.52325 18.0078 9.5506 18.0078 9.99982C18.0078 10.449 18.0117 10.4764 18.1055 10.5662C18.2383 10.7029 18.4102 10.6951 18.5586 10.5506C18.6719 10.4373 18.6719 10.4295 18.6719 9.99982C18.6719 9.57013 18.6719 9.56232 18.5586 9.44904C18.4102 9.3045 18.2383 9.29669 18.1055 9.43341Z" fill="black"/>
<path d="M1.44141 11.4414C1.33203 11.5547 1.32812 11.5664 1.32812 11.9727C1.32812 12.5078 1.39844 12.6523 1.67188 12.6562C1.75781 12.6562 1.83203 12.625 1.89453 12.5586C1.98828 12.4688 1.99219 12.4414 1.99219 12.0039C1.98828 11.5234 1.97266 11.4609 1.80859 11.375C1.67188 11.3008 1.5625 11.3203 1.44141 11.4414Z" fill="black"/>
<path d="M18.1836 11.375C18.0273 11.4648 18.0117 11.5312 18.0078 12.0039C18.0078 12.4414 18.0117 12.4687 18.1055 12.5586C18.168 12.625 18.2422 12.6562 18.3281 12.6562C18.6016 12.6523 18.6719 12.5078 18.6719 11.9727C18.6719 11.5664 18.668 11.5547 18.5586 11.4414C18.4375 11.3242 18.3125 11.3008 18.1836 11.375Z" fill="black"/>
<path d="M1.53518 13.3594C1.35549 13.4336 1.32034 13.5547 1.33596 14.043C1.34768 14.4688 1.35549 14.5039 1.44143 14.5742C1.58206 14.6875 1.80862 14.6719 1.91018 14.5469C1.98049 14.457 1.99221 14.3867 1.99221 14C1.99221 13.5977 1.9844 13.5508 1.90628 13.4609C1.80471 13.3477 1.66018 13.3086 1.53518 13.3594Z" fill="black"/>
<path d="M18.2187 13.3592C18.043 13.4295 18.0078 13.5428 18.0078 14.0077C18.0078 14.3866 18.0195 14.4569 18.0898 14.5467C18.2461 14.7459 18.5898 14.6561 18.6562 14.3983C18.668 14.3436 18.6719 14.1248 18.6641 13.91C18.6562 13.5819 18.6406 13.5037 18.5742 13.4412C18.4766 13.3475 18.3281 13.3123 18.2187 13.3592Z" fill="black"/>
<path d="M1.44141 15.4257C1.36719 15.4843 1.34766 15.5429 1.33594 15.7578L1.32031 16.0156H1.03906C0.558595 16.0156 0.195314 16.2617 0.0585954 16.6835C0.00390794 16.8398 -0.00390456 17.0624 0.00781419 18.0742C0.0195329 19.2226 0.0234392 19.2851 0.10547 19.4335C0.203127 19.6171 0.394533 19.8046 0.585939 19.9062C0.710939 19.9726 0.839845 19.9804 1.92578 19.9921C2.9375 20.0038 3.16016 19.996 3.31641 19.9413C3.73828 19.8007 3.98438 19.4413 3.98438 18.957V18.6718H4.17969C4.39453 18.6718 4.58594 18.5937 4.625 18.496C4.63672 18.4609 4.64844 18.3749 4.64844 18.3046C4.64844 18.1171 4.53125 18.0312 4.24219 18.0078L4.00391 17.9882L3.98438 17.3437C3.97266 16.9882 3.94141 16.6523 3.91797 16.5937C3.84766 16.4335 3.60938 16.1874 3.44531 16.1093C3.32813 16.0507 3.17578 16.0312 2.65625 16.0156L2.01172 15.996L1.99219 15.7578C1.96875 15.457 1.88672 15.3515 1.67969 15.3515C1.59375 15.3515 1.49219 15.3828 1.44141 15.4257ZM3.22266 16.7773L3.32031 16.871V17.9843C3.32031 18.5937 3.30859 19.1249 3.29688 19.1601C3.23438 19.3163 3.10156 19.3359 1.97266 19.3359H0.890627L0.777345 19.2226L0.664064 19.1093V18.0273C0.664064 17.1523 0.675783 16.9296 0.722658 16.8359C0.753908 16.7773 0.800783 16.7187 0.828127 16.707C0.85547 16.6953 1.38672 16.6835 2.00391 16.6835L3.12891 16.6796L3.22266 16.7773Z" fill="black"/>
<path d="M18.1016 15.4335C18.0508 15.4882 18.0195 15.5976 18.0078 15.7578L17.9883 15.996L17.3437 16.0156C16.8242 16.0312 16.6719 16.0507 16.5547 16.1093C16.3906 16.1874 16.1523 16.4335 16.082 16.5937C16.0586 16.6523 16.0273 16.9882 16.0156 17.3437L15.9961 17.9882L15.7578 18.0078C15.457 18.0312 15.3516 18.1132 15.3516 18.3203C15.3516 18.5624 15.4531 18.6445 15.7578 18.664L16.0156 18.6796V18.9609C16.0156 19.4413 16.2617 19.8046 16.6836 19.9413C16.8398 19.996 17.0625 20.0038 18.0742 19.9921C19.1602 19.9804 19.2891 19.9726 19.4141 19.9062C19.6055 19.8046 19.7969 19.6171 19.8945 19.4335C19.9766 19.2851 19.9805 19.2226 19.9922 18.0742C20.0039 17.0624 19.9961 16.8398 19.9414 16.6835C19.8047 16.2617 19.4414 16.0156 18.9609 16.0156H18.6797L18.6641 15.7578C18.6523 15.5429 18.6328 15.4843 18.5586 15.4257C18.4336 15.3242 18.1953 15.3281 18.1016 15.4335ZM19.1602 16.7031C19.3164 16.7656 19.3359 16.8984 19.3359 18.0273V19.1093L19.2227 19.2226L19.1094 19.3359H18.0273C16.8984 19.3359 16.7656 19.3163 16.7031 19.1601C16.6914 19.1249 16.6797 18.5937 16.6797 17.9843V16.871L16.7773 16.7773L16.8711 16.6796H17.9844C18.5937 16.6796 19.125 16.6913 19.1602 16.7031Z" fill="black"/>
<path d="M5.45312 18.0898C5.32812 18.1914 5.31249 18.418 5.42577 18.5586C5.49609 18.6484 5.52343 18.6523 5.99218 18.6523C6.4453 18.6523 6.48827 18.6445 6.5703 18.5664C6.69921 18.4375 6.68749 18.2188 6.54687 18.1016C6.44921 18.0156 6.40624 18.0078 5.99999 18.0078C5.61327 18.0078 5.54296 18.0195 5.45312 18.0898Z" fill="black"/>
<path d="M7.44141 18.1055C7.375 18.168 7.34375 18.2422 7.34375 18.3281C7.34766 18.6016 7.49219 18.6719 8.02734 18.6719C8.43359 18.6719 8.44531 18.668 8.55859 18.5586C8.67969 18.4375 8.69922 18.3281 8.625 18.1914C8.53906 18.0273 8.47656 18.0117 7.99609 18.0078C7.55859 18.0078 7.53125 18.0117 7.44141 18.1055Z" fill="black"/>
<path d="M9.43359 18.1055C9.29687 18.2383 9.30469 18.4102 9.44922 18.5586C9.5625 18.6719 9.57031 18.6719 10 18.6719C10.4297 18.6719 10.4375 18.6719 10.5508 18.5586C10.6953 18.4102 10.7031 18.2383 10.5664 18.1055C10.4766 18.0117 10.4492 18.0078 10 18.0078C9.55078 18.0078 9.52344 18.0117 9.43359 18.1055Z" fill="black"/>
<path d="M11.4804 18.0586C11.3008 18.1953 11.2851 18.4023 11.4414 18.5586C11.5547 18.668 11.5664 18.6719 11.9726 18.6719C12.5078 18.6719 12.6523 18.6016 12.6562 18.3281C12.6562 18.2422 12.625 18.168 12.5586 18.1055C12.4687 18.0117 12.4414 18.0078 12.0039 18.0078C11.7031 18.0117 11.5195 18.0273 11.4804 18.0586Z" fill="black"/>
<path d="M13.4531 18.1014C13.3125 18.2186 13.3008 18.4373 13.4297 18.5662C13.5078 18.6405 13.5664 18.6522 13.9102 18.6639C14.125 18.6717 14.3438 18.6678 14.3984 18.6561C14.6563 18.5897 14.7461 18.2459 14.5469 18.0897C14.457 18.0194 14.3867 18.0077 14 18.0077C13.5938 18.0077 13.5508 18.0155 13.4531 18.1014Z" fill="black"/>
</g>
<defs>
<clipPath id="clip0_121_1156">
<rect width="20" height="20" fill="white"/>
</clipPath>
</defs>
</svg>
