<svg xmlns="http://www.w3.org/2000/svg" width="24" height="24" viewBox="0 0 24 24">
  <g id="ic_add_photo" transform="translate(-205 -184)">
    <g id="Group_51072" data-name="Group 51072" transform="translate(26 -1)">
      <g id="Rectangle_6982" data-name="Rectangle 6982" transform="translate(179 185)" fill="#3ec4b5" stroke="#fff" stroke-width="1.5">
        <rect width="24" height="24" rx="12" stroke="none"/>
        <rect x="0.75" y="0.75" width="22.5" height="22.5" rx="11.25" fill="none"/>
      </g>
    </g>
    <g id="Camera" transform="translate(210.25 190.25)">
      <path id="Stroke_1" data-name="Stroke 1" d="M9.657,2.179h0a.624.624,0,0,1-.564-.357C8.907,1.428,8.67.924,8.53.649A1.086,1.086,0,0,0,7.523,0H4.477A1.087,1.087,0,0,0,3.47.649c-.139.274-.376.778-.562,1.173a.625.625,0,0,1-.564.357h0A2.343,2.343,0,0,0,0,4.522v3.85a2.343,2.343,0,0,0,2.344,2.343H9.657A2.343,2.343,0,0,0,12,8.373V4.522A2.343,2.343,0,0,0,9.657,2.179Z" transform="translate(0.75 0.75)" fill="none" stroke="#fff" stroke-linecap="round" stroke-linejoin="round" stroke-miterlimit="10" stroke-width="1.2"/>
      <path id="Stroke_3" data-name="Stroke 3" d="M0,2.064A2.062,2.062,0,1,0,2.064,0,2.069,2.069,0,0,0,0,2.064Z" transform="translate(4.688 4.903)" fill="none" stroke="#fff" stroke-linecap="round" stroke-linejoin="round" stroke-miterlimit="10" stroke-width="1.2"/>
      <path id="Fill_5" data-name="Fill 5" d="M.585,1.294a.7.7,0,0,1-.194-.051A.654.654,0,0,1,.183,1.1.662.662,0,0,1,0,.649.63.63,0,0,1,.053.394.66.66,0,0,1,.206.172.742.742,0,0,1,.4.045a.663.663,0,0,1,.7.14.624.624,0,0,1,.123.169l.015.038A.632.632,0,0,1,1.3.649a.659.659,0,0,1-.189.457.646.646,0,0,1-.395.188l-.064,0Z" transform="translate(9.345 4.155)" fill="#fff"/>
    </g>
  </g>
</svg>
