<svg xmlns="http://www.w3.org/2000/svg" width="44.991" height="43.915" viewBox="0 0 44.991 43.915">
  <g id="ic_building_1" transform="translate(0 -6.121)">
    <path id="Path_38898" data-name="Path 38898" d="M14.545,89.148c-3.778,0-13.8,6.386-14.222,6.658a.7.7,0,0,0,0,1.181c.425.272,10.444,6.658,14.222,6.658a7.249,7.249,0,1,0,0-14.5Z" transform="translate(0 -75.731)" fill="#e5e5e5"/>
    <path id="Path_38899" data-name="Path 38899" d="M20.009,117.518A7.248,7.248,0,0,1,13,126.624c-2.75,0-8.8-3.383-12.061-5.329-.344.214-.562.353-.617.389a.7.7,0,0,0,0,1.182c.425.272,10.444,6.658,14.222,6.658a7.243,7.243,0,0,0,5.464-12.005Z" transform="translate(0 -101.608)" fill="#ccc" opacity="0.8"/>
    <path id="Path_38900" data-name="Path 38900" d="M115.262,50.5h-5.986a.7.7,0,1,1,0-1.4h5.562l5.6-10.662a.7.7,0,0,1,.621-.375h8.605a.7.7,0,1,1,0,1.4h-8.181l-5.6,10.662A.7.7,0,0,1,115.262,50.5Z" transform="translate(-99.033 -29.128)" fill="#444c57"/>
    <path id="Path_38901" data-name="Path 38901" d="M378.875,6.121H369.9v7.015h8.979a3.508,3.508,0,1,0,0-7.015Z" transform="translate(-337.392 0)" fill="#90a4ae"/>
    <path id="Path_38902" data-name="Path 38902" d="M382.333,39.385a3.512,3.512,0,0,1-3.458,2.923H369.9v1.169h8.979a3.5,3.5,0,0,0,3.458-4.092Z" transform="translate(-337.392 -30.341)" fill="#82939c"/>
    <path id="Path_38903" data-name="Path 38903" d="M252.936,6.121a.7.7,0,0,0-.2.029L243.2,8.956a.7.7,0,0,0,0,1.346l9.541,2.806a.7.7,0,0,0,.2.029h1.2V6.121Z" transform="translate(-221.368 0)" fill="#fad054"/>
    <path id="Path_38904" data-name="Path 38904" d="M63.749,165.063h-1.31a.7.7,0,1,1,0-1.4h1.309a.7.7,0,0,1,0,1.4Z" transform="translate(-56.313 -143.696)" fill="#444c57"/>
    <g id="Group_58931" data-name="Group 58931" transform="translate(15.948 29.645)">
      <rect id="Rectangle_33946" data-name="Rectangle 33946" width="13.095" height="1.871" transform="translate(7.202)" fill="#e2771e"/>
      <rect id="Rectangle_33947" data-name="Rectangle 33947" width="13.095" height="1.871" transform="translate(0 6.173)" fill="#e2771e"/>
    </g>
    <rect id="Rectangle_33948" data-name="Rectangle 33948" width="1.497" height="1.871" transform="translate(29.043 35.819)" fill="#f3b41b"/>
    <rect id="Rectangle_33949" data-name="Rectangle 33949" width="13.095" height="1.871" transform="translate(23.119 42.273)" fill="#e2771e"/>
    <g id="Group_58932" data-name="Group 58932" transform="translate(36.215 29.645)">
      <rect id="Rectangle_33950" data-name="Rectangle 33950" width="1.497" height="1.871" transform="translate(0.031)" fill="#f3b41b"/>
      <rect id="Rectangle_33951" data-name="Rectangle 33951" width="1.497" height="1.871" transform="translate(0.031 6.173)" fill="#f3b41b"/>
      <rect id="Rectangle_33952" data-name="Rectangle 33952" width="1.497" height="1.871" transform="translate(0 12.627)" fill="#f3b41b"/>
    </g>
    <rect id="Rectangle_33953" data-name="Rectangle 33953" width="13.095" height="1.871" transform="translate(8.529 42.273)" fill="#e2771e"/>
    <rect id="Rectangle_33954" data-name="Rectangle 33954" width="1.497" height="1.871" transform="translate(21.624 42.273)" fill="#f3b41b"/>
    <path id="Path_38905" data-name="Path 38905" d="M351.853,437.916H338.664a.7.7,0,0,1-.7-.7V432.07a.7.7,0,0,1,.7-.7h13.189a.7.7,0,0,1,.7.7v5.145A.7.7,0,0,1,351.853,437.916Z" transform="translate(-308.265 -387.879)" fill="#ef9d3c"/>
    <path id="Path_38906" data-name="Path 38906" d="M339.085,437.167a.374.374,0,0,1-.374-.374v-5.425h-.047a.7.7,0,0,0-.7.7v5.145a.7.7,0,0,0,.7.7h13.189a.7.7,0,0,0,.7-.7v-.047H339.085Z" transform="translate(-308.265 -387.879)" fill="#e2771e"/>
    <path id="Path_38907" data-name="Path 38907" d="M185.8,437.916H172.61a.7.7,0,0,1-.7-.7V432.07a.7.7,0,0,1,.7-.7H185.8a.7.7,0,0,1,.7.7v5.145A.7.7,0,0,1,185.8,437.916Z" transform="translate(-156.803 -387.879)" fill="#fad054"/>
    <path id="Path_38908" data-name="Path 38908" d="M173.031,437.167a.374.374,0,0,1-.374-.374v-5.425h-.047a.7.7,0,0,0-.7.7v5.145a.7.7,0,0,0,.7.7H185.8a.7.7,0,0,0,.7-.7v-.047H173.031Z" transform="translate(-156.803 -387.879)" fill="#f3b41b"/>
    <path id="Path_38909" data-name="Path 38909" d="M268.826,363.4H255.638a.7.7,0,0,1-.7-.7v-5.145a.7.7,0,0,1,.7-.7h13.189a.7.7,0,0,1,.7.7V362.7A.7.7,0,0,1,268.826,363.4Z" transform="translate(-232.534 -319.916)" fill="#fad054"/>
    <path id="Path_38910" data-name="Path 38910" d="M256.058,362.655a.374.374,0,0,1-.374-.374v-5.425h-.047a.7.7,0,0,0-.7.7V362.7a.7.7,0,0,0,.7.7h13.189a.7.7,0,0,0,.7-.7v-.047Z" transform="translate(-232.534 -319.915)" fill="#f3b41b"/>
    <path id="Path_38911" data-name="Path 38911" d="M351.853,288.893H338.664a.7.7,0,0,1-.7-.7v-5.144a.7.7,0,0,1,.7-.7h13.189a.7.7,0,0,1,.7.7v5.144A.7.7,0,0,1,351.853,288.893Z" transform="translate(-308.265 -251.952)" fill="#fad054"/>
    <path id="Path_38912" data-name="Path 38912" d="M339.085,288.144a.374.374,0,0,1-.374-.374v-5.425h-.047a.7.7,0,0,0-.7.7v5.144a.7.7,0,0,0,.7.7h13.189a.7.7,0,0,0,.7-.7v-.047Z" transform="translate(-308.265 -251.951)" fill="#f3b41b"/>
    <path id="Path_38913" data-name="Path 38913" d="M421.691,207.834a.7.7,0,0,0-.7.7v5.145a.7.7,0,0,0,.7.7h5.893a.7.7,0,0,0,.7-.7v-5.145a.7.7,0,0,0-.7-.7Z" transform="translate(-383.996 -183.988)" fill="#fad054"/>
    <path id="Path_38914" data-name="Path 38914" d="M422.112,213.633a.374.374,0,0,1-.374-.374v-5.425h-.047a.7.7,0,0,0-.7.7v5.145a.7.7,0,0,0,.7.7h5.893a.7.7,0,0,0,.7-.7v-.047Z" transform="translate(-383.996 -183.988)" fill="#f3b41b"/>
    <path id="Path_38915" data-name="Path 38915" d="M421.691,356.857a.7.7,0,0,0-.7.7V362.7a.7.7,0,0,0,.7.7h5.893a.7.7,0,0,0,.7-.7v-5.145a.7.7,0,0,0-.7-.7Z" transform="translate(-383.996 -319.916)" fill="#ef9d3c"/>
    <path id="Path_38916" data-name="Path 38916" d="M422.112,362.655a.374.374,0,0,1-.374-.374v-5.425h-.047a.7.7,0,0,0-.7.7V362.7a.7.7,0,0,0,.7.7h5.893a.7.7,0,0,0,.7-.7v-.047Z" transform="translate(-383.996 -319.915)" fill="#e2771e"/>
    <path id="Path_38917" data-name="Path 38917" d="M19.745,437.916H6.556a.7.7,0,0,1-.7-.7V432.07a.7.7,0,0,1,.7-.7H19.745a.7.7,0,0,1,.7.7v5.145A.7.7,0,0,1,19.745,437.916Z" transform="translate(-5.341 -387.879)" fill="#ef9d3c"/>
    <path id="Path_38918" data-name="Path 38918" d="M6.977,437.167a.374.374,0,0,1-.374-.374v-5.425H6.556a.7.7,0,0,0-.7.7v5.145a.7.7,0,0,0,.7.7H19.745a.7.7,0,0,0,.7-.7v-.047H6.977Z" transform="translate(-5.341 -387.879)" fill="#e2771e"/>
    <path id="Path_38919" data-name="Path 38919" d="M102.772,363.4H89.583a.7.7,0,0,1-.7-.7v-5.145a.7.7,0,0,1,.7-.7h13.189a.7.7,0,0,1,.7.7V362.7A.7.7,0,0,1,102.772,363.4Z" transform="translate(-81.072 -319.916)" fill="#ef9d3c"/>
    <path id="Path_38920" data-name="Path 38920" d="M90,362.655a.374.374,0,0,1-.374-.374v-5.425h-.047a.7.7,0,0,0-.7.7V362.7a.7.7,0,0,0,.7.7h13.189a.7.7,0,0,0,.7-.7v-.047Z" transform="translate(-81.072 -319.915)" fill="#e2771e"/>
    <path id="Path_38921" data-name="Path 38921" d="M185.8,288.893H172.61a.7.7,0,0,1-.7-.7v-5.144a.7.7,0,0,1,.7-.7H185.8a.7.7,0,0,1,.7.7v5.144A.7.7,0,0,1,185.8,288.893Z" transform="translate(-156.803 -251.952)" fill="#ef9d3c"/>
    <path id="Path_38922" data-name="Path 38922" d="M173.031,288.144a.374.374,0,0,1-.374-.374v-5.425h-.047a.7.7,0,0,0-.7.7v5.144a.7.7,0,0,0,.7.7H185.8a.7.7,0,0,0,.7-.7v-.047Z" transform="translate(-156.803 -251.951)" fill="#e2771e"/>
    <path id="Path_38923" data-name="Path 38923" d="M268.826,214.382H255.638a.7.7,0,0,1-.7-.7v-5.145a.7.7,0,0,1,.7-.7h13.189a.7.7,0,0,1,.7.7v5.145A.7.7,0,0,1,268.826,214.382Z" transform="translate(-232.534 -183.988)" fill="#ef9d3c"/>
    <path id="Path_38924" data-name="Path 38924" d="M256.058,213.633a.374.374,0,0,1-.374-.374v-5.425h-.047a.7.7,0,0,0-.7.7v5.145a.7.7,0,0,0,.7.7h13.189a.7.7,0,0,0,.7-.7v-.047Z" transform="translate(-232.534 -183.988)" fill="#e2771e"/>
  </g>
</svg>
