<svg xmlns="http://www.w3.org/2000/svg" width="27.075" height="44" viewBox="0 0 27.075 44">
  <g id="ic_elec_3" transform="translate(-98.482 0)">
    <g id="Group_58936" data-name="Group 58936" transform="translate(98.482 0)">
      <path id="Path_38933" data-name="Path 38933" d="M123.989,15.587l-9.333,2.041,4.563-15.981a1.29,1.29,0,0,0-2.293-1.1l-4.1,5.827-14.1,20.038a1.29,1.29,0,0,0,1.362,1.993l8.317-2.047-4.549,16a1.29,1.29,0,0,0,2.275,1.12l6.7-9.036L125.3,17.613A1.29,1.29,0,0,0,123.989,15.587Z" transform="translate(-98.482 0)" fill="#fce397"/>
      <path id="Path_38934" data-name="Path 38934" d="M277.838,17.579l-12.452,16.8V6.365L269.479.55a1.287,1.287,0,0,1,2.289,1.093l-4.554,15.95,9.315-2.037A1.287,1.287,0,0,1,277.838,17.579Z" transform="translate(-251.019 0)" fill="#fad054"/>
      <path id="Path_38935" data-name="Path 38935" d="M316.4,367.184l-3.087-.051,1.64-3.225a1.286,1.286,0,1,0-2.293-1.166l-2.573,5.06c-.523,1.026.162,1.7,1.148,1.87l3.08.051-1.659,3.318a1.286,1.286,0,0,0,2.3,1.151l2.573-5.146A1.289,1.289,0,0,0,316.4,367.184Z" transform="translate(-291.724 -330.903)" fill="#fad054"/>
      <path id="Path_38936" data-name="Path 38936" d="M104.823.174A1.287,1.287,0,0,0,103.1.749l-2.573,5.146a1.289,1.289,0,0,0,1.158,1.862h3.057L103.1,11.041a1.286,1.286,0,1,0,2.3,1.151l2.573-5.146a1.289,1.289,0,0,0-1.151-1.862h-3.064L105.4,1.9a1.287,1.287,0,0,0-.575-1.726Z" transform="translate(-100.226 -0.034)" fill="#fce397"/>
    </g>
  </g>
</svg>
