<svg id="ic_eng_11" xmlns="http://www.w3.org/2000/svg" width="44" height="50.054" viewBox="0 0 44 50.054">
  <g id="Group_58958" data-name="Group 58958" transform="translate(2.936 11.789)">
    <path id="Path_39032" data-name="Path 39032" d="M97.616,135.591H95.536a15.873,15.873,0,0,0-1.444-3.458l1.479-1.481a1.469,1.469,0,0,0,0-2.076l-4.147-4.152a1.465,1.465,0,0,0-2.074,0l-1.479,1.481a15.844,15.844,0,0,0-3.454-1.445v-2.082a1.466,1.466,0,0,0-1.466-1.468H77.085a1.466,1.466,0,0,0-1.466,1.468v2.082a15.839,15.839,0,0,0-3.454,1.445l-1.479-1.481a1.465,1.465,0,0,0-2.074,0l-4.147,4.152a1.469,1.469,0,0,0,0,2.076l1.479,1.481a15.877,15.877,0,0,0-1.444,3.458H62.42a1.466,1.466,0,0,0-1.466,1.468v5.872A1.466,1.466,0,0,0,62.42,144.4H64.5a15.872,15.872,0,0,0,1.444,3.458l-1.479,1.481a1.469,1.469,0,0,0,0,2.076l4.147,4.152a1.465,1.465,0,0,0,2.074,0l1.479-1.481a15.843,15.843,0,0,0,3.454,1.445v2.179a1.466,1.466,0,0,0,1.466,1.468h5.866a1.466,1.466,0,0,0,1.466-1.468v-2.179a15.839,15.839,0,0,0,3.454-1.445l1.479,1.481a1.465,1.465,0,0,0,2.074,0l4.147-4.152a1.469,1.469,0,0,0,0-2.076l-1.479-1.481a15.877,15.877,0,0,0,1.444-3.458h2.079a1.466,1.466,0,0,0,1.466-1.468v-5.872A1.466,1.466,0,0,0,97.616,135.591ZM80.018,148.8a8.808,8.808,0,1,1,8.8-8.808A8.8,8.8,0,0,1,80.018,148.8Z" transform="translate(-60.954 -120.911)" fill="#17ace8"/>
    <path id="Path_39033" data-name="Path 39033" d="M260.36,157.707v-2.179a15.862,15.862,0,0,0,3.458-1.445l1.481,1.481a1.467,1.467,0,0,0,2.076,0l4.152-4.152a1.467,1.467,0,0,0,0-2.076l-1.481-1.481a15.871,15.871,0,0,0,1.445-3.458h2.082a1.467,1.467,0,0,0,1.468-1.468v-5.872a1.467,1.467,0,0,0-1.468-1.468H271.49a15.868,15.868,0,0,0-1.445-3.458l1.481-1.481a1.468,1.468,0,0,0,0-2.076l-4.152-4.152a1.467,1.467,0,0,0-2.076,0l-1.481,1.481a15.867,15.867,0,0,0-3.458-1.445v-2.082a1.467,1.467,0,0,0-1.468-1.468h-2.936v10.276a8.808,8.808,0,1,1,0,17.615v10.374h2.936A1.467,1.467,0,0,0,260.36,157.707Z" transform="translate(-236.911 -120.91)" fill="#006df0" opacity="0.5"/>
    <path id="Path_39034" data-name="Path 39034" d="M161.212,210.912a10.276,10.276,0,1,0,10.256,10.276A10.266,10.266,0,0,0,161.212,210.912Zm0,17.615a7.34,7.34,0,1,1,7.326-7.34A7.341,7.341,0,0,1,161.212,228.527Z" transform="translate(-142.148 -202.104)" fill="#80aaff"/>
    <path id="Path_39035" data-name="Path 39035" d="M266.232,221.188a10.276,10.276,0,0,0-10.276-10.276v2.936a7.34,7.34,0,1,1,0,14.68v2.936A10.276,10.276,0,0,0,266.232,221.188Z" transform="translate(-236.899 -202.104)" fill="#6680ff"/>
  </g>
  <path id="Path_39036" data-name="Path 39036" d="M87.545,18.01l.6-1.332a20.521,20.521,0,0,0-16.251,0l.6,1.332A19.223,19.223,0,0,0,60.956,35.641v1.468H99.084V35.641A19.223,19.223,0,0,0,87.545,18.01Z" transform="translate(-58.02 -13.532)" fill="#fce397"/>
  <path id="Path_39037" data-name="Path 39037" d="M275.039,35.641a19.223,19.223,0,0,0-11.55-17.631l.6-1.332A20.364,20.364,0,0,0,255.956,15V37.109h19.083Z" transform="translate(-233.975 -13.532)" fill="#fad054"/>
  <path id="Path_39038" data-name="Path 39038" d="M73.489,195.912H32.423a1.466,1.466,0,0,0-1.467,1.468v4.4A1.469,1.469,0,0,0,32.02,203.2a86.309,86.309,0,0,0,20.936,2.992A86.309,86.309,0,0,0,73.892,203.2a1.469,1.469,0,0,0,1.064-1.412v-4.4A1.466,1.466,0,0,0,73.489,195.912Z" transform="translate(-30.956 -176.761)" fill="#fad054"/>
  <path id="Path_39039" data-name="Path 39039" d="M277.975,201.784v-4.4a1.467,1.467,0,0,0-1.468-1.468H255.956v10.276A86.455,86.455,0,0,0,276.91,203.2,1.469,1.469,0,0,0,277.975,201.784Z" transform="translate(-233.975 -176.761)" fill="#dfa80d" opacity="0.5"/>
  <path id="Path_39040" data-name="Path 39040" d="M176.948,2.615a1.475,1.475,0,0,0-.786-.817,22.036,22.036,0,0,0-17.435,0,1.467,1.467,0,0,0-.754,1.951l5.2,11.624a1.467,1.467,0,0,0,2.675-1.207L161.285,3.952a19.086,19.086,0,0,1,12.32,0l-4.562,10.213a1.467,1.467,0,0,0,2.675,1.207l5.2-11.624a1.468,1.468,0,0,0,.032-1.134Z" transform="translate(-145.445 0)" fill="#fad054"/>
  <path id="Path_39041" data-name="Path 39041" d="M257.554,14.165a1.467,1.467,0,1,0,2.675,1.207l5.2-11.624a1.467,1.467,0,0,0-.754-1.951A21.963,21.963,0,0,0,255.956,0V2.931a18.988,18.988,0,0,1,6.16,1.021Z" transform="translate(-233.961 0)" fill="#dfa80d" opacity="0.5"/>
</svg>
