<?xml version="1.0" standalone="no"?>
<!DOCTYPE svg PUBLIC "-//W3C//DTD SVG 20010904//EN"
 "http://www.w3.org/TR/2001/REC-SVG-20010904/DTD/svg10.dtd">
<svg version="1.0" xmlns="http://www.w3.org/2000/svg"
 width="512.000000pt" height="512.000000pt" viewBox="0 0 512.000000 512.000000"
 preserveAspectRatio="xMidYMid meet">

<g transform="translate(0.000000,512.000000) scale(0.100000,-0.100000)"
fill="#000000" stroke="none">
<path d="M2475 5101 c-23 -10 -278 -176 -568 -370 -538 -358 -557 -373 -542
-422 10 -30 56 -61 83 -54 13 3 260 164 550 358 442 295 533 352 562 352 30 0
212 -118 1206 -782 645 -430 1179 -792 1188 -805 9 -12 16 -33 16 -46 0 -29
-51 -82 -79 -82 -12 0 -535 343 -1163 762 -752 501 -1152 761 -1168 761 -16 0
-414 -259 -1163 -758 -906 -604 -1143 -758 -1169 -758 -22 0 -38 8 -55 27 -27
32 -29 62 -7 94 9 13 251 180 539 372 287 191 525 356 529 365 19 50 -16 105
-67 105 -19 0 -193 -111 -566 -360 -480 -319 -543 -364 -566 -404 -51 -88 -42
-196 22 -267 50 -55 103 -80 168 -80 70 0 114 20 263 120 67 44 124 81 127 81
3 0 5 -641 5 -1425 l0 -1425 -130 0 c-126 0 -132 -1 -155 -25 -25 -24 -25 -26
-25 -205 0 -179 0 -181 25 -205 l24 -25 1109 0 c1069 0 1111 1 1133 19 17 13
23 29 23 56 0 27 -6 43 -23 56 -22 18 -62 19 -1082 19 l-1059 0 0 80 0 80
2100 0 2100 0 0 -80 0 -80 -901 0 c-557 0 -907 -4 -918 -10 -10 -5 -24 -22
-30 -39 -10 -24 -10 -34 3 -59 8 -16 23 -32 31 -36 9 -3 444 -6 966 -6 l950 0
24 25 c25 24 25 26 25 205 0 179 0 181 -25 205 -23 24 -29 25 -155 25 l-130 0
0 589 0 590 -23 27 c-31 35 -82 38 -109 5 -17 -22 -18 -55 -18 -617 l0 -594
-684 0 -684 0 19 50 c18 47 19 84 19 600 0 652 14 590 -135 590 l-95 0 0 158
c0 86 -5 173 -10 193 -13 45 -69 112 -114 133 -19 9 -303 106 -633 217 -471
158 -603 206 -620 225 -22 24 -23 32 -23 219 0 121 4 203 11 218 14 32 49 47
103 47 l43 0 6 -74 c6 -81 28 -135 74 -178 59 -57 69 -58 476 -58 l373 0 11
-85 c12 -99 39 -149 104 -192 48 -32 144 -43 204 -23 70 23 144 112 145 175 0
11 5 37 11 57 18 66 92 85 136 36 16 -18 19 -45 23 -232 5 -212 5 -213 33
-254 41 -63 97 -95 172 -100 35 -2 80 1 100 8 48 16 101 63 128 114 20 38 22
57 25 269 l4 227 64 0 c103 0 171 39 217 125 21 37 22 54 22 255 0 206 -1 217
-24 263 -25 52 -71 92 -128 113 -56 19 -1960 19 -2016 0 -94 -34 -146 -110
-155 -226 l-5 -68 -72 -4 c-118 -8 -190 -61 -221 -165 -17 -56 -19 -397 -3
-471 11 -55 62 -123 110 -148 16 -8 302 -107 637 -219 442 -149 612 -210 625
-226 14 -18 17 -43 17 -175 l0 -154 -95 0 c-149 0 -135 62 -135 -590 0 -516 1
-553 19 -600 l19 -50 -219 0 -219 0 0 755 c0 742 0 755 -20 775 -19 19 -33 20
-519 20 l-500 0 -20 -26 c-21 -26 -21 -33 -21 -775 l0 -749 -80 0 -80 0 0
1478 0 1479 895 596 895 597 895 -597 895 -596 0 -744 c0 -506 3 -751 11 -764
25 -48 105 -44 128 7 8 18 11 222 11 709 0 377 2 685 5 685 3 0 67 -41 143
-92 181 -122 243 -137 343 -87 50 25 106 91 120 141 15 58 5 131 -26 184 -22
37 -66 71 -305 231 l-280 187 0 393 0 393 53 0 c43 0 58 5 75 23 21 22 22 32
22 209 l0 187 -26 20 c-26 21 -36 21 -516 21 l-489 0 -24 -25 c-25 -24 -25
-26 -25 -205 0 -179 0 -181 25 -205 20 -21 34 -25 80 -25 l55 0 0 -136 c0
-105 -3 -134 -12 -128 -7 4 -242 161 -523 347 -280 187 -527 348 -550 358 -51
24 -119 24 -170 0z m2025 -211 l0 -80 -390 0 -390 0 0 80 0 80 390 0 390 0 0
-80z m-150 -571 c0 -194 -4 -339 -9 -337 -5 2 -110 71 -235 153 l-226 150 0
188 0 187 235 0 235 0 0 -341z m-2180 -933 c0 -61 20 -140 45 -178 32 -48 98
-86 170 -98 80 -13 95 -29 95 -102 l0 -58 -364 0 c-343 0 -365 1 -387 19 -23
19 -24 24 -27 196 -4 189 2 224 41 243 13 6 105 11 225 11 l202 1 0 -34z
m1245 -494 l0 -524 -24 -19 c-27 -22 -79 -25 -107 -5 -17 13 -19 32 -24 223
-6 225 -11 244 -69 306 -88 95 -237 96 -328 1 -41 -42 -55 -76 -68 -157 -8
-49 -36 -77 -78 -77 -70 0 -71 5 -78 232 -5 160 -9 212 -23 243 -33 76 -103
129 -188 141 -61 8 -85 22 -98 57 -11 34 -13 90 -3 100 3 4 250 6 547 5 l541
-3 0 -523z m269 517 c42 -19 48 -52 44 -244 -3 -172 -4 -177 -27 -196 -16 -13
-39 -19 -77 -19 l-54 0 0 235 0 235 45 0 c24 0 55 -5 69 -11z m-1824 -2249 l0
-700 -390 0 -390 0 0 700 0 700 390 0 390 0 0 -700z m1010 -99 l0 -488 -22
-33 c-38 -55 -73 -75 -133 -75 -60 0 -95 20 -132 75 l-23 33 0 488 0 489 155
0 155 0 0 -489z"/>
<path d="M3233 1989 c-86 -42 -127 -117 -121 -220 7 -120 85 -200 203 -207 76
-5 125 10 173 52 123 108 87 319 -65 383 -50 20 -141 17 -190 -8z m147 -139
c43 -23 40 -116 -5 -134 -60 -23 -115 10 -115 69 0 61 63 95 120 65z"/>
</g>
</svg>
