<svg xmlns="http://www.w3.org/2000/svg" width="39.72" height="44" viewBox="0 0 39.72 44">
  <g id="ic_guide_numbers" transform="translate(-4 -1.299)">
    <g id="Group_58764" data-name="Group 58764" transform="translate(4 1.299)">
      <g id="Group_58762" data-name="Group 58762" transform="translate(0.713 1.926)">
        <g id="Group_58751" data-name="Group 58751" transform="translate(9.981 34.232)">
          <path id="Path_38716" data-name="Path 38716" d="M31.833,52v5.7a2.851,2.851,0,0,0-2.852-2.852H21.852A2.851,2.851,0,0,0,19,57.7V52Z" transform="translate(-19 -52)" fill="#17ace8"/>
        </g>
        <g id="Group_58752" data-name="Group 58752" transform="translate(9.981 37.084)">
          <path id="Path_38717" data-name="Path 38717" d="M31.833,58.852v1.426H19V58.852A2.851,2.851,0,0,1,21.852,56h7.129A2.851,2.851,0,0,1,31.833,58.852Z" transform="translate(-19 -56)" fill="#006df0"/>
        </g>
        <g id="Group_58753" data-name="Group 58753" transform="translate(16.397 17.474)">
          <path id="Path_38718" data-name="Path 38718" d="M39.492,29.569a1.511,1.511,0,0,0,1.069-.442l.627-.627.777.777a3.442,3.442,0,0,1,0,4.862l-6.124,6.124L34.709,41.4a3.442,3.442,0,0,1-4.862,0L28,39.55,38.423,29.127A1.521,1.521,0,0,0,39.492,29.569Z" transform="translate(-28 -28.5)" fill="#b4bcc0"/>
        </g>
        <g id="Group_58754" data-name="Group 58754">
          <path id="Path_38719" data-name="Path 38719" d="M19.971,6.852,7.852,18.971,6.005,17.125a3.442,3.442,0,0,1,0-4.862l7.258-7.258a3.442,3.442,0,0,1,4.862,0Z" transform="translate(-5 -4)" fill="#b4bcc0"/>
        </g>
        <g id="Group_58755" data-name="Group 58755" transform="translate(2.849 2.854)">
          <path id="Path_38720" data-name="Path 38720" d="M0,0H17.14V19.156H0Z" transform="translate(0 12.118) rotate(-45)" fill="#cfd8dc"/>
        </g>
        <g id="Group_58756" data-name="Group 58756" transform="translate(26.378 14.263)">
          <path id="Path_38721" data-name="Path 38721" d="M45.836,24.442a1.515,1.515,0,0,1,0,2.139l-.627.627-.627.627A1.512,1.512,0,0,1,42.442,25.7L43.7,24.442a1.515,1.515,0,0,1,2.139,0Z" transform="translate(-42 -24)" fill="#fdd7ad"/>
        </g>
        <g id="Group_58757" data-name="Group 58757" transform="translate(24.239 12.124)">
          <path id="Path_38722" data-name="Path 38722" d="M42.836,21.442a1.515,1.515,0,0,1,0,2.139l-1.255,1.255A1.512,1.512,0,0,1,39.442,22.7L40.7,21.442a1.515,1.515,0,0,1,2.139,0Z" transform="translate(-39 -21)" fill="#fdd7ad"/>
        </g>
        <g id="Group_58758" data-name="Group 58758" transform="translate(22.101 9.984)">
          <path id="Path_38723" data-name="Path 38723" d="M39.836,18.442a1.515,1.515,0,0,1,0,2.139l-1.255,1.255A1.512,1.512,0,0,1,36.442,19.7L37.7,18.442a1.515,1.515,0,0,1,2.139,0Z" transform="translate(-36 -18)" fill="#fdd7ad"/>
        </g>
        <g id="Group_58759" data-name="Group 58759" transform="translate(19.962 7.845)">
          <path id="Path_38724" data-name="Path 38724" d="M36.836,15.442a1.515,1.515,0,0,1,0,2.139l-1.255,1.255A1.512,1.512,0,0,1,33.442,16.7l.627-.627.627-.627a1.515,1.515,0,0,1,2.139,0Z" transform="translate(-33 -15)" fill="#fdd7ad"/>
        </g>
        <g id="Group_58760" data-name="Group 58760" transform="translate(5.703 19.971)">
          <path id="Path_38725" data-name="Path 38725" d="M19.06,35.921l4.634,4.634L25.54,42.4a3.442,3.442,0,0,0,4.862,0l1.134-1.134v1.547a4.873,4.873,0,0,1-1.426,3.443H17.278L13.834,41.1a4.977,4.977,0,0,1,.62-6.274l1.754-1.754.478-.478a2.016,2.016,0,1,1,2.852,2.852Z" transform="translate(-13 -32)" fill="#fdd7ad"/>
        </g>
        <g id="Group_58761" data-name="Group 58761" transform="translate(11.407 11.411)">
          <path id="Path_38726" data-name="Path 38726" d="M29.555,26.616a1.514,1.514,0,0,1-.121.592l-.207.463a1.478,1.478,0,0,1-1.355.884h-.456A6.426,6.426,0,0,1,21,22.139v-.392a1.677,1.677,0,0,1,.92-1.5l.157-.071A1.58,1.58,0,0,1,22.818,20a1.677,1.677,0,0,1,1.5.92l.021.043a2.238,2.238,0,0,1,.228.984,2.186,2.186,0,0,1-.642,1.547l-.071.071A2.142,2.142,0,0,0,25.99,25.7l.071-.071a2.186,2.186,0,0,1,1.547-.642,2.238,2.238,0,0,1,.984.228l.143.078A1.469,1.469,0,0,1,29.555,26.616Z" transform="translate(-21 -20)" fill="#3ec4b5"/>
        </g>
      </g>
      <g id="Group_58763" data-name="Group 58763" transform="translate(0 0)">
        <path id="Path_38727" data-name="Path 38727" d="M35.307,21.185l.123-.123a2.221,2.221,0,0,0-1.5-3.792A2.22,2.22,0,0,0,31.8,15.131a2.22,2.22,0,0,0-2.139-2.139,2.22,2.22,0,0,0-3.791-1.5l-.123.123-7.4-7.4a4.154,4.154,0,0,0-5.876,0L5.217,11.471a4.157,4.157,0,0,0,0,5.878l7.4,7.4L11.369,26a5.687,5.687,0,0,0-.711,7.175l3.323,4.985v7.628H28.239v-7.57A5.538,5.538,0,0,0,29.665,34.5V33.246l5.912-5.913a4.156,4.156,0,0,0,0-5.878Zm-.652-1.7a.8.8,0,0,1-.234.566l-1.253,1.254a.8.8,0,0,1-1.131-1.131l1.253-1.254a.8.8,0,0,1,1.365.566Zm-2.139-2.139a.8.8,0,0,1-.234.566L31.03,19.168A.8.8,0,0,1,29.9,18.037l1.253-1.254a.8.8,0,0,1,1.365.566Zm-2.139-2.139a.8.8,0,0,1-.234.566l-1.253,1.254A.8.8,0,0,1,27.76,15.9l1.253-1.254a.8.8,0,0,1,1.365.566ZM27.44,12.271a.8.8,0,0,1,.565,1.365l-1.253,1.254a.8.8,0,0,1-1.131-1.131L26.875,12.5a.8.8,0,0,1,.565-.234Zm-1.332,4.271a2.22,2.22,0,0,0,2.139,2.139,2.22,2.22,0,0,0,2.139,2.139,2.189,2.189,0,0,0,.23.9L21.11,31.23,17.481,27.6a2.726,2.726,0,0,0-3.855-3.856L8.573,18.689,19.684,7.574l5.052,5.053-.123.123a2.221,2.221,0,0,0,1.5,3.792ZM5.426,14.41a2.713,2.713,0,0,1,.8-1.93l7.252-7.254a2.8,2.8,0,0,1,3.86,0l1.34,1.34L7.565,17.68l-1.34-1.34a2.713,2.713,0,0,1-.8-1.93Zm5.7,15.609a4.233,4.233,0,0,1,1.248-3.012l2.231-2.231a1.291,1.291,0,0,1,.922-.382,1.3,1.3,0,0,1,.922,2.225l-2.765,2.767,1.6,1.6A2.835,2.835,0,0,1,16.12,33v1.376h1.426V33a4.253,4.253,0,0,0-1.253-3.026l-.591-.59.774-.774,5.974,5.975a4.146,4.146,0,0,0,5.774.093,4.116,4.116,0,0,1-1.006,2.551H15.075l-3.231-4.848A4.249,4.249,0,0,1,11.129,30.019Zm15.684,8.637v2.158a3.527,3.527,0,0,0-2.139-.732H17.546a3.527,3.527,0,0,0-2.139.732V38.656Zm0,5.7H15.407v-.713a2.142,2.142,0,0,1,2.139-2.139h7.129a2.142,2.142,0,0,1,2.139,2.139Zm7.755-18.036-7.251,7.253a2.8,2.8,0,0,1-3.86,0l-1.34-1.34,9.505-9.508a2.193,2.193,0,0,0,2.553-.414l.123-.123.27.27a2.731,2.731,0,0,1,0,3.862Z" transform="translate(-4 -1.787)" fill="none"/>
        <path id="Path_38728" data-name="Path 38728" d="M25.445,24.68A1.429,1.429,0,0,1,24.3,23.536a2.931,2.931,0,0,0,.689-1.879,2.974,2.974,0,0,0-.327-1.339,2.381,2.381,0,0,0-3.2-1.065l-.149.075A2.368,2.368,0,0,0,20,21.457v.394a7.137,7.137,0,0,0,7.129,7.129h.46A2.191,2.191,0,0,0,29.6,27.668l.2-.461A2.19,2.19,0,0,0,28.77,24.37l-.147-.073A2.979,2.979,0,0,0,25.445,24.68Zm2.541.893.146.073a.764.764,0,0,1,.359.99l-.2.461a.765.765,0,0,1-.7.458h-.46a5.71,5.71,0,0,1-5.7-5.7v-.394a.952.952,0,0,1,.53-.856l.149-.075a.958.958,0,0,1,.428-.1.97.97,0,0,1,.875.568,1.48,1.48,0,0,1-.277,1.71l-.279.279v.3A2.855,2.855,0,0,0,25.7,26.129H26l.279-.279a1.516,1.516,0,0,1,1.708-.277Z" transform="translate(-8.589 -6.376)" fill="none"/>
        <circle id="Ellipse_936" data-name="Ellipse 936" cx="0.713" cy="0.713" r="0.713" transform="translate(2.852 11.91)" fill="none"/>
        <path id="Path_38729" data-name="Path 38729" d="M0,0H5.041V1.426H0Z" transform="translate(5.197 9.977) rotate(-45)" fill="none"/>
        <path id="Path_38730" data-name="Path 38730" d="M0,0H7.057V1.426H0Z" transform="translate(22.311 28.52) rotate(-45)" fill="none"/>
        <path id="Path_38731" data-name="Path 38731" d="M0,0H1.426V7.057H0Z" transform="translate(26.591 8.138) rotate(-45)" fill="none"/>
        <path id="Path_38732" data-name="Path 38732" d="M0,0H1.426V11.09H0Z" transform="translate(27.307 4.572) rotate(-45)" fill="none"/>
        <path id="Path_38733" data-name="Path 38733" d="M0,0H1.426V15.123H0Z" transform="translate(28.02 1.008) rotate(-45)" fill="none"/>
      </g>
    </g>
  </g>
</svg>
