<svg xmlns="http://www.w3.org/2000/svg" width="33.416" height="44" viewBox="0 0 33.416 44">
  <g id="ic_guide_craft" transform="translate(-61.579 0)">
    <path id="Path_38888" data-name="Path 38888" d="M253.21,109.293a7.286,7.286,0,0,0,5.222,1.425l-8.179,24.242a7.283,7.283,0,0,0-5.026-2.006Z" transform="translate(-167.905 -99.879)" fill="#667180"/>
    <path id="Path_38889" data-name="Path 38889" d="M247.819,133.526l7.748-23.053a6.2,6.2,0,0,1-2.355-1.18l-7.982,23.752A6.521,6.521,0,0,1,247.819,133.526Z" transform="translate(-167.883 -99.926)" fill="#444c57"/>
    <path id="Path_38890" data-name="Path 38890" d="M315.151,3.556A5.418,5.418,0,0,1,319.329.01a.437.437,0,0,1,.5.568l-1.563,4.651,2.065,2.34,3.059-.618,1.43-4.256a.436.436,0,0,1,.775-.106,5.248,5.248,0,0,1-2.008,7.752h0C319,12.618,313.569,8.266,315.151,3.556Z" transform="translate(-231.551 -0.001)" fill="#cfd8dc"/>
    <path id="Path_38891" data-name="Path 38891" d="M317.465,3.555A5.251,5.251,0,0,1,319.872.662L319.9.576a.437.437,0,0,0-.5-.568,5.418,5.418,0,0,0-4.177,3.547c-1.344,4,2.478,8.11,6.907,7.289A5.756,5.756,0,0,1,317.465,3.555Z" transform="translate(-231.627 0)" fill="#b4bcc0"/>
    <path id="Path_38892" data-name="Path 38892" d="M185.5,388.548a5.691,5.691,0,0,1,7.309-3.33c5.56,1.869,5.4,9.5-.363,10.615a.437.437,0,0,1-.5-.568l1.563-4.651-2.065-2.34-3.059.618-1.43,4.256a.437.437,0,0,1-.775.106A5.32,5.32,0,0,1,185.5,388.548Z" transform="translate(-113.04 -351.841)" fill="#cfd8dc"/>
    <path id="Path_38893" data-name="Path 38893" d="M191.957,385a5.614,5.614,0,0,0-6.454,3.551,5.32,5.32,0,0,0,.683,4.705.437.437,0,0,0,.775-.106l.623-1.855A5.292,5.292,0,0,1,191.957,385Z" transform="translate(-113.033 -351.848)" fill="#b4bcc0"/>
    <path id="Path_38894" data-name="Path 38894" d="M169.924,166.258a1.757,1.757,0,0,0-1.757-1.757h-8.611l.988-3.123c-6.508.057-7.8,1.71-10.072,3.123a10.914,10.914,0,0,1-4.935,1.5v10.994a12.149,12.149,0,0,1,3.561.562,18.431,18.431,0,0,0,7.2,1h8.124a1.757,1.757,0,1,0,0-3.513h1.247a1.757,1.757,0,0,0,0-3.513h1.247a1.757,1.757,0,0,0,0-3.513h1.247A1.757,1.757,0,0,0,169.924,166.258Z" transform="translate(-76.803 -147.53)" fill="#fdd7ad"/>
    <path id="Path_38895" data-name="Path 38895" d="M147.694,211.1a10.56,10.56,0,0,1-2.156.338v10.994a11.788,11.788,0,0,1,2.156.21Z" transform="translate(-76.745 -192.974)" fill="#fad054"/>
    <path id="Path_38896" data-name="Path 38896" d="M61.579,210.6a1.125,1.125,0,0,0,1.124,1.124h4.983A1.124,1.124,0,0,0,68.81,210.6V198.761a1.125,1.125,0,0,0-1.124-1.125H62.7a1.125,1.125,0,0,0-1.124,1.125Z" transform="translate(0 -180.669)" fill="#17ace8"/>
    <path id="Path_38897" data-name="Path 38897" d="M63.735,210.6V198.761a1.125,1.125,0,0,1,1.124-1.125H62.7a1.125,1.125,0,0,0-1.124,1.125V210.6a1.125,1.125,0,0,0,1.124,1.124H64.86A1.125,1.125,0,0,1,63.735,210.6Z" transform="translate(0 -180.669)" fill="#006df0"/>
  </g>
</svg>
