<svg id="ic_guide_systems" xmlns="http://www.w3.org/2000/svg" width="43.517" height="44" viewBox="0 0 43.517 44">
  <g id="Page-1">
    <g id="_039---Handing-Over-Copy" data-name="039---Handing-Over-Copy">
      <path id="Shape" d="M28.079,42.483A1.522,1.522,0,0,1,26.561,44H1.518A1.522,1.522,0,0,1,0,42.483V7.586L7.589,0H26.561a1.522,1.522,0,0,1,1.518,1.517Z" fill="#b4bcc0"/>
      <path id="Shape-2" data-name="Shape" d="M0,7.589,7.589,0V6.071A1.522,1.522,0,0,1,6.071,7.589Z" fill="#cfd8dc"/>
      <g id="Group_58930" data-name="Group 58930" transform="translate(3.794 11.368)">
        <path id="Shape-3" data-name="Shape" d="M10.312,16.518H5.759a.759.759,0,1,1,0-1.518h4.553a.759.759,0,0,1,0,1.518Z" transform="translate(-5 -15)" fill="#fff"/>
        <path id="Shape-4" data-name="Shape" d="M27.9,16.518H15.759a.759.759,0,1,1,0-1.518H27.9a.759.759,0,0,1,0,1.518Z" transform="translate(-7.411 -15)" fill="#fff"/>
        <path id="Shape-5" data-name="Shape" d="M17.9,21.518H5.759a.759.759,0,1,1,0-1.518H17.9a.759.759,0,1,1,0,1.518Z" transform="translate(-5 -16.206)" fill="#fff"/>
        <path id="Shape-6" data-name="Shape" d="M10.312,26.518H5.759a.759.759,0,0,1,0-1.518h4.553a.759.759,0,0,1,0,1.518Z" transform="translate(-5 -17.411)" fill="#fff"/>
        <path id="Shape-7" data-name="Shape" d="M20.714,26.518H15.759a.759.759,0,1,1,0-1.518h4.955a.759.759,0,0,1,0,1.518Z" transform="translate(-7.411 -17.411)" fill="#fff"/>
        <path id="Shape-8" data-name="Shape" d="M16.854,31.518H5.759a.759.759,0,0,1,0-1.518H16.854a.759.759,0,0,1,0,1.518Z" transform="translate(-5 -18.617)" fill="#fff"/>
        <path id="Shape-9" data-name="Shape" d="M10.312,36.518H5.759a.759.759,0,1,1,0-1.518h4.553a.759.759,0,0,1,0,1.518Z" transform="translate(-5 -19.822)" fill="#fff"/>
        <path id="Shape-10" data-name="Shape" d="M18.385,36.518H15.759a.759.759,0,0,1,0-1.518h2.626a.759.759,0,1,1,0,1.518Z" transform="translate(-7.411 -19.822)" fill="#fff"/>
        <path id="Shape-11" data-name="Shape" d="M17.78,41.518H5.759a.759.759,0,1,1,0-1.518H17.78a.759.759,0,1,1,0,1.518Z" transform="translate(-5 -21.028)" fill="#fff"/>
        <path id="Shape-12" data-name="Shape" d="M10.312,46.518H5.759a.759.759,0,0,1,0-1.518h4.553a.759.759,0,0,1,0,1.518Z" transform="translate(-5 -22.234)" fill="#fff"/>
        <path id="Shape-13" data-name="Shape" d="M27.9,46.518H15.759a.759.759,0,0,1,0-1.518H27.9a.759.759,0,0,1,0,1.518Z" transform="translate(-7.411 -22.234)" fill="#fff"/>
        <path id="Shape-14" data-name="Shape" d="M30.312,51.518H25.759a.759.759,0,1,1,0-1.518h4.553a.759.759,0,1,1,0,1.518Z" transform="translate(-9.822 -23.439)" fill="#fff"/>
        <path id="Shape-15" data-name="Shape" d="M17.9,51.518H5.759a.759.759,0,1,1,0-1.518H17.9a.759.759,0,1,1,0,1.518Z" transform="translate(-5 -23.439)" fill="#fff"/>
      </g>
      <path id="Shape-16" data-name="Shape" d="M44.924,26.506V43.2H40.348a3.719,3.719,0,0,0-2.125.653A9.154,9.154,0,0,1,33.73,45.44V32.668c-.023-.1-.046-.2-.061-.3a.008.008,0,0,1-.008-.008,7.7,7.7,0,0,1,0-2.466l-3.225-1.616-1.859,4.872A2.683,2.683,0,0,1,26.1,34.854a2.174,2.174,0,0,1-.539-.061,2.066,2.066,0,0,1-.41-.114A2.656,2.656,0,0,1,23.44,32.2a2.589,2.589,0,0,1,.175-.949l.653-1.707L26.18,24.51l.379-1a2.465,2.465,0,0,1,.342-.622,2.677,2.677,0,0,1,3.028-.933l3.8,1.465,5.312,2.041a10.2,10.2,0,0,0,4.113,1.047Z" transform="translate(-5.667 -5.273)" fill="#fdd7ad"/>
      <path id="Shape-17" data-name="Shape" d="M41.526,39.818a.759.759,0,0,1-.751.668.37.37,0,0,1-.091-.008,6.3,6.3,0,0,1-3.7-1.586V36.024c-.023-.1-.046-.2-.061-.3a.83.83,0,0,1,.038.129c.425,1.806,1.738,2.853,3.908,3.127A.759.759,0,0,1,41.526,39.818Z" transform="translate(-8.913 -8.623)" fill="#f9c795"/>
      <rect id="Rectangle-path" width="4.353" height="18.864" rx="2" transform="translate(39.163 20.3)" fill="#cf2a45"/>
    </g>
  </g>
</svg>
