<svg id="ic_home_numbers" xmlns="http://www.w3.org/2000/svg" width="31.596" height="35" viewBox="0 0 31.596 35">
  <g id="Group_58762" data-name="Group 58762" transform="translate(0.566 1.528)">
    <g id="Group_58751" data-name="Group 58751" transform="translate(7.918 27.251)">
      <path id="Path_38716" data-name="Path 38716" d="M29.18,52v4.524a2.262,2.262,0,0,0-2.262-2.262H21.262A2.262,2.262,0,0,0,19,56.524V52Z" transform="translate(-19 -52)" fill="#17ace8"/>
    </g>
    <g id="Group_58752" data-name="Group 58752" transform="translate(7.918 29.513)">
      <path id="Path_38717" data-name="Path 38717" d="M29.18,58.262v1.131H19V58.262A2.262,2.262,0,0,1,21.262,56h5.656A2.262,2.262,0,0,1,29.18,58.262Z" transform="translate(-19 -56)" fill="#006df0"/>
    </g>
    <g id="Group_58753" data-name="Group 58753" transform="translate(13.008 13.923)">
      <path id="Path_38718" data-name="Path 38718" d="M37.117,29.348A1.2,1.2,0,0,0,37.965,29l.5-.5.616.616a2.731,2.731,0,0,1,0,3.857l-4.858,4.858-.9.9a2.731,2.731,0,0,1-3.857,0L28,37.266,36.268,29A1.206,1.206,0,0,0,37.117,29.348Z" transform="translate(-28 -28.5)" fill="#b4bcc0"/>
    </g>
    <g id="Group_58754" data-name="Group 58754">
      <path id="Path_38719" data-name="Path 38719" d="M16.877,6.262,7.262,15.877,5.8,14.412a2.731,2.731,0,0,1,0-3.857L11.555,4.8a2.731,2.731,0,0,1,3.857,0Z" transform="translate(-5 -4)" fill="#b4bcc0"/>
    </g>
    <g id="Group_58755" data-name="Group 58755" transform="translate(2.26 2.264)">
      <path id="Path_38720" data-name="Path 38720" d="M0,0H13.6V15.2H0Z" transform="translate(0 9.613) rotate(-45)" fill="#cfd8dc"/>
    </g>
    <g id="Group_58756" data-name="Group 58756" transform="translate(20.926 11.351)">
      <path id="Path_38721" data-name="Path 38721" d="M45.043,24.351a1.2,1.2,0,0,1,0,1.7l-.5.5-.5.5a1.2,1.2,0,0,1-1.7-1.7l1-1a1.2,1.2,0,0,1,1.7,0Z" transform="translate(-42 -24)" fill="#fdd7ad"/>
    </g>
    <g id="Group_58757" data-name="Group 58757" transform="translate(19.229 9.649)">
      <path id="Path_38722" data-name="Path 38722" d="M42.043,21.351a1.2,1.2,0,0,1,0,1.7l-1,1a1.2,1.2,0,0,1-1.7-1.7l1-1a1.2,1.2,0,0,1,1.7,0Z" transform="translate(-39 -21)" fill="#fdd7ad"/>
    </g>
    <g id="Group_58758" data-name="Group 58758" transform="translate(17.532 7.946)">
      <path id="Path_38723" data-name="Path 38723" d="M39.043,18.351a1.2,1.2,0,0,1,0,1.7l-1,1a1.2,1.2,0,0,1-1.7-1.7l1-1a1.2,1.2,0,0,1,1.7,0Z" transform="translate(-36 -18)" fill="#fdd7ad"/>
    </g>
    <g id="Group_58759" data-name="Group 58759" transform="translate(15.836 6.243)">
      <path id="Path_38724" data-name="Path 38724" d="M36.043,15.351a1.2,1.2,0,0,1,0,1.7l-1,1a1.2,1.2,0,0,1-1.7-1.7l.5-.5.5-.5a1.2,1.2,0,0,1,1.7,0Z" transform="translate(-33 -15)" fill="#fdd7ad"/>
    </g>
    <g id="Group_58760" data-name="Group 58760" transform="translate(4.524 15.913)">
      <path id="Path_38725" data-name="Path 38725" d="M17.807,35.111l3.676,3.676,1.465,1.465a2.731,2.731,0,0,0,3.857,0l.9-.9V40.58a3.866,3.866,0,0,1-1.131,2.732H16.393l-2.732-4.095a3.948,3.948,0,0,1,.492-4.977l1.391-1.391.379-.379a1.6,1.6,0,1,1,2.262,2.262Z" transform="translate(-13 -32)" fill="#fdd7ad"/>
    </g>
    <g id="Group_58761" data-name="Group 58761" transform="translate(9.049 9.085)">
      <path id="Path_38726" data-name="Path 38726" d="M27.787,25.248a1.2,1.2,0,0,1-.1.469l-.164.368a1.172,1.172,0,0,1-1.075.7H26.09A5.1,5.1,0,0,1,21,21.7v-.311a1.33,1.33,0,0,1,.73-1.188l.124-.057A1.254,1.254,0,0,1,22.442,20a1.33,1.33,0,0,1,1.188.73l.017.034a1.775,1.775,0,0,1,.181.78,1.734,1.734,0,0,1-.509,1.227l-.057.057a1.7,1.7,0,0,0,1.7,1.7l.057-.057a1.734,1.734,0,0,1,1.227-.509,1.775,1.775,0,0,1,.78.181l.113.062A1.166,1.166,0,0,1,27.787,25.248Z" transform="translate(-21 -20)" fill="#3ec4b5"/>
    </g>
  </g>
  <g id="Group_58763" data-name="Group 58763" transform="translate(0 0)">
    <path id="Path_38727" data-name="Path 38727" d="M28.836,17.466l.1-.1a1.768,1.768,0,0,0-1.186-3.016,1.763,1.763,0,0,0-1.7-1.7,1.763,1.763,0,0,0-1.7-1.7,1.76,1.76,0,0,0-3.007-1.19l-.1.1L15.38,3.968a3.289,3.289,0,0,0-4.661,0L4.965,9.739a3.313,3.313,0,0,0,0,4.676l5.87,5.888-.99.993A4.534,4.534,0,0,0,9.282,27l2.636,3.966v6.068H23.229V31.015a4.413,4.413,0,0,0,1.131-2.957v-1l4.69-4.7a3.313,3.313,0,0,0,0-4.676Zm-.517-1.35a.634.634,0,0,1-.186.45l-.994,1a.635.635,0,0,1-.9-.9l.994-1a.634.634,0,0,1,1.082.45Zm-1.7-1.7a.634.634,0,0,1-.186.45l-.994,1a.635.635,0,0,1-.9-.9l.994-1a.634.634,0,0,1,1.082.45Zm-1.7-1.7a.634.634,0,0,1-.186.45l-.994,1a.635.635,0,0,1-.9-.9l.994-1a.634.634,0,0,1,1.082.45ZM22.6,10.375a.637.637,0,0,1,.448,1.086l-.994,1a.635.635,0,0,1-.9-.9l.994-1a.631.631,0,0,1,.448-.186Zm-1.056,3.4a1.763,1.763,0,0,0,1.7,1.7,1.763,1.763,0,0,0,1.7,1.7,1.746,1.746,0,0,0,.182.717l-7.541,7.564L14.695,22.57A2.166,2.166,0,0,0,11.637,19.5L7.628,15.481l8.815-8.842,4.008,4.02-.1.1a1.768,1.768,0,0,0,1.186,3.016Zm-16.407-1.7a2.161,2.161,0,0,1,.634-1.536l5.753-5.771a2.212,2.212,0,0,1,3.062,0l1.063,1.066L6.828,14.678,5.765,13.612a2.161,2.161,0,0,1-.634-1.536ZM9.656,24.494a3.372,3.372,0,0,1,.99-2.4l1.77-1.775a1.023,1.023,0,0,1,.731-.3,1.038,1.038,0,0,1,.731,1.77l-2.194,2.2,1.269,1.272a2.258,2.258,0,0,1,.662,1.6v1.094h1.131V26.867a3.388,3.388,0,0,0-.994-2.407l-.469-.47.614-.616,4.739,4.753a3.283,3.283,0,0,0,4.58.074,3.279,3.279,0,0,1-.8,2.029H12.786l-2.563-3.856A3.387,3.387,0,0,1,9.656,24.494ZM22.1,31.365v1.717a2.793,2.793,0,0,0-1.7-.582H14.746a2.793,2.793,0,0,0-1.7.582V31.365Zm0,4.538H13.049v-.567a1.7,1.7,0,0,1,1.7-1.7H20.4a1.7,1.7,0,0,1,1.7,1.7ZM28.25,21.555,22.5,27.325a2.212,2.212,0,0,1-3.062,0l-1.063-1.066L25.914,18.7a1.736,1.736,0,0,0,2.025-.33l.1-.1.214.215a2.177,2.177,0,0,1,0,3.072Z" transform="translate(-4 -2.038)" fill="none"/>
    <path id="Path_38728" data-name="Path 38728" d="M24.32,23.506a1.134,1.134,0,0,1-.908-.908,2.325,2.325,0,0,0,.547-1.491,2.359,2.359,0,0,0-.259-1.062,1.889,1.889,0,0,0-2.537-.845l-.118.059A1.878,1.878,0,0,0,20,20.949v.313a5.662,5.662,0,0,0,5.656,5.656h.365a1.738,1.738,0,0,0,1.592-1.041l.159-.365a1.737,1.737,0,0,0-.814-2.251l-.117-.058A2.363,2.363,0,0,0,24.32,23.506Zm2.016.708.116.058a.606.606,0,0,1,.284.786l-.159.365a.607.607,0,0,1-.556.364h-.365a4.53,4.53,0,0,1-4.524-4.524v-.313a.755.755,0,0,1,.42-.679l.118-.059a.76.76,0,0,1,.339-.08.77.77,0,0,1,.695.451,1.174,1.174,0,0,1-.219,1.356l-.222.222v.234a2.265,2.265,0,0,0,2.262,2.262h.234l.222-.222a1.2,1.2,0,0,1,1.355-.22Z" transform="translate(-10.915 -8.95)" fill="none"/>
    <circle id="Ellipse_936" data-name="Ellipse 936" cx="0.566" cy="0.566" r="0.566" transform="translate(2.262 9.475)" fill="none"/>
    <path id="Path_38729" data-name="Path 38729" d="M0,0H4V1.131H0Z" transform="translate(4.123 7.915) rotate(-45)" fill="none"/>
    <path id="Path_38730" data-name="Path 38730" d="M0,0H5.6V1.131H0Z" transform="translate(17.756 22.683) rotate(-45)" fill="none"/>
    <path id="Path_38731" data-name="Path 38731" d="M0,0H1.131V5.6H0Z" transform="translate(21.162 6.473) rotate(-45)" fill="none"/>
    <path id="Path_38732" data-name="Path 38732" d="M0,0H1.131V8.8H0Z" transform="translate(21.748 3.627) rotate(-45)" fill="none"/>
    <path id="Path_38733" data-name="Path 38733" d="M0,0H1.131V12H0Z" transform="translate(22.314 0.8) rotate(-45)" fill="none"/>
  </g>
</svg>
