<svg id="ic_home_water" xmlns="http://www.w3.org/2000/svg" width="29.651" height="35" viewBox="0 0 29.651 35">
  <g id="Group_58963" data-name="Group 58963" transform="translate(0)">
    <path id="Path_39048" data-name="Path 39048" d="M235.034,87.96h-2.022v4.172h2.022Z" transform="translate(-218.66 -82.038)" fill="#84a19c"/>
    <path id="Path_39049" data-name="Path 39049" d="M249.023,87.96h-1.011v4.172h1.011Z" transform="translate(-233.659 -82.038)" fill="#444c57"/>
    <path id="Path_39050" data-name="Path 39050" d="M35.822,133.77v7.607H41.51a6.037,6.037,0,0,0,9.343,0h2.026v5.4h7.608v-7a6.011,6.011,0,0,0-6-6h-3.59a6.036,6.036,0,0,0-9.419,0Z" transform="translate(-30.836 -122.663)" fill="#eae6f2"/>
    <path id="Path_39051" data-name="Path 39051" d="M248.012,133.77v7.607H253.7a6.063,6.063,0,0,0,4.672,2.213V131.51a6.054,6.054,0,0,0-4.71,2.26Z" transform="translate(-243 -122.66)" fill="#8dd9f0"/>
    <path id="Path_39052" data-name="Path 39052" d="M74.762,3.452A3.453,3.453,0,0,0,78.208,6.9a24.374,24.374,0,0,0,4.857-.827A9.752,9.752,0,0,0,86.425,4.69a9.74,9.74,0,0,0,3.359,1.386A24.376,24.376,0,0,0,94.64,6.9a3.452,3.452,0,0,0,0-6.9,24.376,24.376,0,0,0-4.857.827,9.74,9.74,0,0,0-3.359,1.386A9.752,9.752,0,0,0,83.066.827,24.374,24.374,0,0,0,78.208,0a3.453,3.453,0,0,0-3.446,3.452Z" transform="translate(-71.061 0)" fill="#17ace8"/>
    <path id="Path_39053" data-name="Path 39053" d="M248.012,3.452A3.456,3.456,0,0,0,251.464,6.9a24.444,24.444,0,0,0,4.865-.827,9.774,9.774,0,0,0,3.364-1.386V2.213A9.774,9.774,0,0,0,256.328.827,24.444,24.444,0,0,0,251.464,0a3.456,3.456,0,0,0-3.452,3.452Z" transform="translate(-244.311 0)" fill="#006df0"/>
    <ellipse id="Ellipse_5924" data-name="Ellipse 5924" cx="3.472" cy="3.472" rx="3.472" ry="3.472" transform="translate(11.891)" fill="#eae6f2"/>
    <path id="Path_39055" data-name="Path 39055" d="M385.3,131.508a2.425,2.425,0,0,1,2.422,2.422v7.594a2.424,2.424,0,0,1-2.422,2.422h-3.611V131.508Z" transform="translate(-381.351 -122.659)" fill="#68ccea"/>
    <path id="Path_39056" data-name="Path 39056" d="M448.2,110.117h-2.022v15.322H448.2Z" transform="translate(-446.178 -102.709)" fill="#444c57"/>
    <path id="Path_39057" data-name="Path 39057" d="M251.484,6.944V0a3.472,3.472,0,0,0,0,6.944Z" transform="translate(-236.118)" fill="#8dd9f0"/>
    <g id="Group_58965" data-name="Group 58965" transform="translate(22.34 25.545)">
      <path id="Path_38696" data-name="Path 38696" d="M61.615,63.817a3.508,3.508,0,1,1-7.015,0c0-1.952,3.508-5.917,3.508-5.917S61.615,61.865,61.615,63.817Z" transform="translate(-54.6 -57.9)" fill="#68ccea"/>
      <path id="Path_38697" data-name="Path 38697" d="M60.756,68.6a3.332,3.332,0,0,1-3.233,4.667,3.485,3.485,0,0,1-2.623-1.19,3.511,3.511,0,0,0,6.924-.854A6.308,6.308,0,0,0,60.756,68.6Z" transform="translate(-54.809 -65.336)" fill="#5abce2"/>
      <path id="Path_38699" data-name="Path 38699" d="M62.5,79.965a2.226,2.226,0,0,1-1.251-.366.639.639,0,0,1,.7-1.068,1.021,1.021,0,0,0,1.1,0,.635.635,0,1,1,.732,1.037,2.353,2.353,0,0,1-1.281.4Z" transform="translate(-59.022 -72.157)" fill="#fff"/>
    </g>
  </g>
</svg>
