<svg xmlns="http://www.w3.org/2000/svg" width="32" height="32.025" viewBox="0 0 32 32.025">
  <g id="ic_home_guide" transform="translate(0 0.019)">
    <path id="Path_38662" data-name="Path 38662" d="M16,28a.653.653,0,0,1-.287-.065C12.4,26.36,8.184,26.248,2.44,27.581A1.995,1.995,0,0,1,0,25.634V4.156A2.017,2.017,0,0,1,1.1,2.367C7.471-.835,12.227-.816,16,2.439,19.774-.816,24.53-.832,30.9,2.367A2.016,2.016,0,0,1,32,4.156V25.634a1.995,1.995,0,0,1-2.44,1.948c-5.743-1.335-9.961-1.223-13.273.357A.671.671,0,0,1,16,28Z" transform="translate(0 0)" fill="#cfd8dc"/>
    <path id="Path_38663" data-name="Path 38663" d="M13.668,1.08V27.13q-.54.2-1.041.44a.68.68,0,0,1-.587,0q-.5-.24-1.041-.44V1.08a10.111,10.111,0,0,1,1.334.987A10.111,10.111,0,0,1,13.668,1.08Z" transform="translate(3.666 0.367)" fill="#90a4ae"/>
    <path id="Path_38664" data-name="Path 38664" d="M16.01,28ZM9.478-.019A19.073,19.073,0,0,0,1.1,2.367,2.013,2.013,0,0,0,0,4.157V25.634a2,2,0,0,0,1.989,2,2.013,2.013,0,0,0,.452-.052A31.346,31.346,0,0,1,9.46,26.66a14.638,14.638,0,0,1,5.8,1.071c-.192-.083-.388-.16-.588-.235V1.45a9.543,9.543,0,0,0-5.2-1.469Z" transform="translate(0 0)" fill="#b4bcc0"/>
    <path id="Path_38665" data-name="Path 38665" d="M11,1.08V27.13q.3.11.588.235c.153.065.3.135.454.205l.292.067V2.067h0A10.111,10.111,0,0,0,11,1.08Z" transform="translate(3.666 0.367)" fill="#82939c"/>
    <path id="Path_38666" data-name="Path 38666" d="M27.619,25.732,24.23,22.344a6.691,6.691,0,1,0-1.886,1.886l3.389,3.389a1.334,1.334,0,0,0,1.886-1.886Zm-8.948-3.059a4,4,0,1,1,4-4,4.007,4.007,0,0,1-4,4Z" transform="translate(3.99 3.996)" fill="#d84059"/>
    <path id="Path_38667" data-name="Path 38667" d="M22,18a4,4,0,1,1-4-4,4,4,0,0,1,4,4Z" transform="translate(4.663 4.669)" fill="#fff"/>
    <path id="Path_38668" data-name="Path 38668" d="M14.132,13.339a6.664,6.664,0,0,0,8.212,10.444l3.389,3.389a1.333,1.333,0,0,0,1.886,0h0l-6.042-6.2a3.989,3.989,0,0,1-2.906,1.25h0a4,4,0,0,1-4-4h0a3.991,3.991,0,0,1,1.325-2.975l-1.861-1.909Z" transform="translate(3.99 4.444)" fill="#cf2a45"/>
    <path id="Path_38669" data-name="Path 38669" d="M15.325,14.77A3.993,3.993,0,0,0,14,17.745h0a4,4,0,0,0,4,4h0a3.989,3.989,0,0,0,2.906-1.25L15.325,14.77Z" transform="translate(4.663 4.926)" fill="#f7f7f8"/>
  </g>
</svg>
