<svg xmlns="http://www.w3.org/2000/svg" width="34.999" height="35.002" viewBox="0 0 34.999 35.002">
  <g id="ic_home_ecommarce" transform="translate(-0.023)">
    <path id="Path_38708" data-name="Path 38708" d="M103.934,240.141l-5.948,8.614a6.178,6.178,0,0,1-4.922,2.461H75.495l-1.067-10.788,1.067-.964c1.559-1.374,2.584-2.317,4.594-2.789a7.119,7.119,0,0,1,6.365,1.559c.41.349.656.677,1.169.677h5.442a2.051,2.051,0,1,1,0,4.1h-4.17a1.025,1.025,0,0,0,0,2.051h4.847a2.479,2.479,0,0,0,1.518-.656l5.537-6.891a2.044,2.044,0,0,1,2.707-.267A2.067,2.067,0,0,1,103.934,240.141Z" transform="translate(-69.318 -220.316)" fill="#fdd7ad"/>
    <g id="Group_58750" data-name="Group 58750" transform="translate(18.55 16.541)">
      <path id="Path_38709" data-name="Path 38709" d="M271.029,277.127V272h5.2a2.051,2.051,0,1,1,0,4.1h-4.17A1.015,1.015,0,0,0,271.029,277.127Z" transform="translate(-271.029 -269.946)" fill="#fdd7ad"/>
      <path id="Path_38710" data-name="Path 38710" d="M287.094,245.245l-5.948,8.614a6.178,6.178,0,0,1-4.922,2.461h-5.2v-7.178a1.015,1.015,0,0,0,1.025,1.025H276.9a2.479,2.479,0,0,0,1.518-.656l5.537-6.891a2.044,2.044,0,0,1,2.707-.267A2.067,2.067,0,0,1,287.094,245.245Z" transform="translate(-271.029 -241.962)" fill="#fdd7ad"/>
    </g>
    <path id="Path_38711" data-name="Path 38711" d="M6.285,297.4.132,285.091a1.025,1.025,0,0,1,.459-1.376l2.267-1.134a3.081,3.081,0,0,1,4.128,1.376l4.318,8.636a3.075,3.075,0,0,1-1.376,4.128l-2.267,1.134A1.026,1.026,0,0,1,6.285,297.4Z" transform="translate(0 -262.962)" fill="#006df0"/>
    <path id="Path_38712" data-name="Path 38712" d="M186.25,90a6.289,6.289,0,0,0-6.221,6.221v1.094a1.015,1.015,0,0,0,1.025,1.025h10.391a1.015,1.015,0,0,0,1.025-1.025V96.221A6.289,6.289,0,0,0,186.25,90Z" transform="translate(-167.7 -83.847)" fill="#1689fc"/>
    <path id="Path_38713" data-name="Path 38713" d="M277.25,96.221v1.094a1.015,1.015,0,0,1-1.025,1.025h-5.2V90A6.289,6.289,0,0,1,277.25,96.221Z" transform="translate(-252.479 -83.847)" fill="#006df0"/>
    <path id="Path_38714" data-name="Path 38714" d="M214.2,0a4.173,4.173,0,0,0-4.17,4.1,4.171,4.171,0,0,0,8.34,0A4.173,4.173,0,0,0,214.2,0Z" transform="translate(-195.649)" fill="#17ace8"/>
    <path id="Path_38715" data-name="Path 38715" d="M275.2,4.1a4.173,4.173,0,0,1-4.17,4.1V0A4.173,4.173,0,0,1,275.2,4.1Z" transform="translate(-252.479)" fill="#1689fc"/>
  </g>
</svg>
