<svg xmlns="http://www.w3.org/2000/svg" width="44" height="43.312" viewBox="0 0 44 43.312">
  <g id="ic_health_9" transform="translate(0 -4)">
    <g id="Group_58954" data-name="Group 58954" transform="translate(0 4)">
      <g id="Group_58944" data-name="Group 58944" transform="translate(5.534 7.573)">
        <path id="Path_39008" data-name="Path 39008" d="M81.483,124.86c.529.433.792.668,1.058.678.263-.01.529-.246,1.058-.678l13.952-14.278a11.951,11.951,0,0,0,0-16.05c-3.749-4.01-9.906-3.119-13.813.721L83,95.976c-.425.418-.506.418-.942-.01l-.722-.711c-3.9-3.843-10.063-4.731-13.813-.721a11.951,11.951,0,0,0,0,16.05L69.2,112.3Z" transform="translate(-64.433 -91.918)" fill="#e26a7e" fill-rule="evenodd"/>
      </g>
      <g id="Group_58945" data-name="Group 58945" transform="translate(18.54 7.574)">
        <path id="Path_39009" data-name="Path 39009" d="M223.615,93.864a17.681,17.681,0,0,1,3.17,10.078c0,.4-.015.805-.043,1.2a17.711,17.711,0,0,1-3.193,8.972,19.224,19.224,0,0,1-2.793,3.18,20.083,20.083,0,0,1-3.734,2.7q-.7.391-1.435.734l4.056,4.152c.529.433.792.668,1.058.678.263-.01.529-.246,1.058-.678l4.266-4.369L235.7,110.6a12,12,0,0,0,2.052-12.951,11.326,11.326,0,0,0-2.052-3.1,8.33,8.33,0,0,0-1.857-1.494,8.883,8.883,0,0,0-7.163-.668,11.528,11.528,0,0,0-3.066,1.478Z" transform="translate(-215.587 -91.934)" fill="#d84059" fill-rule="evenodd" opacity="0.5"/>
      </g>
      <g id="Group_58946" data-name="Group 58946" transform="translate(11.889 16.059)">
        <path id="Path_39010" data-name="Path 39010" d="M154.124,199.464h-.012a.664.664,0,0,1-.57-.344l-3.43-6.255-2.554,4.465a.663.663,0,0,1-1.138.024l-1.587-2.522-1.2,1.99a.663.663,0,0,1-.569.322h-4.147a.664.664,0,0,1,0-1.328h3.772l1.56-2.592a.664.664,0,0,1,.562-.322h.007a.664.664,0,0,1,.562.31l1.572,2.5,2.593-4.534a.664.664,0,0,1,.576-.334h.006a.664.664,0,0,1,.576.345l3.442,6.276,1.736-2.916a.664.664,0,0,1,.57-.324h5.531a.664.664,0,0,1,0,1.328h-5.154l-2.137,3.59A.664.664,0,0,1,154.124,199.464Z" transform="translate(-138.257 -190.843)" fill="#fff"/>
      </g>
      <g id="Group_58947" data-name="Group 58947" transform="translate(29.591 0)">
        <path id="Path_39011" data-name="Path 39011" d="M351.455,18.417a7.208,7.208,0,1,0-7.206-7.21A7.22,7.22,0,0,0,351.455,18.417Z" transform="translate(-344.249 -4)" fill="#f8f2f0" fill-rule="evenodd"/>
      </g>
      <g id="Group_58948" data-name="Group 58948" transform="translate(33.89 0)">
        <path id="Path_39012" data-name="Path 39012" d="M394.619,4.476a7.208,7.208,0,0,1,4.3,6.6c0,.046,0,.091,0,.134a7.14,7.14,0,0,1-.45,2.382,7.225,7.225,0,0,1-4.17,4.215,7.207,7.207,0,1,0,.324-13.328Z" transform="translate(-394.295 -4)" fill="#d1d1d1" fill-rule="evenodd" opacity="0.6"/>
      </g>
      <path id="Path_39013" data-name="Path 39013" d="M395.8,52.267h-1.958V50.308a.664.664,0,1,0-1.327,0v1.959h-1.958a.664.664,0,0,0,0,1.328h1.958v1.959a.664.664,0,1,0,1.327,0V53.594H395.8a.664.664,0,0,0,0-1.328Z" transform="translate(-356.385 -45.723)" fill="#e26a7e"/>
      <g id="Group_58949" data-name="Group 58949" transform="translate(4.668 27.535)">
        <path id="Path_39014" data-name="Path 39014" d="M55.824,326.343l-1.479,4.795,1.479,5.081,6.81,1.853,5.524,1.5c3.223,1,4.646.43,7.61-.521l10.864-3.483c3.119-1,2.653-5.288-1.911-3.823l-6.074,1.187-.992.195a6.573,6.573,0,0,1-3.162.175l-4.853-.886-.881-.162a1.544,1.544,0,0,1,.522-3.035c1.175.149,2.749.362,4.1.5l.081.008c2.6.263,3.643-1.678,2.714-3.187a3.408,3.408,0,0,0-1.942-1.39l-3.658-.671c-2.372-.435-4.058.106-7.739.711l-2.073.342Z" transform="translate(-54.346 -324.322)" fill="#fdd7ad" fill-rule="evenodd"/>
      </g>
      <g id="Group_58950" data-name="Group 58950" transform="translate(0 28.432)">
        <path id="Path_39015" data-name="Path 39015" d="M0,335.029v11.683a.312.312,0,0,0,.342.266H5.8a.313.313,0,0,0,.344-.266V335.029a.313.313,0,0,0-.344-.266H.342a.312.312,0,0,0-.342.266Z" transform="translate(0 -334.763)" fill="#17ace8" fill-rule="evenodd"/>
      </g>
      <g id="Group_58951" data-name="Group 58951" transform="translate(0 38.586)">
        <path id="Path_39016" data-name="Path 39016" d="M0,452.975v1.795a.312.312,0,0,0,.342.266H5.8a.313.313,0,0,0,.344-.266v-1.795a.315.315,0,0,1-.344.266H.342A.314.314,0,0,1,0,452.975Z" transform="translate(0 -452.975)" fill="#006df0" fill-rule="evenodd"/>
      </g>
      <g id="Group_58952" data-name="Group 58952" transform="translate(6.146 35.574)">
        <path id="Path_39017" data-name="Path 39017" d="M71.548,420.916v.846l6.81,1.853,5.524,1.5c3.223,1,4.646.43,7.611-.521l10.864-3.483c1.76-.562,2.377-2.172,1.765-3.207a2.9,2.9,0,0,1-1.765,1.413L91.493,422.8c-2.965.949-4.388,1.524-7.611.521l-5.524-1.5-6.81-1.856Z" transform="translate(-71.548 -417.904)" fill="#fad054" fill-rule="evenodd"/>
      </g>
      <g id="Group_58953" data-name="Group 58953" transform="translate(17.905 29.966)">
        <path id="Path_39018" data-name="Path 39018" d="M210.021,353.347a1.536,1.536,0,0,0-1.419,2.42,1.412,1.412,0,0,1,1.419-.625c1.174.149,2.748.362,4.094.5l.081.008c2.477.251,3.54-1.5,2.831-2.969a2.082,2.082,0,0,1-.972.911,3.479,3.479,0,0,1-1.86.263l-.081-.008C212.769,353.709,211.2,353.5,210.021,353.347Z" transform="translate(-208.322 -352.681)" fill="#fad054" fill-rule="evenodd"/>
      </g>
    </g>
  </g>
</svg>
