<svg xmlns="http://www.w3.org/2000/svg" width="38.313" height="43.996" viewBox="0 0 38.313 43.996">
  <g id="ic_light_10" transform="translate(-33.066)">
    <path id="Path_39019" data-name="Path 39019" d="M126.453,103.666A10.321,10.321,0,0,1,129.57,98.9a12.521,12.521,0,0,0,4.491-9.624A12.651,12.651,0,1,0,113.255,98.9a9.834,9.834,0,0,1,3.208,4.766Z" transform="translate(-69.189 -70.027)" fill="#fad054"/>
    <path id="Path_39020" data-name="Path 39020" d="M202.751,231.749h.825l-3.666-13.657h.275a1.809,1.809,0,0,0,1.283-.55.886.886,0,0,1,1.283,0,1.566,1.566,0,0,0,2.383,0,.832.832,0,0,1,.642-.275.991.991,0,0,1,.642.275,1.664,1.664,0,0,0,1.283.55h.275L204.4,231.749h.825l3.758-14.3c0-.183,0-.367-.183-.458a.4.4,0,0,0-.458.092.792.792,0,0,1-.55.275,1.219,1.219,0,0,1-.733-.275,1.566,1.566,0,0,0-2.383,0,.886.886,0,0,1-1.283,0,1.478,1.478,0,0,0-1.192-.55h0a1.478,1.478,0,0,0-1.192.55,1.041,1.041,0,0,1-.733.275.653.653,0,0,1-.55-.275.4.4,0,0,0-.458-.092.335.335,0,0,0-.183.458Z" transform="translate(-151.72 -197.927)" fill="#fff"/>
    <g id="Group_58955" data-name="Group 58955" transform="translate(47.273 33.547)">
      <path id="Path_39021" data-name="Path 39021" d="M222.933,489.6a3.06,3.06,0,0,0,5.683,0Z" transform="translate(-220.825 -481.076)" fill="#444c57"/>
      <path id="Path_39022" data-name="Path 39022" d="M206.741,399.016H200.05a1.643,1.643,0,0,1-1.65-1.65V390.4h9.991v6.966A1.643,1.643,0,0,1,206.741,399.016Z" transform="translate(-198.4 -390.4)" fill="#444c57"/>
    </g>
    <g id="Group_58956" data-name="Group 58956" transform="translate(46.265 35.014)">
      <path id="Path_39023" data-name="Path 39023" d="M197.574,409.483h-9.9a1.017,1.017,0,0,1-1.008-1.008h0a1.017,1.017,0,0,1,1.008-1.008h9.9a1.017,1.017,0,0,1,1.008,1.008h0A1.017,1.017,0,0,1,197.574,409.483Z" transform="translate(-186.667 -407.467)" fill="#667180"/>
      <path id="Path_39024" data-name="Path 39024" d="M197.574,446.817h-9.9a1.017,1.017,0,0,1-1.008-1.008h0a1.017,1.017,0,0,1,1.008-1.008h9.9a1.017,1.017,0,0,1,1.008,1.008h0A1.017,1.017,0,0,1,197.574,446.817Z" transform="translate(-186.667 -441.593)" fill="#667180"/>
    </g>
    <g id="Group_58957" data-name="Group 58957" transform="translate(33.066)">
      <path id="Path_39025" data-name="Path 39025" d="M246.25,0a.919.919,0,0,0-.917.917V4.033a.919.919,0,0,0,.917.917.866.866,0,0,0,.917-.917V.917A.919.919,0,0,0,246.25,0Z" transform="translate(-227.093)" fill="#fad054"/>
      <path id="Path_39026" data-name="Path 39026" d="M96.492,62.142a.907.907,0,0,0-1.283,1.283l2.2,2.2a.907.907,0,1,0,1.283-1.283Z" transform="translate(-89.618 -56.551)" fill="#fad054"/>
      <path id="Path_39027" data-name="Path 39027" d="M37.1,212.267H33.983a.919.919,0,0,0-.917.917h0a.919.919,0,0,0,.917.917H37.1a.919.919,0,0,0,.917-.917h0A.986.986,0,0,0,37.1,212.267Z" transform="translate(-33.066 -194.027)" fill="#fad054"/>
      <path id="Path_39028" data-name="Path 39028" d="M97.408,337.342l-2.2,2.2a.907.907,0,0,0,1.283,1.283l2.2-2.2a.907.907,0,0,0-1.283-1.283Z" transform="translate(-89.617 -308.103)" fill="#fad054"/>
      <path id="Path_39029" data-name="Path 39029" d="M371.691,337.342a.907.907,0,0,0-1.283,1.283l2.2,2.2a.907.907,0,1,0,1.283-1.283Z" transform="translate(-341.169 -308.103)" fill="#fad054"/>
      <path id="Path_39030" data-name="Path 39030" d="M425.366,212.267H422.25a.919.919,0,0,0-.917.917h0a.919.919,0,0,0,.917.917h3.116a.919.919,0,0,0,.917-.917h0A.919.919,0,0,0,425.366,212.267Z" transform="translate(-387.969 -194.027)" fill="#fad054"/>
      <path id="Path_39031" data-name="Path 39031" d="M372.608,62.142l-2.2,2.2a.907.907,0,0,0,1.283,1.283l2.2-2.2a.907.907,0,0,0-1.283-1.283Z" transform="translate(-341.169 -56.551)" fill="#fad054"/>
    </g>
  </g>
</svg>
