<svg xmlns="http://www.w3.org/2000/svg" width="19.672" height="19.572" viewBox="0 0 19.672 19.572">
  <path id="layers" d="M1776.08,426.628a1.663,1.663,0,0,1-.684-.146l-8.268-3.729a1.535,1.535,0,0,1,0-2.779l1.92-.866-1.921-.866a1.536,1.536,0,0,1,0-2.779l1.94-.874-1.939-.875a1.536,1.536,0,0,1,0-2.781l8.266-3.73a1.671,1.671,0,0,1,1.372,0l8.267,3.731a1.536,1.536,0,0,1,0,2.78l-1.938.875,1.939.874a1.536,1.536,0,0,1,0,2.78l-1.921.866,1.921.866a1.535,1.535,0,0,1,0,2.779l-8.267,3.728A1.667,1.667,0,0,1,1776.08,426.628Zm-8.332-5.241,8.262,3.726a.173.173,0,0,0,.14,0l8.26-3.725a.09.09,0,0,0,0-.048l-2.874-1.366,1.133-.239-5.436,2.45a2.8,2.8,0,0,1-2.311,0l-5.434-2.45,1.147.239-2.888,1.366a.087.087,0,0,0,0,.048Zm0-4.511,8.262,3.725a.164.164,0,0,0,.138,0l8.263-3.725a.089.089,0,0,0,0-.049l-2.452-1.364.7-.182-5.428,2.447a2.8,2.8,0,0,1-2.311,0l-5.426-2.446.484.181-2.232,1.365a.087.087,0,0,0,0,.049Zm0-4.528,8.262,3.728a.156.156,0,0,0,.136,0l8.264-3.729a.088.088,0,0,0,0-.05l-8.262-3.729a.173.173,0,0,0-.141,0l-8.26,3.728a.087.087,0,0,0,0,.053Z" transform="translate(-1766.245 -407.056)"/>
</svg>
