<svg xmlns="http://www.w3.org/2000/svg" width="18.477" height="20" viewBox="0 0 18.477 20">
  <path id="ic_menu_login" d="M9.157,0A4.426,4.426,0,0,0,4.738,4.21l0,.214v.942a.75.75,0,0,0,1.493.1l.006-.1V4.424A2.925,2.925,0,0,1,8.985,1.5L9.157,1.5h4.885a2.936,2.936,0,0,1,2.93,2.763l0,.173V15.574a2.924,2.924,0,0,1-2.753,2.92l-.172,0H9.168a2.933,2.933,0,0,1-2.93-2.761l-.005-.173v-.932a.75.75,0,0,0-1.493-.1l-.006.1v.932A4.434,4.434,0,0,0,8.96,20l.209,0h4.883a4.425,4.425,0,0,0,4.421-4.216l0-.209V4.435A4.435,4.435,0,0,0,14.251,0l-.209,0Zm.176,6.555a.751.751,0,0,0-.071.976l.073.085L10.975,9.25H.75a.75.75,0,0,0-.1,1.493l.1.006H10.975L9.334,12.385a.751.751,0,0,0-.075.976l.073.084a.75.75,0,0,0,.977.075l.084-.072,2.929-2.916a.749.749,0,0,0,.212-.416V10.11l0-.012v-.06q0-.019,0-.038h0q0-.008,0-.016v0s0-.01,0-.014v-.1l0-.009,0-.009V9.843l0-.012v0a.747.747,0,0,0-.127-.274l0-.006a.755.755,0,0,0-.066-.076l0,0L10.392,6.553a.749.749,0,0,0-1.06,0Z" transform="translate(18.477 20) rotate(180)" fill="#392c23"/>
</svg>
