<svg xmlns="http://www.w3.org/2000/svg" width="100" height="75" viewBox="0 0 100 75">
  <g id="ic_placeholder" transform="translate(7502 -3752)">
    <rect id="Rectangle_33968" data-name="Rectangle 33968" width="100" height="75" transform="translate(-7502 3752)" fill="#f7f7f8"/>
    <g id="_4781854_alert_caution_circle_danger_error_icon" data-name="4781854_alert_caution_circle_danger_error_icon" transform="translate(-7468 3773.5)">
      <g id="Layer_2" data-name="Layer 2" transform="translate(3 3)">
        <path id="Path_39079" data-name="Path 39079" d="M16,19a1,1,0,0,1-1-.76l-1.51-6.06A2.5,2.5,0,0,1,14,10a2.56,2.56,0,0,1,4,0,2.5,2.5,0,0,1,.46,2.19L17,18.24A1,1,0,0,1,16,19Zm0-8a.54.54,0,0,0-.44.22.52.52,0,0,0-.1.48L16,13.88l.54-2.18a.52.52,0,0,0-.1-.48A.54.54,0,0,0,16,11Z" transform="translate(-3 -3)" fill="#9c9c9d"/>
        <circle id="Ellipse_5926" data-name="Ellipse 5926" cx="1.5" cy="1.5" r="1.5" transform="translate(11.5 17)" fill="#9c9c9d"/>
        <path id="Path_39080" data-name="Path 39080" d="M16,29A13,13,0,1,1,29,16,13,13,0,0,1,16,29ZM16,5A11,11,0,1,0,27,16,11,11,0,0,0,16,5Z" transform="translate(-3 -3)" fill="#9c9c9d"/>
      </g>
      <g id="frame">
        <rect id="Rectangle_33969" data-name="Rectangle 33969" width="32" height="32" fill="none"/>
      </g>
    </g>
  </g>
</svg>
