<svg xmlns="http://www.w3.org/2000/svg" width="26.954" height="41.78" viewBox="0 0 26.954 41.78">
  <g id="ic_pin" transform="translate(-333.844 -0.822)">
    <g id="Group_1518" data-name="Group 1518" transform="translate(333.844 0.822)">
      <g id="Group_1517" data-name="Group 1517" transform="translate(0)">
        <path id="Path_1073" data-name="Path 1073" d="M344.811,1.056A13.484,13.484,0,0,1,359.973,9.65a12.6,12.6,0,0,1,.085,8.733c-1.028,2.745-2.921,5.026-4.657,7.344a41.291,41.291,0,0,0-4.706,7.317,28.822,28.822,0,0,0-2.533,8.393c-.068.411-.112.916-.528,1.134a.891.891,0,0,1-.844-.167,2.408,2.408,0,0,1-.338-1.092,28.329,28.329,0,0,0-2.773-8.811,40.809,40.809,0,0,0-3.992-6.189c-1.253-1.671-2.572-3.3-3.678-5.074a14.416,14.416,0,0,1-1.864-4.3,13.221,13.221,0,0,1,2.393-10.722A13.5,13.5,0,0,1,344.811,1.056Z" transform="translate(-333.844 -0.822)" fill="#d63f35"/>
      </g>
    </g>
  </g>
</svg>
