<svg xmlns="http://www.w3.org/2000/svg" width="45.846" height="44" viewBox="0 0 45.846 44">
  <g id="ic_plan_5" transform="translate(0 -10.307)">
    <g id="Group_58937" data-name="Group 58937" transform="translate(11.536 45.801)">
      <path id="Path_38946" data-name="Path 38946" d="M266.255,415.279a.672.672,0,0,1-.6-.366l-3.668-7.162a.672.672,0,1,1,1.2-.613l3.668,7.162a.672.672,0,0,1-.6.979Z" transform="translate(-249.993 -406.772)" fill="#444c57"/>
      <path id="Path_38947" data-name="Path 38947" d="M129.56,415.278a.672.672,0,0,1-.6-.979l3.668-7.162a.672.672,0,1,1,1.2.613l-3.668,7.162A.672.672,0,0,1,129.56,415.278Z" transform="translate(-128.888 -406.771)" fill="#444c57"/>
    </g>
    <path id="Path_38948" data-name="Path 38948" d="M80.428,382.866v-2.151h25.619v2.151a.856.856,0,0,1-.856.856H81.284A.856.856,0,0,1,80.428,382.866Z" transform="translate(-73.234 -337.243)" fill="#fad054"/>
    <path id="Path_38949" data-name="Path 38949" d="M333.363,380.715v2.151a.856.856,0,0,1-.856.856h2.173a.856.856,0,0,0,.856-.856v-2.151Z" transform="translate(-302.735 -337.243)" fill="#fcab29"/>
    <path id="Path_38950" data-name="Path 38950" d="M189.243,13.314V11.321a1.014,1.014,0,0,1,1.014-1.014h4.088a1.014,1.014,0,0,1,1.014,1.014v1.993h-6.116Z" transform="translate(-172.3 0)" fill="#fad054"/>
    <path id="Path_38951" data-name="Path 38951" d="M223.945,10.308h-2.189a1.014,1.014,0,0,1,1.014,1.014v1.993h2.189V11.322A1.014,1.014,0,0,0,223.945,10.308Z" transform="translate(-201.901 -0.001)" fill="#fcab29"/>
    <path id="Path_38952" data-name="Path 38952" d="M38.1,36.366H1.9a1.9,1.9,0,0,0-1.9,1.9V66a1.9,1.9,0,0,0,1.9,1.9H38.1A1.9,1.9,0,0,0,40,66V38.267A1.9,1.9,0,0,0,38.1,36.366Z" transform="translate(0 -23.724)" fill="#f8f2f0"/>
    <path id="Path_38953" data-name="Path 38953" d="M402.668,36.366h-2.25a1.9,1.9,0,0,1,1.9,1.9V66a1.9,1.9,0,0,1-1.9,1.9h2.25a1.9,1.9,0,0,0,1.9-1.9V38.267A1.9,1.9,0,0,0,402.668,36.366Z" transform="translate(-364.572 -23.724)" fill="#d1d1d1"/>
    <g id="Group_58938" data-name="Group 58938" transform="translate(11.44 19.324)">
      <path id="Path_38954" data-name="Path 38954" d="M128.5,165.837a.672.672,0,0,1-.332-1.257l3.442-1.953a.672.672,0,0,1,.663,1.169l-3.442,1.953A.668.668,0,0,1,128.5,165.837Z" transform="translate(-127.827 -157.923)" fill="#444c57"/>
      <path id="Path_38955" data-name="Path 38955" d="M200.777,165.836a.668.668,0,0,1-.331-.088L197,163.8a.672.672,0,0,1,.663-1.169l3.442,1.953a.672.672,0,0,1-.332,1.257Z" transform="translate(-190.495 -157.923)" fill="#444c57"/>
      <path id="Path_38956" data-name="Path 38956" d="M261.143,118.444a.672.672,0,0,1-.546-1.063l4.343-6.069a.672.672,0,1,1,1.093.782l-4.343,6.069A.671.671,0,0,1,261.143,118.444Z" transform="translate(-248.584 -111.03)" fill="#444c57"/>
    </g>
    <g id="Group_58939" data-name="Group 58939" transform="translate(9.387 27.566)">
      <path id="Path_38957" data-name="Path 38957" d="M104.9,271.595V277a.269.269,0,0,0,.269.269h2.189a.269.269,0,0,0,.269-.269v-5.4a.269.269,0,0,0-.269-.269h-2.189A.269.269,0,0,0,104.9,271.595Z" transform="translate(-104.902 -265.213)" fill="#3ec4b5"/>
      <path id="Path_38958" data-name="Path 38958" d="M173.738,233.267V242.1a.269.269,0,0,0,.269.269H176.2a.269.269,0,0,0,.269-.269v-8.836A.269.269,0,0,0,176.2,233h-2.189A.269.269,0,0,0,173.738,233.267Z" transform="translate(-167.569 -230.32)" fill="#3ec4b5"/>
      <path id="Path_38959" data-name="Path 38959" d="M242.573,271.595V277a.269.269,0,0,0,.269.269h2.189A.269.269,0,0,0,245.3,277v-5.4a.269.269,0,0,0-.269-.269h-2.189A.269.269,0,0,0,242.573,271.595Z" transform="translate(-230.236 -265.213)" fill="#3ec4b5"/>
      <path id="Path_38960" data-name="Path 38960" d="M311.409,203.38v11.515a.269.269,0,0,0,.269.269h2.189a.269.269,0,0,0,.269-.269V203.38a.269.269,0,0,0-.269-.269h-2.189A.269.269,0,0,0,311.409,203.38Z" transform="translate(-292.903 -203.111)" fill="#3ec4b5"/>
    </g>
    <path id="Path_38961" data-name="Path 38961" d="M411.253,289.633l5.3,9.186a2,2,0,0,0,2.726.731h0a2,2,0,0,0,.731-2.726l-5.3-9.186Z" transform="translate(-374.436 -252.505)" fill="#e26a7e"/>
    <path id="Path_38962" data-name="Path 38962" d="M414.71,287.637l-3.457,2,2.067,3.581a10.869,10.869,0,0,0,3.457-2Z" transform="translate(-374.436 -252.5)" fill="#dc556b"/>
    <circle id="Ellipse_5922" data-name="Ellipse 5922" cx="8.6" cy="8.6" r="8.6" transform="translate(26.706 21.93)" fill="#fad054"/>
    <circle id="Ellipse_5923" data-name="Ellipse 5923" cx="6.052" cy="6.052" r="6.052" transform="translate(29.254 24.478)" fill="#fff"/>
    <path id="Path_38963" data-name="Path 38963" d="M166.191,136.4a2.24,2.24,0,1,0,2.24,2.24A2.243,2.243,0,0,0,166.191,136.4Z" transform="translate(-149.272 -114.8)" fill="#fad054"/>
    <path id="Path_38964" data-name="Path 38964" d="M97.355,175.479a2.24,2.24,0,1,0,2.24,2.24A2.243,2.243,0,0,0,97.355,175.479Z" transform="translate(-86.599 -150.383)" fill="#1689fc"/>
    <path id="Path_38965" data-name="Path 38965" d="M235.027,175.479a2.24,2.24,0,1,0,2.24,2.24A2.243,2.243,0,0,0,235.027,175.479Z" transform="translate(-211.944 -150.383)" fill="#e26a7e"/>
    <path id="Path_38966" data-name="Path 38966" d="M303.863,79.311a2.24,2.24,0,1,0,2.24,2.24A2.243,2.243,0,0,0,303.863,79.311Z" transform="translate(-274.617 -62.82)" fill="#b4bcc0"/>
  </g>
</svg>
