<svg xmlns="http://www.w3.org/2000/svg" width="44" height="45.771" viewBox="0 0 44 45.771">
  <g id="ic_rint_8" transform="translate(-9.904)">
    <path id="Path_38968" data-name="Path 38968" d="M58.386,247.128H52.928a.31.31,0,0,0-.31.31v3.632a.31.31,0,0,0,.31.31h5.458a.31.31,0,0,0,.31-.31v-3.632A.31.31,0,0,0,58.386,247.128Z" transform="translate(-38.894 -225.037)" fill="#6680ff"/>
    <path id="Path_38969" data-name="Path 38969" d="M89.344,247.128H86.617v4.252h2.727a.31.31,0,0,0,.31-.31v-3.632A.31.31,0,0,0,89.344,247.128Z" transform="translate(-69.855 -225.037)" fill="#0b8beb"/>
    <path id="Path_38970" data-name="Path 38970" d="M396.182,58.338a.68.68,0,0,0-.68.68v6.851a.68.68,0,0,0,1.36,0V59.018A.68.68,0,0,0,396.182,58.338Z" transform="translate(-351.128 -53.12)" fill="#667180"/>
    <path id="Path_38971" data-name="Path 38971" d="M385.32,131.447h-2.289a.715.715,0,0,1-.715-.715v-2.5a.715.715,0,0,1,.715-.715h2.289a.715.715,0,0,1,.715.715v2.5A.715.715,0,0,1,385.32,131.447Z" transform="translate(-339.121 -116.117)" fill="#e26a7e"/>
    <path id="Path_38972" data-name="Path 38972" d="M356.009,171.448H347.26a.681.681,0,0,1-.681-.681v-6.6a.681.681,0,0,1,.681-.681h8.749a.681.681,0,0,1,.681.681v6.6A.681.681,0,0,1,356.009,171.448Z" transform="translate(-306.585 -148.869)" fill="#dc556b"/>
    <path id="Path_38973" data-name="Path 38973" d="M327.046,227.841H311.693V199.929h14.976a.377.377,0,0,1,.377.377Z" transform="translate(-274.819 -182.07)" fill="#e26a7e"/>
    <path id="Path_38974" data-name="Path 38974" d="M436.678,199.929h-4.17a.377.377,0,0,1,.377.377v27.535h4.17V200.306A.377.377,0,0,0,436.678,199.929Z" transform="translate(-384.828 -182.07)" fill="#dc556b"/>
    <g id="Group_58940" data-name="Group 58940" transform="translate(39.994 22.08)">
      <path id="Path_38975" data-name="Path 38975" d="M355.941,249.561h-8.8a.564.564,0,0,1-.564-.564v-1.3a.564.564,0,0,1,.564-.564h8.8a.564.564,0,0,1,.564.564V249A.564.564,0,0,1,355.941,249.561Z" transform="translate(-346.58 -247.129)" fill="#f7f7f8"/>
      <path id="Path_38976" data-name="Path 38976" d="M355.941,311.893h-8.8a.564.564,0,0,1-.564-.564v-1.3a.564.564,0,0,1,.564-.564h8.8a.564.564,0,0,1,.564.564v1.3A.564.564,0,0,1,355.941,311.893Z" transform="translate(-346.58 -303.886)" fill="#f7f7f8"/>
      <path id="Path_38977" data-name="Path 38977" d="M355.941,374.225h-8.8a.564.564,0,0,1-.564-.564v-1.3a.564.564,0,0,1,.564-.564h8.8a.564.564,0,0,1,.564.564v1.3A.564.564,0,0,1,355.941,374.225Z" transform="translate(-346.58 -360.643)" fill="#f7f7f8"/>
      <path id="Path_38978" data-name="Path 38978" d="M355.941,436.557h-8.8a.564.564,0,0,1-.564-.564v-1.3a.564.564,0,0,1,.564-.564h8.8a.564.564,0,0,1,.564.564v1.3A.564.564,0,0,1,355.941,436.557Z" transform="translate(-346.58 -417.4)" fill="#f7f7f8"/>
    </g>
    <path id="Path_38979" data-name="Path 38979" d="M170.6,54.131H152.873a.513.513,0,0,1-.513-.513V9.694a.513.513,0,0,1,.513-.513H170.6a.513.513,0,0,1,.513.513V53.617A.513.513,0,0,1,170.6,54.131Z" transform="translate(-129.726 -8.36)" fill="#fad054"/>
    <g id="Group_58941" data-name="Group 58941" transform="translate(21.357)">
      <path id="Path_38980" data-name="Path 38980" d="M313.865,9.181H309.7a.513.513,0,0,1,.513.513V53.617a.513.513,0,0,1-.513.513h4.17a.513.513,0,0,0,.513-.513V9.694A.513.513,0,0,0,313.865,9.181Z" transform="translate(-294.346 -8.36)" fill="#ecbb30"/>
      <path id="Path_38981" data-name="Path 38981" d="M158.921,0H138.338a.255.255,0,0,0-.255.255V1.982a.255.255,0,0,0,.255.255h20.584a.255.255,0,0,0,.255-.255V.255A.255.255,0,0,0,158.921,0Z" transform="translate(-138.083)" fill="#ecbb30"/>
    </g>
    <g id="Group_58942" data-name="Group 58942" transform="translate(24.965 4.717)">
      <path id="Path_38982" data-name="Path 38982" d="M181.233,56.418h-2.494a.318.318,0,0,1-.318-.318V53.054a.318.318,0,0,1,.318-.318h2.494a.318.318,0,0,1,.318.318V56.1A.318.318,0,0,1,181.233,56.418Z" transform="translate(-178.421 -52.736)" fill="#f7f7f8"/>
      <path id="Path_38983" data-name="Path 38983" d="M242.521,56.418h-2.494a.318.318,0,0,1-.318-.318V53.054a.318.318,0,0,1,.318-.318h2.494a.318.318,0,0,1,.318.318V56.1A.318.318,0,0,1,242.521,56.418Z" transform="translate(-234.227 -52.736)" fill="#f7f7f8"/>
      <path id="Path_38984" data-name="Path 38984" d="M303.808,56.418h-2.494A.318.318,0,0,1,301,56.1V53.054a.318.318,0,0,1,.318-.318h2.494a.318.318,0,0,1,.318.318V56.1A.318.318,0,0,1,303.808,56.418Z" transform="translate(-290.033 -52.736)" fill="#f7f7f8"/>
      <path id="Path_38985" data-name="Path 38985" d="M181.233,148.27h-2.494a.318.318,0,0,1-.318-.318v-3.046a.318.318,0,0,1,.318-.318h2.494a.318.318,0,0,1,.318.318v3.046A.318.318,0,0,1,181.233,148.27Z" transform="translate(-178.421 -136.378)" fill="#f7f7f8"/>
      <path id="Path_38986" data-name="Path 38986" d="M242.521,148.27h-2.494a.318.318,0,0,1-.318-.318v-3.046a.318.318,0,0,1,.318-.318h2.494a.318.318,0,0,1,.318.318v3.046A.318.318,0,0,1,242.521,148.27Z" transform="translate(-234.227 -136.378)" fill="#f7f7f8"/>
      <path id="Path_38987" data-name="Path 38987" d="M303.808,148.27h-2.494a.318.318,0,0,1-.318-.318v-3.046a.318.318,0,0,1,.318-.318h2.494a.318.318,0,0,1,.318.318v3.046A.318.318,0,0,1,303.808,148.27Z" transform="translate(-290.033 -136.378)" fill="#f7f7f8"/>
      <path id="Path_38988" data-name="Path 38988" d="M181.233,240.123h-2.494a.318.318,0,0,1-.318-.318v-3.046a.318.318,0,0,1,.318-.318h2.494a.318.318,0,0,1,.318.318V239.8A.318.318,0,0,1,181.233,240.123Z" transform="translate(-178.421 -220.022)" fill="#f7f7f8"/>
      <path id="Path_38989" data-name="Path 38989" d="M242.521,240.123h-2.494a.318.318,0,0,1-.318-.318v-3.046a.318.318,0,0,1,.318-.318h2.494a.318.318,0,0,1,.318.318V239.8A.318.318,0,0,1,242.521,240.123Z" transform="translate(-234.227 -220.022)" fill="#f7f7f8"/>
      <path id="Path_38990" data-name="Path 38990" d="M303.808,240.123h-2.494A.318.318,0,0,1,301,239.8v-3.046a.318.318,0,0,1,.318-.318h2.494a.318.318,0,0,1,.318.318V239.8A.318.318,0,0,1,303.808,240.123Z" transform="translate(-290.033 -220.022)" fill="#f7f7f8"/>
      <path id="Path_38991" data-name="Path 38991" d="M242.521,331.976h-2.494a.318.318,0,0,1-.318-.318v-3.046a.318.318,0,0,1,.318-.318h2.494a.318.318,0,0,1,.318.318v3.046A.318.318,0,0,1,242.521,331.976Z" transform="translate(-234.227 -303.665)" fill="#f7f7f8"/>
      <path id="Path_38992" data-name="Path 38992" d="M303.808,331.976h-2.494a.318.318,0,0,1-.318-.318v-3.046a.318.318,0,0,1,.318-.318h2.494a.318.318,0,0,1,.318.318v3.046A.318.318,0,0,1,303.808,331.976Z" transform="translate(-290.033 -303.665)" fill="#f7f7f8"/>
      <path id="Path_38993" data-name="Path 38993" d="M242.521,423.829h-2.494a.318.318,0,0,1-.318-.318v-3.046a.318.318,0,0,1,.318-.318h2.494a.318.318,0,0,1,.318.318v3.046A.318.318,0,0,1,242.521,423.829Z" transform="translate(-234.227 -387.309)" fill="#f7f7f8"/>
      <path id="Path_38994" data-name="Path 38994" d="M303.808,423.829h-2.494a.318.318,0,0,1-.318-.318v-3.046a.318.318,0,0,1,.318-.318h2.494a.318.318,0,0,1,.318.318v3.046A.318.318,0,0,1,303.808,423.829Z" transform="translate(-290.033 -387.309)" fill="#f7f7f8"/>
    </g>
    <path id="Path_38995" data-name="Path 38995" d="M47.907,300.569H29.044a.392.392,0,0,1-.392-.392V280.193a.392.392,0,0,1,.392-.392H47.907a.392.392,0,0,1,.392.392v19.984A.392.392,0,0,1,47.907,300.569Z" transform="translate(-17.071 -254.798)" fill="#17ace8"/>
    <path id="Path_38996" data-name="Path 38996" d="M200.709,279.8h-4.245a.392.392,0,0,1,.392.392v19.984a.392.392,0,0,1-.392.392h4.245a.392.392,0,0,0,.392-.392V280.193A.392.392,0,0,0,200.709,279.8Z" transform="translate(-169.883 -254.798)" fill="#80aaff"/>
    <g id="Group_58943" data-name="Group 58943" transform="translate(13.903 28.311)">
      <path id="Path_38997" data-name="Path 38997" d="M57.478,319.154H55.01a.394.394,0,0,1-.394-.394v-1.572a.394.394,0,0,1,.394-.394h2.469a.394.394,0,0,1,.394.394v1.572A.394.394,0,0,1,57.478,319.154Z" transform="translate(-54.616 -316.795)" fill="#f7f7f8"/>
      <path id="Path_38998" data-name="Path 38998" d="M121.73,319.154h-2.469a.394.394,0,0,1-.394-.394v-1.572a.394.394,0,0,1,.394-.394h2.469a.394.394,0,0,1,.394.394v1.572A.394.394,0,0,1,121.73,319.154Z" transform="translate(-113.121 -316.795)" fill="#f7f7f8"/>
      <path id="Path_38999" data-name="Path 38999" d="M185.982,319.154h-2.469a.394.394,0,0,1-.394-.394v-1.572a.394.394,0,0,1,.394-.394h2.469a.394.394,0,0,1,.394.394v1.572A.394.394,0,0,1,185.982,319.154Z" transform="translate(-171.626 -316.795)" fill="#f7f7f8"/>
      <path id="Path_39000" data-name="Path 39000" d="M57.478,380.853H55.01a.394.394,0,0,1-.394-.394v-1.572a.394.394,0,0,1,.394-.394h2.469a.394.394,0,0,1,.394.394v1.572A.394.394,0,0,1,57.478,380.853Z" transform="translate(-54.616 -372.976)" fill="#f7f7f8"/>
      <path id="Path_39001" data-name="Path 39001" d="M121.73,380.853h-2.469a.394.394,0,0,1-.394-.394v-1.572a.394.394,0,0,1,.394-.394h2.469a.394.394,0,0,1,.394.394v1.572A.394.394,0,0,1,121.73,380.853Z" transform="translate(-113.121 -372.976)" fill="#f7f7f8"/>
      <path id="Path_39002" data-name="Path 39002" d="M185.982,380.853h-2.469a.394.394,0,0,1-.394-.394v-1.572a.394.394,0,0,1,.394-.394h2.469a.394.394,0,0,1,.394.394v1.572A.394.394,0,0,1,185.982,380.853Z" transform="translate(-171.626 -372.976)" fill="#f7f7f8"/>
      <path id="Path_39003" data-name="Path 39003" d="M57.478,442.552H55.01a.394.394,0,0,1-.394-.394v-1.572a.394.394,0,0,1,.394-.394h2.469a.394.394,0,0,1,.394.394v1.572A.394.394,0,0,1,57.478,442.552Z" transform="translate(-54.616 -429.156)" fill="#f7f7f8"/>
      <path id="Path_39004" data-name="Path 39004" d="M121.73,442.552h-2.469a.394.394,0,0,1-.394-.394v-1.572a.394.394,0,0,1,.394-.394h2.469a.394.394,0,0,1,.394.394v1.572A.394.394,0,0,1,121.73,442.552Z" transform="translate(-113.121 -429.156)" fill="#f7f7f8"/>
      <path id="Path_39005" data-name="Path 39005" d="M185.982,442.552h-2.469a.394.394,0,0,1-.394-.394v-1.572a.394.394,0,0,1,.394-.394h2.469a.394.394,0,0,1,.394.394v1.572A.394.394,0,0,1,185.982,442.552Z" transform="translate(-171.626 -429.156)" fill="#f7f7f8"/>
    </g>
    <path id="Path_39006" data-name="Path 39006" d="M52.854,488.51h-41.9a1.05,1.05,0,0,0-1.05,1.05h0a1.05,1.05,0,0,0,1.05,1.051h41.9a1.05,1.05,0,0,0,1.05-1.051h0A1.05,1.05,0,0,0,52.854,488.51Z" transform="translate(0 -444.84)" fill="#2d5872"/>
    <path id="Path_39007" data-name="Path 39007" d="M53.9,489.444c0-.007,0-.014,0-.021,0-.032-.009-.063-.016-.094l0-.013q-.012-.051-.029-.1v0a1.058,1.058,0,0,0-.042-.1h0a1.049,1.049,0,0,0-.948-.6H49.736v.267a.934.934,0,0,1-.934.934H10.954a1.049,1.049,0,0,1-.948-.6,1.045,1.045,0,0,0-.1.45h0a1.05,1.05,0,0,0,1.05,1.051h41.9a1.05,1.05,0,0,0,1.05-1.051h0A1.067,1.067,0,0,0,53.9,489.444Z" transform="translate(0 -444.839)" fill="#1d4859"/>
  </g>
</svg>
