<svg id="search" xmlns="http://www.w3.org/2000/svg" width="64" height="64" viewBox="0 0 64 64">
  <path id="Path_25772" data-name="Path 25772" d="M332.934,327.816h0a5.181,5.181,0,0,1-5.118,5.118h0a5.31,5.31,0,0,1-3.8-1.608l-16.376-17.839a1.413,1.413,0,0,1,0-2.047l3.8-3.8a1.413,1.413,0,0,1,2.047,0l17.839,16.523A4.983,4.983,0,0,1,332.934,327.816Z" transform="translate(-268.934 -268.933)" fill="#cf2a45"/>
  <rect id="Rectangle_7209" data-name="Rectangle 7209" width="4.094" height="6.141" transform="translate(42.159 39.265) rotate(135)" fill="#ebebeb"/>
  <path id="Path_25773" data-name="Path 25773" d="M284.39,284.391l.731.731,1.462-1.462-4.387-4.387-2.924,2.924,2.193,2.193h0A1.954,1.954,0,0,1,284.39,284.391Z" transform="translate(-244.386 -244.382)" fill="#d9d9d9"/>
  <path id="Path_25774" data-name="Path 25774" d="M21.933,0A21.933,21.933,0,1,0,43.865,21.933,21.9,21.9,0,0,0,21.933,0Zm0,39.479A17.546,17.546,0,1,1,39.479,21.933,17.6,17.6,0,0,1,21.933,39.479Z" transform="translate(0 0)" fill="#ebebeb"/>
  <path id="Path_31881" data-name="Path 31881" d="M17.546,0A17.546,17.546,0,1,1,0,17.546,17.546,17.546,0,0,1,17.546,0Z" transform="translate(4.387 4.387)" fill="#3ec4b5"/>
  <path id="Path_25775" data-name="Path 25775" d="M75.276,85.375A12.41,12.41,0,0,1,85.95,74.7H86.1a2.153,2.153,0,0,0,.292-4.24A14.732,14.732,0,0,0,82,70.314,13.028,13.028,0,0,0,71.036,81.281a11,11,0,0,0,.146,4.387c.439,2.486,3.948,2.193,4.24-.292C75.276,85.521,75.276,85.375,75.276,85.375Z" transform="translate(-61.97 -61.395)" fill="#e2e7f0"/>
  <path id="Path_25776" data-name="Path 25776" d="M36.371,53.918A17.6,17.6,0,0,1,53.917,36.372a18.321,18.321,0,0,1,11.7,4.387,17.346,17.346,0,0,0-13.16-5.849A17.6,17.6,0,0,0,34.909,52.456a17.867,17.867,0,0,0,5.849,13.16A18.321,18.321,0,0,1,36.371,53.918Z" transform="translate(-30.522 -30.523)" fill="#36b0a2"/>
  <path id="Path_25777" data-name="Path 25777" d="M174.545,196.479h0a21.9,21.9,0,0,0,21.933-21.933h0a1.465,1.465,0,0,0-1.462,1.462,19.888,19.888,0,0,1-5.849,12.867,20.6,20.6,0,0,1-13.16,6.141A1.465,1.465,0,0,0,174.545,196.479Z" transform="translate(-152.786 -152.787)" fill="#d9d9d9"/>
  <path id="Path_25778" data-name="Path 25778" d="M21.933,0h0A21.9,21.9,0,0,0,0,21.933H0a1.465,1.465,0,0,0,1.462-1.462A19.8,19.8,0,0,1,6.872,8.042a21.469,21.469,0,0,1,13.6-6.58A1.465,1.465,0,0,0,21.933,0Z" transform="translate(0 0)" fill="#d9d9d9"/>
  <path id="Path_25779" data-name="Path 25779" d="M336.268,356.064l-.877-.731a5.11,5.11,0,0,1,1.17,3.217h0a2.1,2.1,0,0,1-3.655,1.316l-15.353-15.353a2.12,2.12,0,0,0-3.071,0l-1.462,1.462,15.938,17.108a5.869,5.869,0,0,0,3.217,1.755,5.12,5.12,0,0,0,5.7-5.7A4.554,4.554,0,0,0,336.268,356.064Z" transform="translate(-274.022 -300.983)" fill="#d84059"/>
  <path id="Path_25780" data-name="Path 25780" d="M347.15,325.626a.879.879,0,0,1-.585-.146l-3.656-3.655a.724.724,0,1,1,1.023-1.023l3.655,3.655a.707.707,0,0,1,0,1.023C347.589,325.626,347.3,325.626,347.15,325.626Z" transform="translate(-299.874 -280.527)" fill="#e26a7e"/>
</svg>
