<svg xmlns="http://www.w3.org/2000/svg" width="43.965" height="44" viewBox="0 0 43.965 44">
  <g id="ic_service_followup" transform="translate(0 0.019)">
    <path id="Path_38662" data-name="Path 38662" d="M21.982,38.481a.9.9,0,0,1-.394-.09c-4.55-2.169-10.345-2.323-18.236-.491A2.741,2.741,0,0,1,0,35.226V5.717A2.772,2.772,0,0,1,1.506,3.259c8.758-4.4,15.292-4.374,20.477.1,5.186-4.473,11.72-4.495,20.477-.1a2.769,2.769,0,0,1,1.506,2.458V35.226A2.741,2.741,0,0,1,40.612,37.9c-7.89-1.834-13.686-1.68-18.236.491A.922.922,0,0,1,21.982,38.481Z" transform="translate(0 0)" fill="#cfd8dc"/>
    <path id="Path_38663" data-name="Path 38663" d="M14.666,1.08V36.869q-.742.275-1.43.6a.934.934,0,0,1-.807,0q-.687-.33-1.43-.6V1.08a13.893,13.893,0,0,1,1.833,1.355A13.893,13.893,0,0,1,14.666,1.08Z" transform="translate(9.149 0.916)" fill="#90a4ae"/>
    <path id="Path_38664" data-name="Path 38664" d="M22,38.481ZM13.023-.019C9.661-.019,5.859,1.075,1.507,3.26A2.766,2.766,0,0,0,0,5.718V35.226a2.743,2.743,0,0,0,2.733,2.746,2.765,2.765,0,0,0,.621-.071A43.078,43.078,0,0,1,13,36.635a20.116,20.116,0,0,1,7.974,1.471c-.264-.114-.533-.22-.808-.322V2A13.115,13.115,0,0,0,13.023-.019Z" transform="translate(0 0)" fill="#b4bcc0"/>
    <path id="Path_38665" data-name="Path 38665" d="M11,1.08V36.869q.412.151.808.322c.211.09.418.185.623.282l.4.092V2.435h0A13.893,13.893,0,0,0,11,1.08Z" transform="translate(9.15 0.916)" fill="#82939c"/>
    <path id="Path_38666" data-name="Path 38666" d="M33.461,30.869l-4.656-4.656a9.193,9.193,0,1,0-2.592,2.592l4.656,4.656a1.833,1.833,0,0,0,2.592-2.592Zm-12.3-4.2a5.5,5.5,0,1,1,5.5-5.5,5.506,5.506,0,0,1-5.5,5.5Z" transform="translate(9.966 9.982)" fill="#cf2a45"/>
    <path id="Path_38667" data-name="Path 38667" d="M25,19.5A5.5,5.5,0,1,1,19.5,14,5.5,5.5,0,0,1,25,19.5Z" transform="translate(11.64 11.656)" fill="#fff"/>
    <path id="Path_38668" data-name="Path 38668" d="M14.929,13.339a9.157,9.157,0,0,0,11.283,14.35l4.656,4.656a1.832,1.832,0,0,0,2.592,0h0l-8.3-8.513a5.481,5.481,0,0,1-3.993,1.718h0a5.5,5.5,0,0,1-5.5-5.5h0a5.484,5.484,0,0,1,1.82-4.088l-2.557-2.623Z" transform="translate(9.966 11.098)" fill="#951d31"/>
    <path id="Path_38669" data-name="Path 38669" d="M15.82,14.77A5.487,5.487,0,0,0,14,18.858h0a5.5,5.5,0,0,0,5.5,5.5h0a5.481,5.481,0,0,0,3.993-1.718L15.82,14.77Z" transform="translate(11.641 12.297)" fill="#f7f7f8"/>
  </g>
</svg>
