<svg id="ic_sem_4" xmlns="http://www.w3.org/2000/svg" width="45.941" height="44" viewBox="0 0 45.941 44">
  <path id="Path_38937" data-name="Path 38937" d="M167.491,63.107c-.739,0-12.01-.083-12.749-.083a1.337,1.337,0,0,1-1.337-1.337V57.979a8.142,8.142,0,0,0-2.991-6.723,9.3,9.3,0,0,0-5.616-1.969h-1.337V36.359H147.7a21.13,21.13,0,0,1,21.129,21.129v4.283A1.339,1.339,0,0,1,167.491,63.107Zm0,0" transform="translate(-130.485 -33.118)" fill="#a3efff"/>
  <path id="Path_38938" data-name="Path 38938" d="M9.622,45.79H.348V31.781H9.622Zm0,0" transform="translate(-0.317 -28.948)" fill="#90a4ae"/>
  <path id="Path_38939" data-name="Path 38939" d="M.348,110.348H9.622v7H.348Zm0,0" transform="translate(-0.317 -100.434)" fill="#82939c"/>
  <path id="Path_38940" data-name="Path 38940" d="M81.422,19.676H78.383a4.012,4.012,0,0,1-4.012-4.012V4.012A4.012,4.012,0,0,1,78.383,0h3.128a1.694,1.694,0,0,1,1.694,1.694v16.2A1.783,1.783,0,0,1,81.422,19.676Zm0,0" transform="translate(-67.741)" fill="#cfd8dc"/>
  <path id="Path_38941" data-name="Path 38941" d="M74.371,110.348v5.826a4.012,4.012,0,0,0,4.012,4.012h3.039a1.783,1.783,0,0,0,1.783-1.783v-8.055Zm0,0" transform="translate(-67.741 -100.428)" fill="#b4bcc0"/>
  <path id="Path_38942" data-name="Path 38942" d="M45.941,295.438H0V276.359H1.346a6.666,6.666,0,0,1,4.409,1.6,4.038,4.038,0,0,0,2.8,1.071,4.038,4.038,0,0,0,2.8-1.071,6.865,6.865,0,0,1,8.819,0,4.191,4.191,0,0,0,5.6,0,6.866,6.866,0,0,1,8.819,0,4.191,4.191,0,0,0,5.6,0,6.669,6.669,0,0,1,4.41-1.6h1.346Zm0,0" transform="translate(0 -251.438)" fill="#6ad9eb"/>
  <path id="Path_38943" data-name="Path 38943" d="M273.111,277.963a4.144,4.144,0,0,1-5.562,0,6.789,6.789,0,0,0-8.763,0,4,4,0,0,1-2.779,1.071v16.4H278.83V276.36h-1.337A6.6,6.6,0,0,0,273.111,277.963Zm0,0" transform="translate(-232.889 -251.439)" fill="#28c1d1"/>
  <path id="Path_38944" data-name="Path 38944" d="M45.941,377.414H0V366.359H1.346a6.666,6.666,0,0,1,4.409,1.6,4.038,4.038,0,0,0,2.8,1.071,4.037,4.037,0,0,0,2.8-1.071,6.865,6.865,0,0,1,8.819,0,4.191,4.191,0,0,0,5.6,0,6.866,6.866,0,0,1,8.819,0,4.191,4.191,0,0,0,5.6,0,6.669,6.669,0,0,1,4.41-1.6h1.346Zm0,0" transform="translate(0 -333.415)" fill="#a3efff"/>
  <path id="Path_38945" data-name="Path 38945" d="M273.111,367.967a4.144,4.144,0,0,1-5.562,0,6.789,6.789,0,0,0-8.763,0,4,4,0,0,1-2.779,1.071v8.381H278.83V366.363h-1.337A6.6,6.6,0,0,0,273.111,367.967Zm0,0" transform="translate(-232.889 -333.419)" fill="#6ad9eb"/>
</svg>
