<svg xmlns="http://www.w3.org/2000/svg" width="44" height="44.988" viewBox="0 0 44 44.988">
  <g id="ic_service_enter" transform="translate(-5.5 0)">
    <path id="Path_38852" data-name="Path 38852" d="M43.057,6.443a22,22,0,1,1-31.113,0A22,22,0,0,1,43.057,6.443Z" transform="translate(0 0)" fill="#cfd8dc"/>
    <path id="Path_38853" data-name="Path 38853" d="M44.806,83.02A22.225,22.225,0,0,1,43.045,85,21.992,21.992,0,1,1,13.926,52.142,21.995,21.995,0,0,0,44.806,83.02Z" transform="translate(0 -47.448)" fill="#b4bcc0"/>
    <path id="Path_38854" data-name="Path 38854" d="M98.7,76.6A16.6,16.6,0,1,1,82.1,60,16.6,16.6,0,0,1,98.7,76.6Z" transform="translate(-54.598 -54.598)" fill="#fad054"/>
    <path id="Path_38855" data-name="Path 38855" d="M152.706,76.656a16.579,16.579,0,0,1-3.041,9.6A16.658,16.658,0,0,1,128.856,61.63a16.662,16.662,0,0,1,23.85,15.026Z" transform="translate(-109.597 -54.598)" fill="#fce397"/>
    <path id="Path_38856" data-name="Path 38856" d="M73,50A17.5,17.5,0,1,0,90.5,67.5,17.518,17.518,0,0,0,73,50Zm0,33.2A15.7,15.7,0,1,1,88.7,67.5,15.721,15.721,0,0,1,73,83.2Z" transform="translate(-45.498 -45.498)" fill="#fff5f5"/>
    <path id="Path_38857" data-name="Path 38857" d="M196.135,47.406l-16.6,19.056-4.96,3.968A2.012,2.012,0,0,1,171.75,67.6l3.968-4.96,19.056-16.6a.965.965,0,0,1,1.361,1.361Z" transform="translate(-150.996 -41.684)" fill="#444c57"/>
    <path id="Path_38858" data-name="Path 38858" d="M213.6,204.051A4.051,4.051,0,1,1,209.551,200,4.051,4.051,0,0,1,213.6,204.051Z" transform="translate(-182.051 -182.051)" fill="#cf2a45"/>
    <path id="Path_38859" data-name="Path 38859" d="M213.172,210.226a4.052,4.052,0,1,1-5.44-5.44,4.053,4.053,0,0,0,5.44,5.44Z" transform="translate(-182.05 -186.407)" fill="#951d31"/>
    <path id="Path_38860" data-name="Path 38860" d="M110.294,90.9v3.6a.9.9,0,1,1-1.793,0V90.9a.9.9,0,1,1,1.793,0Zm-.9,21.577a.9.9,0,0,0-.9.9v3.6a.9.9,0,1,0,1.793,0v-3.6A.9.9,0,0,0,109.4,112.476Zm-6.82-18.586a.9.9,0,1,0,1.553-.9l-.457-.794a.9.9,0,1,0-1.553.9ZM97.69,98.2l.792.459a.9.9,0,0,0,.9-1.557l-.792-.459a.9.9,0,0,0-.9,1.557Zm2.095,11.3a.9.9,0,0,0-1.225-.329l-.87.5a.9.9,0,0,0,.9,1.557l.87-.5A.9.9,0,0,0,99.785,109.5Zm20.678-10.932.642-.372a.9.9,0,0,0-.9-1.557l-.642.372a.9.9,0,0,0,.9,1.557ZM103.88,113.517a.9.9,0,0,0-1.225.329l-.535.929a.9.9,0,1,0,1.553.9l.535-.929a.9.9,0,0,0-.328-1.228ZM116.822,92.11a.9.9,0,0,0-1.267.036l-.592.628a.9.9,0,1,0,1.3,1.235l.592-.628A.9.9,0,0,0,116.822,92.11ZM99.983,103.036H96.4a.9.9,0,0,0,0,1.8h3.586a.9.9,0,0,0,0-1.8Zm22.415,0h-3.586a.9.9,0,0,0,0,1.8H122.4a.9.9,0,0,0,0-1.8Z" transform="translate(-81.897 -81.934)" fill="#d98800"/>
    <path id="Path_38861" data-name="Path 38861" d="M316.832,244.933c-.1,11.386-17.67,11.386-17.676,0,0-6,4.222-13.226,8.6-15.882a.473.473,0,0,1,.483-.005C312.84,231.694,316.888,238.825,316.832,244.933Z" transform="translate(-267.332 -208.485)" fill="#5abce2"/>
    <path id="Path_38862" data-name="Path 38862" d="M345.318,229.047c4.6,2.648,8.651,9.778,8.595,15.887a9.462,9.462,0,0,1-.448,2.863c-5.57,2.427-13.555-.322-13.559-8.245a19.714,19.714,0,0,1,1.877-7.9,14.04,14.04,0,0,1,3.052-2.6A.474.474,0,0,1,345.318,229.047Z" transform="translate(-304.413 -208.485)" fill="#68ccea"/>
    <path id="Path_38863" data-name="Path 38863" d="M419.528,330.495a2.931,2.931,0,0,1-3.495.3c-2.322-1.663-.517-8.2,1-8.339S421.5,328.457,419.528,330.495Z" transform="translate(-372.676 -293.52)" fill="#fff"/>
  </g>
</svg>
