<svg id="ic_service_care" xmlns="http://www.w3.org/2000/svg" width="44" height="44" viewBox="0 0 44 44">
  <g id="Group_58827" data-name="Group 58827">
    <path id="Path_38870" data-name="Path 38870" d="M282.492,165H278.5l3.988,6.391a14.967,14.967,0,0,0,3.707-2.6.669.669,0,0,0,.2-.62A4,4,0,0,0,282.492,165Z" transform="translate(-253.853 -150.395)" fill="#006df0"/>
    <path id="Path_38871" data-name="Path 38871" d="M133.211,165a4,4,0,0,0-3.9,3.174.669.669,0,0,0,.2.62,14.967,14.967,0,0,0,3.707,2.6L137.2,165Z" transform="translate(-117.85 -150.395)" fill="#17ace8"/>
    <path id="Path_38872" data-name="Path 38872" d="M182.8,165h-5.318a3.988,3.988,0,0,0-3.988,3.988v2.4a15.043,15.043,0,0,0,13.293,0v-2.4A3.988,3.988,0,0,0,182.8,165Z" transform="translate(-158.142 -150.395)" fill="#1689fc"/>
    <path id="Path_38873" data-name="Path 38873" d="M32.658,66.011A2.658,2.658,0,0,0,30,68.669V86.835h5.317V68.669A2.658,2.658,0,0,0,32.658,66.011Z" transform="translate(-27.342 -60.161)" fill="#fad054"/>
    <path id="Path_38874" data-name="Path 38874" d="M176.238,400.594v6.86l5.074-.976V403.82Z" transform="translate(-160.637 -365.137)" fill="#fad054"/>
    <path id="Path_38875" data-name="Path 38875" d="M17.368,65.532,5.317,55.048V38.721a2.693,2.693,0,0,0-2.584-2.71A2.657,2.657,0,0,0,0,38.666V58.2a3.98,3.98,0,0,0,.473,1.881L6.646,70.268,5.76,75.137H18.033V70.794Z" transform="translate(0 -32.819)" fill="#fce397"/>
    <path id="Path_38876" data-name="Path 38876" d="M189.829,467l-1.329,1.329,1.329,1.329h1.994a.665.665,0,0,0,.665-.665V467Z" transform="translate(-171.813 -425.658)" fill="#b8d8ff"/>
    <path id="Path_38877" data-name="Path 38877" d="M33.284,467.546l-.242,1.329a.665.665,0,0,0,.654.783H48.138V467h-14.2A.665.665,0,0,0,33.284,467.546Z" transform="translate(-30.105 -425.658)" fill="#eae6f2"/>
    <path id="Path_38878" data-name="Path 38878" d="M409.658,66.011a2.658,2.658,0,0,1,2.658,2.658V86.835H407V68.669A2.658,2.658,0,0,1,409.658,66.011Z" transform="translate(-370.975 -60.161)" fill="#fad054"/>
    <path id="Path_38879" data-name="Path 38879" d="M425.913,36.012a2.586,2.586,0,0,0-.984.224V58.031L422,70.264l6.173-10.182a3.979,3.979,0,0,0,.473-1.881V38.667A2.657,2.657,0,0,0,425.913,36.012Z" transform="translate(-384.646 -32.82)" fill="#fad054"/>
    <path id="Path_38880" data-name="Path 38880" d="M281.342,62.11a3.982,3.982,0,0,0,.191-1.219V40.979a2.917,2.917,0,0,0-1.059-2.431,2.726,2.726,0,0,0-1.6,2.486V57.361L266.823,67.845,263.5,73.819v2.656l2.658.975h12.273l-.886-4.869Z" transform="translate(-240.191 -35.132)" fill="#fce397"/>
    <path id="Path_38881" data-name="Path 38881" d="M421.3,467l-.846,1.329,1.329,1.329h1.862a.665.665,0,0,0,.654-.783l-.242-1.329A.664.664,0,0,0,423.4,467Z" transform="translate(-383.236 -425.658)" fill="#b8d8ff"/>
    <path id="Path_38882" data-name="Path 38882" d="M263.5,467v1.994a.665.665,0,0,0,.665.665h14.573L278.254,467Z" transform="translate(-240.191 -425.658)" fill="#eae6f2"/>
    <path id="Path_38883" data-name="Path 38883" d="M278.043,221.943a2.694,2.694,0,0,0-3.745.091l-9.24,9.24a5.3,5.3,0,0,0-1.557,3.76v5.316a5.317,5.317,0,0,0,5.317-5.316l9.279-9.279A2.659,2.659,0,0,0,278.043,221.943Z" transform="translate(-240.192 -201.667)" fill="#ffeac3"/>
    <path id="Path_38884" data-name="Path 38884" d="M122.452,243.306a5.3,5.3,0,0,0-1.557-3.76l-9.24-9.24,8.139,17.6a5.289,5.289,0,0,0,2.658.713Z" transform="translate(-101.773 -209.939)" fill="#ffd17e"/>
    <path id="Path_38885" data-name="Path 38885" d="M71.543,231.274l-6.965-9.24a2.694,2.694,0,0,0-3.745-.091,2.658,2.658,0,0,0-.054,3.812l9.279,9.279a5.313,5.313,0,0,0,2.658,4.6v-4.6A6.276,6.276,0,0,0,71.543,231.274Z" transform="translate(-54.684 -201.667)" fill="#ffeac3"/>
    <path id="Path_38886" data-name="Path 38886" d="M248.5,0V11.963A5.981,5.981,0,0,0,248.5,0Z" transform="translate(-226.503)" fill="#006df0"/>
    <path id="Path_38887" data-name="Path 38887" d="M190.3,5.981c0-3.3-1.488-5.981-3.323-5.981a5.981,5.981,0,0,0,0,11.963C188.817,11.963,190.3,9.285,190.3,5.981Z" transform="translate(-164.98)" fill="#1689fc"/>
  </g>
</svg>
