<svg xmlns="http://www.w3.org/2000/svg" width="513.102" height="445.186" viewBox="0 0 513.102 445.186"><g transform="translate(0.666 -33.469)"><path d="M0,0C3.493,2.534,6.907,5.162,10.313,7.813c5.936,4.574,11.873,9.122,18,13.438,5.9,4.161,11.688,8.463,17.449,12.817L47.7,35.531l1.714,1.3c1.5,1.1,3.041,2.139,4.587,3.17.015-1.276.029-2.553.044-3.868q.087-7.115.218-14.229.05-3.077.084-6.154c.034-2.952.086-5.9.142-8.854.006-.915.013-1.83.019-2.772C54.618-.675,54.737-4.208,58-8c4.152-3.137,7.776-3.436,12.816-3.4l2.338-.021c2.541-.018,5.082-.014,7.624-.009l5.316-.016q5.567-.013,11.134,0,7.125.017,14.247-.038,5.489-.027,10.977-.012,2.627,0,5.252-.018c2.451-.015,4.9,0,7.351.013l2.178-.029C142.282-11.457,145.2-10.309,149-7c3.874,5.324,3.4,10.921,3.341,17.238,0,1.123,0,2.245,0,3.4,0,3.7-.026,7.4-.049,11.1q-.009,3.855-.013,7.709-.015,9.1-.064,18.2-.051,10.364-.065,20.728Q152.1,92.69,152,114l2.375.915a24.9,24.9,0,0,1,6.559,3.991l2.193,1.739,2.311,1.855c5.479,4.334,10.971,8.607,16.687,12.625,7.156,5.039,14.157,10.271,21.13,15.558q2.262,1.707,4.546,3.387c7.88,5.907,13.914,12.059,16.2,21.93,1.021,10.258.66,19.661-5.648,28.242-1.7,2.027-3.467,3.9-5.352,5.758l-2.25,2.25c-8.648,5.5-17.624,7.013-27.75,5.75-8.806-2.207-15.482-7.257-22.383-12.891-2.406-2.092-2.406-2.092-4.617-3.109,0,1.064-.007,2.127-.01,3.223q-.122,38.835-.278,77.67-.075,18.78-.134,37.561-.05,16.369-.121,32.74-.037,8.667-.06,17.334-.02,8.161-.064,16.323-.013,2.991-.017,5.982-.006,4.095-.038,8.188c0,.783,0,1.566.006,2.373-.1,9.467-1.826,16.539-8.284,23.606-5.023,4.772-10.1,6.247-16.958,6.26l-3.564.021-3.888-.007-4.152.016q-5.7.021-11.394.015-6.148,0-12.3.027-13.438.033-26.876.035-8.393.006-16.786.017-23.244.03-46.489.039H-10.485q-24.278.006-48.555.068-24.934.057-49.868.058-14,0-27.992.038-11.918.036-23.835.017-6.078-.012-12.156.016-5.569.032-11.14,0c-1.971-.005-3.941.014-5.912.035-8.53-.081-15.586-1.486-21.992-7.459-6.689-7.247-7.211-15.277-7.223-24.814,0-.855-.01-1.709-.015-2.589q-.024-4.284-.032-8.568-.015-3.075-.03-6.15-.04-8.343-.068-16.685-.033-8.72-.076-17.44-.075-16.512-.138-33.022-.075-18.8-.16-37.6Q-219.848,240.666-220,202l-2.863,2.08-3.782,2.729-1.879,1.367C-239.1,215.788-247.861,218.968-261,218c-10.729-2.254-18.2-8.7-24.125-17.711-4.486-8.131-4.054-18.355-2.285-27.258,4.08-11.882,14.6-18.924,24.507-25.7,3.261-2.274,6.421-4.678,9.59-7.077q8.775-6.615,17.625-13.125l2.4-1.768q4.86-3.576,9.722-7.148c8.212-6.038,16.417-12.082,24.563-18.209s16.36-12.177,24.577-18.218Q-168.459,77.4-162.5,73q7.175-5.289,14.355-10.57Q-137.038,54.261-126,46c9.757-7.339,19.6-14.56,29.437-21.791l7.251-5.334,2.38-1.75Q-80.2,12.166-73.541,7.108C-48.956-11.509-27.081-18.321,0,0Z" transform="translate(288 45)" fill="#d7cdea"/><path d="M0,0C3.493,2.534,6.907,5.162,10.313,7.813c5.936,4.574,11.873,9.122,18,13.438,5.9,4.161,11.688,8.463,17.449,12.817L47.7,35.531l1.714,1.3c1.5,1.1,3.041,2.139,4.587,3.17.015-1.276.029-2.553.044-3.868q.087-7.115.218-14.229.05-3.077.084-6.154c.034-2.952.086-5.9.142-8.854.006-.915.013-1.83.019-2.772C54.618-.675,54.737-4.208,58-8c4.152-3.137,7.776-3.436,12.816-3.4l2.338-.021c2.541-.018,5.082-.014,7.624-.009l5.316-.016q5.567-.013,11.134,0,7.125.017,14.247-.038,5.489-.027,10.977-.012,2.627,0,5.252-.018c2.451-.015,4.9,0,7.351.013l2.178-.029C142.282-11.457,145.2-10.309,149-7c3.874,5.324,3.4,10.921,3.341,17.238,0,1.123,0,2.245,0,3.4,0,3.7-.026,7.4-.049,11.1q-.009,3.855-.013,7.709-.015,9.1-.064,18.2-.051,10.364-.065,20.728Q152.1,92.69,152,114l2.375.915a24.9,24.9,0,0,1,6.559,3.991l2.193,1.739,2.311,1.855c5.479,4.334,10.971,8.607,16.687,12.625,7.156,5.039,14.157,10.271,21.13,15.558q2.262,1.707,4.546,3.387c7.88,5.907,13.914,12.059,16.2,21.93,1.021,10.258.66,19.661-5.648,28.242-1.7,2.027-3.467,3.9-5.352,5.758l-2.25,2.25c-8.648,5.5-17.624,7.013-27.75,5.75-8.373-2.1-14.729-6.73-21.348-12.082-4.113-3.325-8.38-6.427-12.652-9.543q-10.376-7.6-20.562-15.437-10.729-8.219-21.7-16.077c-5.613-4.028-11.154-8.143-16.674-12.3q-18.984-14.289-38.25-28.188-9.433-6.788-18.7-13.786c-5.978-4.5-12.005-8.942-18.038-13.373q-6.648-4.89-13.234-9.859Q-7.642,80.2-17.312,73.313l-2.194-1.569L-21.551,70.3l-1.8-1.276C-27.293,66.574-31.511,66.422-36,67c-6.089,2.229-11.1,6.132-16.125,10.125q-2.26,1.763-4.523,3.52l-2.241,1.741c-2.9,2.22-5.87,4.331-8.86,6.427-5.924,4.17-11.687,8.533-17.437,12.938q-13.619,10.43-27.469,20.532-5.93,4.349-11.843,8.718l-4.75,3.5-2.375,1.75-28.5,21q-2.371,1.747-4.742,3.5-5.993,4.414-11.987,8.824-12.368,9.1-24.643,18.309c-4.559,3.427-9.164,6.786-13.791,10.121-2.568,1.894-5.082,3.842-7.593,5.81C-235.2,213.446-244.9,219.378-261,218c-10.732-2.277-18.191-8.687-24.125-17.711-4.486-8.131-4.054-18.355-2.285-27.258,4.08-11.882,14.6-18.924,24.507-25.7,3.261-2.274,6.421-4.678,9.59-7.077q8.775-6.615,17.625-13.125l2.4-1.768q4.86-3.576,9.722-7.148c8.212-6.038,16.417-12.082,24.563-18.209s16.36-12.177,24.577-18.218Q-168.459,77.4-162.5,73q7.175-5.289,14.355-10.57Q-137.038,54.261-126,46c9.757-7.339,19.6-14.56,29.437-21.791l7.251-5.334,2.38-1.75Q-80.2,12.166-73.541,7.108C-48.956-11.509-27.081-18.321,0,0Z" transform="translate(288 45)" fill="#579cef"/><path d="M0,0,2.338-.021C4.879-.039,7.42-.035,9.961-.03l5.316-.016q5.567-.013,11.134,0,7.124.017,14.247-.038,5.488-.028,10.977-.012,2.626,0,5.252-.018c2.451-.015,4.9,0,7.352.013l2.178-.029c5.05.074,7.968,1.222,11.768,4.531,3.854,5.309,3.406,10.851,3.341,17.146,0,1.669,0,1.669,0,3.372,0,3.669-.025,7.337-.049,11.005q-.008,3.821-.013,7.642-.015,9.02-.064,18.04-.05,10.273-.065,20.547-.047,21.124-.151,42.248a66.284,66.284,0,0,1-10-6.187l-1.823-1.31c-6.206-4.482-12.32-9.085-18.436-13.689Q38.8,94.091,26.543,85.138q-7.1-5.222-14.2-10.458Q6.1,70.073-.164,65.482l-2.645-1.941q-2.52-1.85-5.043-3.7l-2.281-1.676-2.014-1.476c-3.6-2.782-3.6-2.782-3.93-5.205,0-.78-.009-1.56-.014-2.363-.01-.885-.019-1.769-.029-2.681,0-.958,0-1.917,0-2.9s-.009-1.968-.013-2.982q-.009-3.128,0-6.257c0-3.187-.02-6.373-.046-9.56q0-3.038,0-6.076c-.009-.952-.019-1.9-.028-2.886.06-8.567.06-8.567,3.391-12.376C-8.662.269-5.041-.031,0,0Z" transform="translate(358.816 33.596)" fill="#ef4173"/><path d="M0,0,3.641-.048H7.565l4.043-.023q4.234-.02,8.468-.009c3.607.006,7.213-.025,10.82-.065,2.783-.026,5.566-.029,8.349-.025,1.973,0,3.946-.027,5.919-.052,9.983.077,9.983.077,13.677,3.056,3.145,3.7,3.333,5.449,3.378,10.228.019,1.773.019,1.773.039,3.581.007,1.283.015,2.566.022,3.889s.016,2.629.024,3.984q.023,4.181.033,8.363c.011,3.562.045,7.124.085,10.686.033,3.406.037,6.812.046,10.218.017,1.275.035,2.55.053,3.864-.024,9.882-.024,9.882-2.193,13.5-3.884,3.861-7.634,4.521-12.991,4.563l-3.4.039-3.643.007-3.769.02q-3.943.015-7.885.014-4.035,0-8.068.041c-3.884.037-7.768.047-11.652.049l-3.637.044c-10.727-.059-10.727-.059-15.242-4.5-4.154-5.525-3.433-12.013-3.4-18.625,0-1.22-.006-2.44-.009-3.7q0-3.863.016-7.726c.016-3.937,0-7.873-.019-11.811q0-3.758.012-7.516c-.006-1.175-.012-2.35-.018-3.561.09-10.438.09-10.438,3.417-15.064C-6.7.372-4.406.035,0,0Z" transform="translate(280.958 325.58)" fill="#5aa3f4"/><path d="M0,0,3.58-.048H7.422l3.971-.023q4.155-.02,8.309-.009c3.539.006,7.076-.025,10.615-.065C33.706-.178,37.1-.174,40.485-.174l3.836-.05C54.11-.147,54.11-.147,57.8,2.832,60.968,6.527,61.152,8.273,61.2,13.06c.019,1.773.019,1.773.039,3.581.007,1.283.015,2.566.022,3.889s.016,2.629.024,3.984q.022,4.181.032,8.363c.011,3.562.046,7.124.085,10.686.032,3.406.037,6.812.045,10.218.018,1.275.035,2.55.053,3.864-.024,9.882-.024,9.882-2.193,13.5-3.884,3.861-7.634,4.521-12.991,4.563l-3.4.039-3.643.007-3.769.02q-3.943.015-7.885.014-4.035,0-8.068.041c-3.884.037-7.768.047-11.652.049l-3.637.044c-10.727-.059-10.727-.059-15.242-4.5-4.154-5.525-3.433-12.013-3.4-18.625,0-1.22-.006-2.44-.009-3.7q0-3.863.016-7.726c.016-3.937,0-7.873-.019-11.811q0-3.758.012-7.516c-.006-1.175-.012-2.35-.018-3.561.091-10.6.091-10.6,3.417-15.064C-7.234.7-4.6.037,0,0Z" transform="translate(281.98 227.58)" fill="#5aa3f4"/><path d="M0,0,3.591-.029l3.9-.013L11.48-.059q4.188-.016,8.375-.02,5.357-.008,10.713-.058C33.979-.16,37.39-.162,40.8-.167L44.681-.2,48.3-.2l3.178-.011a15.029,15.029,0,0,1,7.866,3.367c4.177,5.58,3.45,12.181,3.434,18.844.005,1.242.011,2.485.016,3.765q.012,4.938-.01,9.877,0,3.02.027,6.039.046,5.817.03,11.632c.011,1.2.022,2.394.034,3.627-.088,10.574-.088,10.574-4.53,15.216a15.873,15.873,0,0,1-10.7,3.388l-3.4.029L40.6,75.56l-3.769.009q-4.951,0-9.9-.026-3.026-.009-6.052.01-5.826.028-11.652.007l-3.637.018c-10.809-.091-10.809-.091-15.242-3.417-2.717-3.747-3.383-6.384-3.42-10.98-.016-1.181-.032-2.363-.048-3.58,0-1.268,0-2.536,0-3.842s-.015-2.621-.023-3.971q-.02-4.155-.009-8.309c.006-3.539-.025-7.076-.065-10.615-.032-3.389-.028-6.778-.028-10.168l-.05-3.836c.077-9.789.077-9.789,3.056-13.483C-6.54.206-4.8.031,0,0Z" transform="translate(181.656 227.839)" fill="#5aa3f3"/><path d="M0,0,3.591-.029l3.9-.013L11.48-.059q4.188-.016,8.375-.02,5.357-.008,10.713-.058C33.979-.16,37.39-.162,40.8-.167L44.681-.2,48.3-.2l3.178-.011a15.022,15.022,0,0,1,7.866,3.367c4.138,5.552,3.433,12,3.4,18.625,0,1.22.006,2.441.009,3.7q0,3.863-.016,7.726c-.016,3.937,0,7.873.019,11.811q0,3.758-.012,7.516c.006,1.175.012,2.35.018,3.561-.088,10.228-.088,10.228-3.417,15.064-3.87,3.507-7.259,4.125-12.37,4.177l-3.328.039-3.6.022-3.7.024q-3.884.021-7.767.032c-3.953.017-7.9.061-11.857.105q-3.773.015-7.547.025L5.6,75.64c-6.608-.017-10.982-.327-16.254-4.479-2.136-3.271-2.267-6.008-2.306-9.867l-.049-3.58c-.005-1.273-.011-2.546-.016-3.858s-.018-2.624-.027-3.975q-.025-4.164-.027-8.327c-.005-3.547-.043-7.092-.089-10.638-.037-3.395-.038-6.789-.044-10.184-.019-1.269-.039-2.538-.059-3.845.05-9.819.05-9.819,3.028-13.511C-6.54.207-4.8.031,0,0Z" transform="translate(181.656 325.839)" fill="#5aa2f3"/><path d="M0,0,3.59-.048H7.441L11.42-.072q4.161-.02,8.321-.009c3.548.006,7.094-.025,10.642-.065,3.394-.032,6.789-.028,10.183-.028l3.851-.05c9.789.077,9.789.077,12.926,3.181L59,5.42a48.78,48.78,0,0,1-25-1l-1,2-6-1v3H24v-2l-11-1,1,3-1.723.813C6.157,12.341,2.186,16-2,21.42l-4-1A171.442,171.442,0,0,0-8,48.51,105.219,105.219,0,0,1-10,71.42c-2.843-2.6-3.914-4.5-4.14-8.446-.007-.97-.014-1.94-.021-2.94l-.029-3.338c-.006-1.786-.006-1.786-.013-3.608-.006-1.224-.011-2.449-.017-3.711q-.014-3.89-.02-7.78c-.01-3.964-.041-7.927-.072-11.89q-.01-3.778-.016-7.557c-.012-1.185-.025-2.369-.037-3.59C-14.333,7.874-14.333,7.874-11,3.42-7.245.7-4.6.037,0,0Z" transform="translate(281.996 227.58)" fill="#4865c4"/><path d="M0,0,3.68-.009,7.642.028q2.036,0,4.071.006,4.259.007,8.518.041Q25.7.118,31.161.119q4.2.006,8.4.026,3,.013,5.993.021L49.215.2l3.234.021c2.529.14,2.529.14,4.529,1.14v2A154.736,154.736,0,0,1,34.916,4.419l-3.49-.014q-4.224-.018-8.447-.049l-1,3-3-1c-4.1-.712-7.544-.875-11.191,1.316C3.387,11.4.247,15.645-3.022,20.356h-2A171.444,171.444,0,0,0-7.03,48.446a105.219,105.219,0,0,1-1.992,22.91c-2.843-2.6-3.914-4.5-4.14-8.446-.007-.97-.014-1.94-.021-2.94l-.029-3.338c-.006-1.786-.006-1.786-.013-3.608-.006-1.224-.011-2.449-.017-3.711q-.014-3.89-.02-7.78c-.01-3.964-.041-7.927-.072-11.89q-.01-3.778-.016-7.557c-.012-1.185-.025-2.369-.037-3.59.028-10.526.028-10.526,3.365-15.141C-6.741.273-4.443-.015,0,0Z" transform="translate(281.022 325.644)" fill="#4a67c5"/><path d="M0,0,3.62-.01,7.547,0l4.013,0q4.206,0,8.413.005,5.4.009,10.795,0,4.143-.005,8.287,0,2.96,0,5.919-.005l3.62.01,3.2,0c2.5.127,2.5.127,4.5,1.127v2h-7v2c-5.4,1.1-8.785.647-14-1-2.664-.431-5.315-.717-8-1v2l-4-1v2l-2.746-.246c-8.7-.469-8.7-.469-16.316,3.246a34.654,34.654,0,0,0-3.938,4l-1.621,1.719C-6.1,21.022-5.607,28.641-5.7,36.129L-5.75,39.1c-.013,2.011.012,4.021.047,6.031l-3-4a114.036,114.036,0,0,0-1.062,18c0,.87.009,1.74.014,2.637q.017,3.182.049,6.363l-2,1c-1.323-2.646-1.156-4.677-1.193-7.64-.016-1.182-.032-2.363-.049-3.581q-.067-8.118-.108-16.235-.02-4.284-.082-8.566c-.059-4.112-.077-8.224-.091-12.337-.023-1.275-.045-2.55-.069-3.864.024-9.876.024-9.876,3-13.566C-6.565.159-4.826,0,0,0Z" transform="translate(181.703 227.871)" fill="#4969c5"/><path d="M0,0,3.62-.01,7.547,0l4.013,0q4.206,0,8.413.005,5.4.009,10.795,0,4.143-.005,8.287,0,2.96,0,5.919-.005l3.62.01,3.2,0c2.5.127,2.5.127,4.5,1.127v2a48.453,48.453,0,0,1-14.187.438A52.99,52.99,0,0,0,25.27,4.852c-3.484.325-5.756-.423-8.973-1.723v2l-1.687.191C6.367,6.644,2.005,10.8-3.141,17.129c-4.081,7.946-2.716,19.259-2.562,28l-3-4a114.036,114.036,0,0,0-1.062,18c0,.87.009,1.74.014,2.637q.017,3.182.049,6.363l-2,1c-1.323-2.646-1.156-4.677-1.193-7.64-.016-1.182-.032-2.363-.049-3.581q-.067-8.118-.108-16.235-.02-4.284-.082-8.566c-.059-4.112-.077-8.224-.091-12.337-.023-1.275-.045-2.55-.069-3.864.024-9.876.024-9.876,3-13.566C-6.565.159-4.826,0,0,0Z" transform="translate(181.703 325.871)" fill="#435ebe"/><path d="M0,0,3.883.027,6.875.063,4.668,1.785C2.045,3.924-.4,6.132-2.812,8.5l-2.324,2.246c-5.215,6.075-4.128,12.65-3.91,20.217a63.662,63.662,0,0,1-1.624,15.615,62.237,62.237,0,0,0-.579,12.609c.009.861.018,1.722.027,2.609q.035,3.133.1,6.266l-2,1c-1.323-2.646-1.156-4.677-1.193-7.64-.016-1.182-.032-2.364-.049-3.581q-.067-8.118-.109-16.236-.02-4.284-.082-8.566c-.059-4.112-.077-8.224-.091-12.337-.023-1.275-.045-2.55-.069-3.864.024-9.876.024-9.876,3-13.566C-7.61-.229-5.361-.049,0,0Z" transform="translate(183.125 227.938)" fill="#435ebe"/><path d="M0,0Q10.2-.038,20.4-.055q3.472-.008,6.943-.021Q32.323-.094,37.3-.1l3.15-.016h2.912l2.57-.007A7,7,0,0,1,50,1V3a48.453,48.453,0,0,1-14.187.438,52.989,52.989,0,0,0-16.84,1.285C15.488,5.048,13.217,4.3,10,3V5l-1.687.191C.07,6.514-4.292,10.667-9.437,17-13.518,24.946-12.153,36.259-12,45c-3.746-3.746-2.744-9.928-3-15l-.375-3.621c-.361-5.155-.565-8.858,2.207-13.344A73.309,73.309,0,0,1-3.262,3.852C-.929,2.2-.929,2.2,0,0Z" transform="translate(188 326)" fill="#5270ca"/><path d="M0,0C4.875,2.75,4.875,2.75,6,5A48.78,48.78,0,0,1-19,4l-1,2-6-1V8h-3V6L-40,5l1,3-1.723.813C-46.847,11.921-50.818,15.581-55,21l-3-1c0-3.372.515-5.442,2.742-8q2.092-2.019,4.25-3.969c2.138-1.942,2.138-1.942,3.273-4.621C-46,1-46,1-43.368.417l3.137.06,3.443.035,3.6.113,3.565.043A100.407,100.407,0,0,1-14,2q3.686.1,7.375.063l3.773-.027L0,2Z" transform="translate(335 228)" fill="#4e73ce"/><path d="M0,0Q10.2-.038,20.4-.055q3.472-.008,6.943-.021Q32.323-.094,37.3-.1l3.15-.016h2.912l2.57-.007A7,7,0,0,1,50,1V3a48.453,48.453,0,0,1-14.187.438,58.315,58.315,0,0,0-17.23,1.188C16,5,16,5,14,4c-2.546-.232-5.074-.419-7.625-.562L4.234,3.307Q1.618,3.148-1,3Z" transform="translate(188 326)" fill="#4e6bc4"/><path d="M0,0,2.008,0Q4.113,0,6.219,0,9.4.01,12.578,0A146.935,146.935,0,0,1,33.242,1.133v2c-5.4,1.1-8.785.647-14-1-2.664-.431-5.315-.717-8-1v2l-4-1v2L4.5,3.887c-8.7-.469-8.7-.469-16.316,3.246a41.356,41.356,0,0,0-8.937,12l-2-3C-11.326.01-11.326.01,0,0Z" transform="translate(197.758 229.867)" fill="#5f7ed4"/><path d="M0,0,3,1V3A154.735,154.735,0,0,1-19.062,4.063l-3.49-.014Q-26.776,4.031-31,4l-1,3-3-1c-1.5-.092-3-.13-4.5-.125l-2.344-.008C-44.185,5.919-44.185,5.919-47,7V2q9.076-.252,18.152-.482,3.087-.08,6.175-.166,4.438-.123,8.876-.231l2.788-.082L-8.4.978-6.113.918A24.608,24.608,0,0,1,0,2ZM-50,8l2,1A141.334,141.334,0,0,1-58,20l-1-3Z" transform="translate(335 326)" fill="#5474cd"/><path d="M0,0C1.186,2.372,1.1,3.761,1.063,6.4l-.025,2.68L1,11.938a123.111,123.111,0,0,0,.563,16.625,95.793,95.793,0,0,1,.063,15.813L1.494,47.01A65.741,65.741,0,0,1,0,59a8.546,8.546,0,0,1-3-3c.224-1.62.456-3.239.725-4.852a91.761,91.761,0,0,0,.3-12.788q-.019-3.09-.037-6.18Q-2.047,27.337-2.1,22.5q-.045-4.693-.064-9.386L-2.2,10.174l-.01-2.722L-2.234,5.06C-2,3-2,3,0,0Z" transform="translate(272 338)" fill="#3e5bba"/><path d="M0,0H1C4.438,37.249,4.438,37.249,1,52a8.546,8.546,0,0,1-3-3c.221-1.641.45-3.282.722-4.915a82.309,82.309,0,0,0,.34-11.7l-.011-2.721Q-.967,25.394-1,21.125q-.04-5.652-.062-11.3l-.025-2.635C-1.1,5.123-1.053,3.061-1,1Z" transform="translate(271 247)" fill="#3e5bba"/><path d="M0,0H1C2.369,3.3,3.076,5.468,2.565,9.043a98.844,98.844,0,0,0-.662,14.7c0,1.011,0,2.022,0,3.064q.008,4.814.031,9.627.008,3.276.014,6.553Q1.968,51,2,59L0,60c-1.291-2.583-1.127-4.444-1.129-7.336,0-1.115-.006-2.229-.01-3.378,0-1.208,0-2.417.006-3.662s0-2.471,0-3.744q0-4.931.009-9.862,0-3.027,0-6.053-.009-5.8,0-11.592c0-1.208,0-2.417-.006-3.662,0-1.115.006-2.229.01-3.377,0-.984,0-1.969,0-2.983A7.391,7.391,0,0,1,0,0Z" transform="translate(269 235)" fill="#536bbd"/><path d="M0,0,4,1,3.507,3.166a44.076,44.076,0,0,0-.621,8.175c0,1.041,0,2.081,0,3.154.005,1.112.01,2.223.016,3.369s0,2.294,0,3.476q.008,5.487.031,10.973.008,3.724.014,7.447Q2.968,48.88,3,58L1,59C-.308,56.385-.12,54.469-.114,51.541c0-1.141,0-2.282,0-3.458L-.1,44.336l0-3.825q.007-5.036.025-10.071.015-5.138.02-10.275Q-.032,10.082,0,0Z" transform="translate(169 336)" fill="#3550af"/><path d="M0,0,4,1,3.507,2.668a34.048,34.048,0,0,0-.621,7.652c0,1.061,0,2.122,0,3.215.005,1.139.01,2.277.016,3.45s0,2.341,0,3.548q.008,5.609.031,11.218.008,3.8.014,7.605Q2.968,48.678,3,58L1,59C-.308,56.385-.12,54.469-.114,51.541c0-1.141,0-2.282,0-3.458L-.1,44.336l0-3.825q.007-5.036.025-10.071.015-5.138.02-10.275Q-.032,10.082,0,0Z" transform="translate(169 238)" fill="#354faf"/><path d="M0,0H1A126.987,126.987,0,0,1,2.1,19.938c0,1.121,0,2.241,0,3.4Q2.085,28.667,2.063,34q-.008,3.631-.014,7.262Q2.032,50.131,2,59L0,60c-1.291-2.583-1.127-4.444-1.129-7.336,0-1.115-.006-2.229-.01-3.378,0-1.208,0-2.417.006-3.662s0-2.471,0-3.744q0-4.931.009-9.862,0-3.027,0-6.053-.009-5.8,0-11.592c0-1.208,0-2.417-.006-3.662,0-1.115.006-2.229.01-3.377,0-.984,0-1.969,0-2.983A7.391,7.391,0,0,1,0,0Z" transform="translate(269 333)" fill="#546cbd"/><path d="M0,0V3H-6l-.687,1.625C-9.221,9.209-12.1,12.971-17,15l-2,2-2-4C-16.331,4.677-9.874-1.257,0,0Z" transform="translate(199 233)" fill="#6c8cdc"/><path d="M0,0,1,3l-1.723.813C-6.847,6.921-10.818,10.581-15,16l-3-1c.575-6.294,3.056-8.956,7.5-13.207C-6.733-.909-4.487-.734,0,0Z" transform="translate(295 233)" fill="#6484d8"/><path d="M0,0,3,1,1.137,2.758-1.312,5.125l-2.426,2.32c-6.078,6.865-5.635,13.141-5.449,21.93l.041,3.676Q-9.094,37.526-9,42c-3.746-3.746-2.744-9.928-3-15l-.375-3.621C-12.74,18.169-12.954,14.5-10.1,10A82.939,82.939,0,0,1-3,3Q-1.49,1.51,0,0Z" transform="translate(185 231)" fill="#5271c9"/><path d="M0,0V2l-1.785.262c-2.825.942-3.8,2.244-5.652,4.551A42,42,0,0,1-16,15h-2a14.423,14.423,0,0,1,4.375-9.187l1.836-2.043C-7.885-.092-5.331-.2,0,0Z" transform="translate(298 331)" fill="#6f90de"/><path d="M0,0V3l-2.238.75A20.155,20.155,0,0,0-9.187,9l-2.043,2.125L-13,13l-2,2-2-2c.579-5.524,5.268-9.268,9-13C-5.109-1.446-3.055-.764,0,0Z" transform="translate(195 333)" fill="#6c8cdc"/><path d="M0,0V3L-6,2V5H-9V3H-27V0C-18.615-2.609-8.571-1.182,0,0Z" transform="translate(315 231)" fill="#6081d4"/><path d="M0,0Q6.781-.037,13.562-.055q2.308-.008,4.615-.021Q21.491-.094,24.8-.1l2.09-.016c4.878,0,4.878,0,7.105,1.113V3c-7.363,1.376-14.114.516-21.5-.437L8.852,2.115Q4.424,1.571,0,1Z" transform="translate(204 326)" fill="#4669c6"/><path d="M0,0Q3.437-.04,6.875-.062L10.742-.1C14,0,14,0,16,1L15,4,12,3c-1.5-.092-3-.13-4.5-.125L5.156,2.867C2.816,2.919,2.816,2.919,0,4ZM-3,5l2,1A141.336,141.336,0,0,1-11,17l-1-3Z" transform="translate(288 329)" fill="#6282d5"/><path d="M0,0V2l-1.687.191C-8.419,3.272-12.494,5.915-17,11a53.043,53.043,0,0,0-4,7,8.521,8.521,0,0,1-1-4,32.372,32.372,0,0,1,4-6l1.7-2.164C-11.251.038-7.577-1.118,0,0Z" transform="translate(198 329)" fill="#5f7fd4"/><path d="M0,0Q6.375-.037,12.75-.055q2.163-.007,4.326-.021A155.268,155.268,0,0,1,40,1V3c-5.4,1.1-8.785.647-14-1-2.664-.431-5.315-.717-8-1V3L0,1Z" transform="translate(191 230)" fill="#5276cf"/><path d="M0,0C-2.226,5.26-5.655,9.788-11,12l-2,2c.256-3.752.464-5.494,3.25-8.125L-7,4l2.688-2.25C-2,0-2,0,0,0Z" transform="translate(193 236)" fill="#799be3"/><path d="M0,0V3l-2.238.75A20.155,20.155,0,0,0-9.187,9l-2.043,2.125L-13,13l-2,2c.578-3.35,1.586-4.682,4-7l.813-1.937A11.3,11.3,0,0,1,0,0Z" transform="translate(195 333)" fill="#789ae2"/><path d="M0,0,2,1Q.142,3.233-1.75,5.438l-2.109,2.5C-6.013,10.013-7.083,10.639-10,11-8.133,6.8-5.782,3.153-1.875.625Z" transform="translate(292 237)" fill="#81a4e8"/><path d="M0,0A152.3,152.3,0,0,1,23,1V4L0,1Z" transform="translate(292 230)" fill="#5879d0"/><path d="M0,0,26,1V2q-3.186.543-6.375,1.063l-3.586.6C13,4,13,4,11,3c-2.037-.229-4.08-.41-6.125-.562l-3.32-.254L-1,2Z" transform="translate(191 327)" fill="#5575cd"/><path d="M0,0-3.125,2.063A47.456,47.456,0,0,0-13,12c0-4.152,1.8-6.523,4.375-9.687C-5.915.124-3.282-1.641,0,0Z" transform="translate(293 237)" fill="#7495e1"/><path d="M0,0,3,1,1.137,2.828-1.312,5.25-3.738,7.641A54.755,54.755,0,0,0-9,14,14.8,14.8,0,0,1-9,9,30.184,30.184,0,0,1-4.5,4.188l2.531-2.395Z" transform="translate(185 231)" fill="#5674cf"/><path d="M0,0C0,3,0,3-1.969,5.262L-4.5,7.688l-2.531,2.449L-9,12l-1-3Z" transform="translate(292 334)" fill="#7da0e5"/><path d="M0,0,3,1V3A52.043,52.043,0,0,1-14,3V2q2.373-.294,4.75-.562l2.672-.316A17.2,17.2,0,0,1,0,2Z" transform="translate(335 326)" fill="#496fcb"/><path d="M0,0A14.944,14.944,0,0,1,2,4L1.094,5.781C-.245,8.5-.41,10.74-.625,13.75l-.227,2.984L-1,19H-2q-.082-3.062-.125-6.125L-2.2,9.43A29.1,29.1,0,0,1,0,0Z" transform="translate(276 240)" fill="#5573ca"/><path d="M0,0,2.25.313l1,3-10,2C-3.427.389-3.427.389,0,0Z" transform="translate(292.75 232.688)" fill="#6c8ddc"/><path d="M0,0H1q.064,2.5,0,5L0,6c-.233,1.682-.413,3.371-.562,5.063l-.254,2.785L-1,16H-2q-.081-3.156-.125-6.312L-2.2,6.137C-2,3-2,3,0,0Z" transform="translate(175 241)" fill="#4d6ac4"/><path d="M0,0H1V10l-2,1C-2.6,7-1.293,3.954,0,0Z" transform="translate(171 384)" fill="#3958b8"/><path d="M0,0H1V10l-2,1C-2.6,7-1.293,3.954,0,0Z" transform="translate(171 286)" fill="#3958b8"/></g></svg>