<svg xmlns="http://www.w3.org/2000/svg" width="495.403" height="471.839" viewBox="0 0 495.403 471.839">
  <g id="ic_unit_ownership" transform="translate(-8.597 492)">
    <path id="Path_1" data-name="Path 1" d="M51-491.3c-18,3-33.8,16.4-40.1,33.9C9.2-453,8.7-449,8.6-441.5c-.1,12.5,2.1,19.6,9.3,30.5.9,1.3,7,1.6,41.3,2l40.3.5.3,170.4c.1,123.9.5,170.8,1.3,171.8,1,1.1,26.4,1.3,150.5,1.3H401l.2,21.2.3,21.2,2.7,1.5c2.6,1.5,3,1.3,20.2-10.2,9.7-6.4,17.8-11.7,18.1-11.7s8,5,17.2,11.1c9.2,6.2,17.5,11.4,18.5,11.7a5.34,5.34,0,0,0,3.8-1.3c1.9-1.8,2-3.4,2-53.7v-51.9l5-6.2c8.8-10.8,14.9-26.2,15-37.8,0-4.9-3-7.6-6.8-6.3-2.1.7-2.8,1.8-3.4,4.9-2.1,12.8-3,16.2-5.8,21.8a49.652,49.652,0,0,1-45,28.1c-11.1,0-19.3-2.4-28.5-8.5A49.323,49.323,0,0,1,392-173c0-14,4.7-25.7,14.4-35.5,19.4-19.8,50.3-20.7,70.5-2,7.7,7.2,13.1,7.3,13.1.4,0-6.7-21-20.4-35.2-23.1l-6.8-1.3V-340c0-116.9.2-112.1-6.6-125.1a52.406,52.406,0,0,0-21.2-20.8c-12.3-6.2-9.5-6.1-113-6.1-63.1,0-95,.3-96.3,1a4.228,4.228,0,0,0-1.9,3.8c0,6.1-7.2,5.7,100.2,6.2l98.3.5,6.6,3.2a46.386,46.386,0,0,1,19.7,20l2.7,5.8.3,108.6.2,108.7-4.7.7c-11.5,1.7-25,8.9-33.7,18-22,22.8-23.1,57.2-2.7,82.2l5.1,6.2V-75H110V-260.5c0-131.5-.3-186.9-1.1-190.7A52.981,52.981,0,0,0,96.3-475l-5.5-6h14.4c15.7,0,18.8-.9,18.8-5.5,0-5.5-.2-5.5-36.8-5.4C68.7-491.8,52.4-491.5,51-491.3Zm25.1,14A43.2,43.2,0,0,1,95.3-458c3.1,6.3,3.2,6.7,3.5,22.7l.4,16.3H25l-2.5-5c-7.1-14-3.7-33.7,8-45.3,8.6-8.6,17-11.8,30.1-11.4C68.5-480.5,70.6-480,76.1-477.3ZM415.6-118.1c8.1,3.9,14.1,5.4,23.9,5.8,12.8.6,21.4-1.3,33.8-7.5.4-.2.7,18.6.7,41.8,0,34.8-.2,42.1-1.3,41.7-.8-.3-7.6-4.6-15.1-9.6-7.6-5-14.3-9.1-14.9-9.1-.7,0-7.5,4.1-15.2,9.1s-14.6,9.4-15.2,9.6c-1,.4-1.3-8.3-1.3-41.6,0-23.2.1-42.1.3-42.1A32.387,32.387,0,0,1,415.6-118.1Z"/>
    <path id="Path_2" data-name="Path 2" d="M152.7-490.2c-2.3,2.6-2.1,5.8.5,7.6,1.7,1.2,4.9,1.6,13.5,1.6,10,0,11.5-.2,13.3-2,2.5-2.5,2.6-5.2.2-7.3-1.5-1.4-4.1-1.7-13.9-1.7C156-492,154.1-491.7,152.7-490.2Z"/>
    <path id="Path_3" data-name="Path 3" d="M228.5-405.9c-23.6,19.9-44.5,37.4-46.2,39-3.9,3.5-4.5,8.2-1.4,9.9,1.1.6,8.7,1,17.5,1h15.5l.3,35.3c.2,28.2.6,35.7,1.7,37,1.2,1.5,6.5,1.7,57.7,1.7h56.3l1.5-2.2c1.4-1.9,1.6-7.2,1.6-37V-356h15.8c16.1,0,18.2-.4,19.4-4a5.854,5.854,0,0,0-.1-3.2c-1-2.7-92.4-78.8-94.6-78.8C272.4-441.9,253.2-426.6,228.5-405.9Zm88.3,12.4,31.1,26-11.6.5c-9.9.4-11.7.8-12.9,2.4-1.1,1.6-1.4,8.4-1.4,37.3V-292H297.1l-.3-20.3-.3-20.4-3-4.9a27.037,27.037,0,0,0-7.9-7.9c-4.3-2.6-5.9-3-12.1-3s-7.8.4-12.1,3a27.037,27.037,0,0,0-7.9,7.9l-3,4.9-.3,20.4-.3,20.3H225v-35.9c0-32.1-.2-36-1.6-37.2-1.1-.9-5.5-1.6-13-1.9l-11.3-.5,37.2-31.1,37.2-31.1,6.1,5.1C283-421.8,299.7-407.8,316.8-393.5Zm-35.3,57.7c4.8,3.8,5.5,7.1,5.5,26.3V-292H259.8l.4-18.8c.3-20.4.9-22.6,6.7-25.7C271-338.7,278.2-338.4,281.5-335.8Z"/>
    <path id="Path_4" data-name="Path 4" d="M155.9-234.7c-8.8,4.6-13.5,15.8-10.8,25.5,1.7,6.3,8.7,13.3,14.9,15,3.5,1,25.2,1.2,94,1l89.5-.3,4.2-2.2c16.1-8.7,15-32.7-1.9-39.7-3.2-1.4-11.9-1.6-65.6-1.6-46.7,0-62.1.3-63,1.2-1.6,1.6-1.5,6.3.1,7.7.9.7,20,1.1,63,1.3l61.7.3,3.2,3.3c2.9,2.8,3.3,3.9,3.3,8.3,0,4.5-.4,5.4-3.3,8L342-204H161.8l-3.4-3.4c-3.9-3.9-4.5-8.6-1.8-13.7,2.3-4.5,6.7-5.9,18.8-5.9,12.8,0,15.8-1.9,12.6-8.1-1-1.7-2.2-1.9-14.4-1.9C161.7-237,159.9-236.8,155.9-234.7Z"/>
    <path id="Path_5" data-name="Path 5" d="M157.5-157.1c-16.5,7.5-17.8,30.2-2.2,39.1l5.2,3h88.3c98.1,0,92.1.4,99.5-6.8,4.5-4.4,7.3-12.4,6.2-18-1.6-8.4-8.1-16.2-15.2-18.1-2.5-.7-33.1-1.1-90.8-1.1C166.5-159,161.3-158.9,157.5-157.1Zm183.1,12.5c3.9,3.9,4.5,8.9,1.7,13.7-3.6,6.1.1,5.9-92.7,5.9-92.7,0-89.9.2-93-5.9-2.7-5.1-2.1-9.8,1.8-13.7l3.4-3.4H337.2Z"/>
  </g>
</svg>
