<svg xmlns="http://www.w3.org/2000/svg" width="44" height="57.607" viewBox="0 0 44 57.607">
  <g id="ic_water_2" transform="translate(-60.467 0.001)">
    <g id="Group_58935" data-name="Group 58935" transform="translate(60.467 0)">
      <path id="Path_38925" data-name="Path 38925" d="M244.1,141.732l-10.7-25.681a1.512,1.512,0,0,0-2.791,0l-10.7,25.681a13.1,13.1,0,1,0,24.192,0Z" transform="translate(-201.12 -102.269)" fill="#68ccea"/>
      <path id="Path_38926" data-name="Path 38926" d="M226.953,141.732l8.573-20.574-2.128-5.106a1.512,1.512,0,0,0-2.791,0l-10.7,25.681A13.124,13.124,0,0,0,235.525,159.4,13.116,13.116,0,0,1,226.953,141.732Z" transform="translate(-201.085 -102.269)" fill="#5abce2"/>
      <path id="Path_38927" data-name="Path 38927" d="M75.423,130.907l-6.347-15.233a.9.9,0,0,0-1.656,0l-6.347,15.233a7.773,7.773,0,1,0,14.35,0Z" transform="translate(-60.467 -102.194)" fill="#68ccea"/>
      <path id="Path_38928" data-name="Path 38928" d="M65.907,130.719l4.719-11.327-1.55-3.72a.9.9,0,0,0-1.656,0l-6.347,15.234a7.786,7.786,0,0,0,9.881,10.285,7.78,7.78,0,0,1-5.047-10.472Z" transform="translate(-60.467 -102.193)" fill="#5abce2"/>
      <path id="Path_38929" data-name="Path 38929" d="M194.626,9.089,190.971.317a.516.516,0,0,0-.953,0l-3.655,8.772a4.476,4.476,0,1,0,8.263,0Z" transform="translate(-171.896 0)" fill="#68ccea"/>
      <path id="Path_38930" data-name="Path 38930" d="M191.009,9.089l1.808-4.34L190.971.317a.516.516,0,0,0-.953,0l-3.655,8.772a4.479,4.479,0,0,0,6.455,5.55,4.477,4.477,0,0,1-1.808-5.55Z" transform="translate(-171.894 0)" fill="#5abce2"/>
      <g id="Group_58933" data-name="Group 58933" transform="translate(35.133 40.113)">
        <path id="Path_38931" data-name="Path 38931" d="M373.064,369.119a.871.871,0,0,1,.208-1.214,8.156,8.156,0,0,0,2.836-9.827.871.871,0,1,1,1.608-.67,9.891,9.891,0,0,1-3.438,11.92A.871.871,0,0,1,373.064,369.119Z" transform="translate(-372.904 -356.87)" fill="#fff"/>
      </g>
      <g id="Group_58934" data-name="Group 58934" transform="translate(8.997 28.859)">
        <path id="Path_38932" data-name="Path 38932" d="M140.606,263.388a.871.871,0,0,1,.208-1.215,3.645,3.645,0,0,0,1.268-4.39.871.871,0,0,1,1.609-.67,5.38,5.38,0,0,1-1.869,6.483A.871.871,0,0,1,140.606,263.388Z" transform="translate(-140.446 -256.576)" fill="#fff"/>
      </g>
    </g>
  </g>
</svg>
