<svg xmlns="http://www.w3.org/2000/svg" width="19.5" height="16.633" viewBox="0 0 19.5 16.633"><path d="M1783.5,183.113h-15a2.316,2.316,0,0,1-2.25-2.372v-11.89a2.316,2.316,0,0,1,2.25-2.371h15a2.316,2.316,0,0,1,2.25,2.371v11.89A2.316,2.316,0,0,1,1783.5,183.113Zm-15-15.133a.818.818,0,0,0-.75.871v11.89a.819.819,0,0,0,.75.872h15a.819.819,0,0,0,.75-.872v-11.89a.818.818,0,0,0-.75-.871Zm6.8,11.89h-5.6a1.426,1.426,0,0,1-1.449-1.4v-.649a2.778,2.778,0,0,1,2.84-2.695,2.948,2.948,0,0,1-1.341-2.5,2.755,2.755,0,1,1,5.5,0,2.948,2.948,0,0,1-1.341,2.5,2.778,2.778,0,0,1,2.84,2.695v.649A1.426,1.426,0,0,1,1775.3,179.871Zm-5.55-1.5h5.5v-.548a1.281,1.281,0,0,0-1.35-1.195h0a3.743,3.743,0,0,1-2.792,0h0a1.281,1.281,0,0,0-1.35,1.195Zm2.749-7.151a1.42,1.42,0,1,0,1.251,1.41A1.339,1.339,0,0,0,1772.5,171.22Zm10.25,5.908h-4.5a.922.922,0,0,1-1-.875V176a.922.922,0,0,1,1-.874h4.5a.923.923,0,0,1,1,.874v.25A.923.923,0,0,1,1782.75,177.128Zm0-2.162h-4.5a.922.922,0,0,1-1-.875v-.25a.922.922,0,0,1,1-.874h4.5a.923.923,0,0,1,1,.874v.25A.923.923,0,0,1,1782.75,174.966Zm0-2.165h-4.5a.922.922,0,0,1-1-.875v-.25a.922.922,0,0,1,1-.875h4.5a.923.923,0,0,1,1,.875v.25A.923.923,0,0,1,1782.75,172.8Z" transform="translate(-1766.25 -166.481)" fill="#121212"/></svg>