<svg xmlns="http://www.w3.org/2000/svg" width="14.067" height="13.8" viewBox="0 0 14.067 13.8">
  <g id="Image_2" data-name="Image 2" transform="translate(-0.1 -0.1)">
    <path id="Stroke_1" data-name="Stroke 1" d="M9.179,0H3.321A3.22,3.22,0,0,0,0,3.491V9.009A3.217,3.217,0,0,0,3.321,12.5H9.178A3.217,3.217,0,0,0,12.5,9.009V3.491A3.217,3.217,0,0,0,9.179,0Z" transform="translate(0.75 0.75)" fill="none" stroke="#8a8a8f" stroke-linecap="round" stroke-linejoin="round" stroke-miterlimit="10" stroke-width="1.3"/>
    <path id="Stroke_3" data-name="Stroke 3" d="M2.5,1.25A1.25,1.25,0,1,1,1.25,0,1.251,1.251,0,0,1,2.5,1.25Z" transform="translate(3.637 3.587)" fill="none" stroke="#8a8a8f" stroke-linecap="round" stroke-linejoin="round" stroke-miterlimit="10" stroke-width="1.3"/>
    <path id="Stroke_5" data-name="Stroke 5" d="M11.823,1.983A15.447,15.447,0,0,0,9.792.227,1.588,1.588,0,0,0,7.651.743c-.518.671-.842,1.574-1.624,2-.964.522-1.53-.32-2.334-.657-.9-.376-1.579.3-2.1.95S.534,4.327,0,4.97" transform="translate(1.427 7.03)" fill="none" stroke="#8a8a8f" stroke-linecap="round" stroke-linejoin="round" stroke-miterlimit="10" stroke-width="1.3"/>
  </g>
</svg>
