<svg xmlns="http://www.w3.org/2000/svg" width="16.445" height="13.362" viewBox="0 0 16.445 13.362">
  <path id="twitter" d="M16.445,49.582a7.029,7.029,0,0,1-1.943.532,3.352,3.352,0,0,0,1.483-1.863,6.738,6.738,0,0,1-2.138.816,3.371,3.371,0,0,0-5.832,2.305,3.472,3.472,0,0,0,.078.769,9.543,9.543,0,0,1-6.949-3.526,3.372,3.372,0,0,0,1.036,4.506,3.33,3.33,0,0,1-1.523-.415v.037a3.387,3.387,0,0,0,2.7,3.313,3.365,3.365,0,0,1-.884.111,2.981,2.981,0,0,1-.638-.058,3.4,3.4,0,0,0,3.15,2.349A6.774,6.774,0,0,1,.807,59.9,6.314,6.314,0,0,1,0,59.849a9.491,9.491,0,0,0,5.172,1.513,9.53,9.53,0,0,0,9.6-9.594c0-.149-.005-.293-.012-.436A6.726,6.726,0,0,0,16.445,49.582Z" transform="translate(0 -48)" fill="#03a9f4"/>
</svg>
