<svg id="svgexport-6" xmlns="http://www.w3.org/2000/svg" width="16.5" height="16.5" viewBox="0 0 16.5 16.5">
  <path id="Path_38852" data-name="Path 38852" d="M8.252,0h0A8.245,8.245,0,0,0,1.571,13.086L.542,16.15l3.171-1.014A8.249,8.249,0,1,0,8.252,0Z" fill="#4caf50"/>
  <path id="Path_38853" data-name="Path 38853" d="M116.829,124.935a2.32,2.32,0,0,1-1.614,1.16c-.43.091-.991.164-2.88-.618a10.3,10.3,0,0,1-4.094-3.614,4.693,4.693,0,0,1-.977-2.479,2.623,2.623,0,0,1,.841-2,1.2,1.2,0,0,1,.841-.295c.1,0,.193.005.276.009.242.01.363.025.522.406.2.478.682,1.657.739,1.778a.489.489,0,0,1,.035.445,1.42,1.42,0,0,1-.266.377c-.121.14-.236.247-.358.4-.111.13-.236.27-.1.512a7.3,7.3,0,0,0,1.334,1.657,6.047,6.047,0,0,0,1.929,1.189.52.52,0,0,0,.58-.091,9.947,9.947,0,0,0,.642-.851.459.459,0,0,1,.59-.179c.222.077,1.4.658,1.639.778s.4.179.46.28A2.046,2.046,0,0,1,116.829,124.935Z" transform="translate(-103.791 -113.297)" fill="#fafafa"/>
</svg>
